<svg width="30" height="30" viewBox="0 0 30 30" fill="none" xmlns="http://www.w3.org/2000/svg">
<path fill-rule="evenodd" clip-rule="evenodd" d="M11.8125 15.0938V25.9688C11.8125 26.1563 11.9062 26.25 12.0937 26.25H16.4062C16.5938 26.25 16.6875 26.1563 16.6875 25.9688V14.9062H19.875C20.0625 14.9062 20.1562 14.8125 20.1562 14.625L20.4375 11.25C20.4375 11.0625 20.3438 10.9687 20.1562 10.9687H16.6875V8.625C16.6875 8.0625 17.1563 7.59375 17.8125 7.59375H20.25C20.5313 7.59375 20.625 7.5 20.625 7.3125V4.03125C20.625 3.84375 20.5313 3.75 20.3438 3.75H16.2187C13.7812 3.75 11.8125 5.53125 11.8125 7.78125V10.9687H9.65625C9.46875 10.9687 9.375 11.0625 9.375 11.25V14.625C9.375 14.8125 9.46875 14.9062 9.65625 14.9062H11.8125V15.0938Z" fill="white"/>
</svg>
