<svg width="129" height="37" viewBox="0 0 129 37" fill="none" xmlns="http://www.w3.org/2000/svg">
<path d="M43.586 29C43.7073 28.012 43.8287 27.0283 43.95 26.049C44.0713 25.0697 44.2013 24.008 44.34 22.864L45.12 16.715C45.2587 15.5797 45.3887 14.5223 45.51 13.543C45.6313 12.555 45.7613 11.528 45.9 10.462H48.968C49.4707 11.684 49.9473 12.8627 50.398 13.998C50.8573 15.1247 51.3123 16.2513 51.763 17.378L54.441 24.008H54.662L57.288 17.378C57.73 16.2513 58.172 15.129 58.614 14.011C59.0647 12.893 59.5327 11.71 60.018 10.462H63.073C63.203 11.5193 63.3287 12.542 63.45 13.53C63.5713 14.5093 63.7057 15.571 63.853 16.715L64.62 22.916C64.7587 24.034 64.8887 25.074 65.01 26.036C65.1313 26.998 65.2527 27.986 65.374 29H62.462C62.28 27.4833 62.1067 26.0403 61.942 24.671C61.7773 23.3017 61.6213 22.0233 61.474 20.836L60.85 15.714H60.629L58.549 21.226C58.0377 22.5693 57.5263 23.9083 57.015 25.243C56.5123 26.5777 56.0443 27.83 55.611 29H53.557C53.271 28.2547 52.9547 27.4487 52.608 26.582C52.2613 25.7153 51.906 24.827 51.542 23.917C51.1867 23.007 50.8357 22.1187 50.489 21.252L48.292 15.714H48.071L47.46 20.81C47.3127 22.006 47.1567 23.293 46.992 24.671C46.8273 26.0403 46.6497 27.4833 46.459 29H43.586ZM69.013 29C69.013 28.0553 69.013 27.141 69.013 26.257C69.013 25.373 69.013 24.398 69.013 23.332V22.032C69.013 21.2347 69.013 20.5023 69.013 19.835C69.013 19.1677 69.013 18.5307 69.013 17.924C69.013 17.3173 69.013 16.702 69.013 16.078L71.795 15.987C71.795 16.6197 71.795 17.2437 71.795 17.859C71.795 18.4743 71.795 19.12 71.795 19.796C71.795 20.472 71.795 21.2173 71.795 22.032V23.332C71.795 24.398 71.795 25.373 71.795 26.257C71.795 27.141 71.795 28.0553 71.795 29H69.013ZM70.365 13.452C69.8103 13.452 69.3597 13.309 69.013 13.023C68.675 12.7283 68.506 12.269 68.506 11.645C68.506 11.0643 68.675 10.6223 69.013 10.319C69.3597 10.0157 69.819 9.864 70.391 9.864C70.9717 9.864 71.4267 10.02 71.756 10.332C72.094 10.644 72.263 11.0817 72.263 11.645C72.263 12.269 72.094 12.7283 71.756 13.023C71.418 13.309 70.9543 13.452 70.365 13.452ZM79.6768 29.299C79.1135 29.299 78.5545 29.26 77.9998 29.182C77.4538 29.104 76.9382 28.9957 76.4528 28.857C75.9762 28.7097 75.5558 28.5493 75.1918 28.376L75.3998 25.854C75.7898 26.0793 76.2145 26.2787 76.6738 26.452C77.1332 26.6167 77.6098 26.7467 78.1038 26.842C78.6065 26.9287 79.1092 26.972 79.6118 26.972C80.0278 26.972 80.4092 26.933 80.7558 26.855C81.1112 26.7683 81.3928 26.608 81.6008 26.374C81.8175 26.14 81.9258 25.7933 81.9258 25.334C81.9258 25.0307 81.8262 24.7793 81.6268 24.58C81.4275 24.3807 81.1025 24.203 80.6518 24.047C80.2012 23.8823 79.5858 23.6917 78.8058 23.475C78.0865 23.2843 77.4582 23.046 76.9208 22.76C76.3922 22.474 75.9805 22.0927 75.6858 21.616C75.3912 21.1393 75.2438 20.511 75.2438 19.731C75.2438 18.4743 75.6468 17.4993 76.4528 16.806C77.2588 16.1127 78.3378 15.766 79.6898 15.766C80.2618 15.766 80.8165 15.8137 81.3538 15.909C81.8912 15.9957 82.3808 16.1127 82.8228 16.26C83.2735 16.3987 83.6548 16.546 83.9668 16.702L83.7458 19.224C83.3472 18.9727 82.9138 18.7647 82.4458 18.6C81.9865 18.4267 81.5445 18.301 81.1198 18.223C80.6952 18.1363 80.3355 18.093 80.0408 18.093C79.7028 18.093 79.3822 18.1407 79.0788 18.236C78.7842 18.3227 78.5458 18.4787 78.3638 18.704C78.1818 18.9207 78.0908 19.2153 78.0908 19.588C78.0908 19.8827 78.1602 20.134 78.2988 20.342C78.4375 20.55 78.6888 20.7407 79.0528 20.914C79.4255 21.0873 79.9628 21.2693 80.6648 21.46C81.5402 21.7113 82.2812 21.9757 82.8878 22.253C83.5032 22.5303 83.9668 22.8943 84.2788 23.345C84.5908 23.7957 84.7468 24.4197 84.7468 25.217C84.7468 26.0143 84.5735 26.7207 84.2268 27.336C83.8802 27.9513 83.3342 28.4323 82.5888 28.779C81.8435 29.1257 80.8728 29.299 79.6768 29.299ZM92.7959 29.312C91.9032 29.312 91.1405 29.1647 90.5079 28.87C89.8839 28.5753 89.4072 28.116 89.0779 27.492C88.7572 26.868 88.5969 26.062 88.5969 25.074C88.5969 24.3893 88.5969 23.7047 88.5969 23.02C88.5969 22.3267 88.5969 21.6377 88.5969 20.953C88.5969 20.2597 88.5969 19.5707 88.5969 18.886C88.5969 18.2013 88.5969 17.5167 88.5969 16.832C88.5969 15.9133 88.5969 15.064 88.5969 14.284C88.5969 13.504 88.5969 12.7023 88.5969 11.879L91.3399 11.333C91.3399 11.9917 91.3399 12.6027 91.3399 13.166C91.3399 13.7293 91.3399 14.3057 91.3399 14.895C91.3399 15.4757 91.3399 16.1213 91.3399 16.832V24.307C91.3399 25.191 91.5175 25.8583 91.8729 26.309C92.2282 26.751 92.7829 26.972 93.5369 26.972C93.8489 26.972 94.1825 26.92 94.5379 26.816C94.9019 26.7033 95.2355 26.5343 95.5389 26.309L95.7339 28.649C95.5345 28.779 95.2789 28.896 94.9669 29C94.6635 29.0953 94.3212 29.169 93.9399 29.221C93.5672 29.2817 93.1859 29.312 92.7959 29.312ZM86.2439 18.223V16.078H95.6299V18.223C94.7805 18.223 93.9269 18.223 93.0689 18.223C92.2109 18.223 91.3745 18.223 90.5599 18.223H89.3769H86.2439ZM98.4395 29C98.4395 28.0553 98.4395 27.141 98.4395 26.257C98.4395 25.373 98.4395 24.398 98.4395 23.332V22.032C98.4395 21.07 98.4395 20.0907 98.4395 19.094C98.4395 18.0887 98.4395 17.0833 98.4395 16.078L100.819 15.922L100.923 18.47H101.183C101.529 17.7073 101.924 17.131 102.366 16.741C102.808 16.351 103.258 16.091 103.718 15.961C104.177 15.8223 104.606 15.753 105.005 15.753C105.23 15.753 105.464 15.7703 105.707 15.805C105.949 15.8397 106.179 15.896 106.396 15.974L106.149 18.73C105.845 18.678 105.572 18.639 105.33 18.613C105.087 18.587 104.81 18.574 104.498 18.574C104.255 18.574 103.986 18.6087 103.692 18.678C103.397 18.7387 103.098 18.8687 102.795 19.068C102.5 19.2673 102.214 19.5663 101.937 19.965C101.668 20.355 101.43 20.8707 101.222 21.512V23.475C101.222 24.4717 101.222 25.4077 101.222 26.283C101.222 27.1497 101.222 28.0553 101.222 29H98.4395ZM111.765 29.273C111.029 29.273 110.37 29.1257 109.789 28.831C109.209 28.5277 108.749 28.0943 108.411 27.531C108.082 26.959 107.917 26.2657 107.917 25.451C107.917 24.7317 108.039 24.1293 108.281 23.644C108.533 23.15 108.862 22.747 109.269 22.435C109.677 22.123 110.132 21.8803 110.634 21.707C111.137 21.5337 111.644 21.408 112.155 21.33L115.99 20.732C116.025 20.0127 115.917 19.4623 115.665 19.081C115.423 18.6997 115.076 18.4397 114.625 18.301C114.183 18.1623 113.681 18.093 113.117 18.093C112.823 18.093 112.502 18.1147 112.155 18.158C111.817 18.2013 111.458 18.275 111.076 18.379C110.704 18.4743 110.309 18.5957 109.893 18.743C109.486 18.8817 109.066 19.0507 108.632 19.25L108.476 16.78C108.797 16.65 109.157 16.5243 109.555 16.403C109.954 16.2817 110.383 16.1733 110.842 16.078C111.31 15.974 111.791 15.896 112.285 15.844C112.779 15.792 113.282 15.766 113.793 15.766C114.816 15.766 115.691 15.9177 116.419 16.221C117.147 16.5243 117.706 17.0097 118.096 17.677C118.486 18.3357 118.681 19.1937 118.681 20.251C118.681 20.667 118.681 21.1827 118.681 21.798C118.681 22.4133 118.681 22.9853 118.681 23.514V25.074C118.681 25.6893 118.681 26.3133 118.681 26.946C118.681 27.5787 118.681 28.2633 118.681 29H116.172L116.016 27.284H115.769C115.518 27.6047 115.202 27.9167 114.82 28.22C114.448 28.5233 114.001 28.7747 113.481 28.974C112.97 29.1733 112.398 29.273 111.765 29.273ZM112.675 27.063C113.091 27.063 113.499 26.972 113.897 26.79C114.305 26.5993 114.682 26.3307 115.028 25.984C115.375 25.6373 115.674 25.217 115.925 24.723V22.435C115.795 22.513 115.626 22.5867 115.418 22.656C115.219 22.7253 114.916 22.8033 114.508 22.89C114.101 22.9767 113.529 23.085 112.792 23.215C112.368 23.2843 112.004 23.41 111.7 23.592C111.397 23.774 111.159 24.0123 110.985 24.307C110.821 24.593 110.738 24.9353 110.738 25.334C110.738 25.9667 110.929 26.413 111.31 26.673C111.7 26.933 112.155 27.063 112.675 27.063ZM122.383 29C122.383 28.0553 122.383 27.141 122.383 26.257C122.383 25.373 122.383 24.398 122.383 23.332V16.169C122.383 15.0857 122.383 14.0283 122.383 12.997C122.383 11.9657 122.383 10.956 122.383 9.968L125.165 9.669C125.165 10.709 125.165 11.762 125.165 12.828C125.165 13.8853 125.165 14.999 125.165 16.169V23.332C125.165 24.398 125.165 25.373 125.165 26.257C125.165 27.141 125.165 28.0553 125.165 29H122.383Z" fill="white"/>
<path fill-rule="evenodd" clip-rule="evenodd" d="M5.142 5H10.2855V10.1991H15.429V15.3997H15.426H20.5725V10.1991H25.713V5H30.858V25.7994H36V31H20.571V25.8009H15.429V20.6003H10.284V25.7994L15.429 25.8009V31H0V25.7994H5.142V5ZM20.571 25.8009H25.713V20.6003H20.5725V25.8009H20.571Z" fill="white"/>
</svg>
