<svg width="2477" height="1794" viewBox="0 0 2477 1794" fill="none" xmlns="http://www.w3.org/2000/svg">
<mask id="mask0_5046_2521" style="mask-type:luminance" maskUnits="userSpaceOnUse" x="269" y="0" width="1574" height="1324">
<path d="M269.156 0H1842.2V1323.45H269.156V0Z" fill="white"/>
</mask>
<g mask="url(#mask0_5046_2521)">
<path d="M443.552 1323.45C443.552 1323.45 52.8666 960.18 443.552 624.576C443.552 624.576 1181.24 74.2225 1231.48 0.9375C1231.48 0.9375 1598.14 401.812 1841.29 480.677C1841.29 480.677 1522.66 395.019 1231.48 114.015C1231.48 114.015 703.929 562.94 491.359 693.009C491.603 693.009 176.382 908.732 443.552 1323.45Z" fill="white"/>
</g>
<path d="M727.329 1176.61H624.641L781.107 723.344H904.61L1060.86 1176.61H958.17L924.524 1073.26H760.974L727.329 1176.61ZM785.319 998.444H900.398L844.624 826.908H841.093L785.319 998.444Z" fill="url(#paint0_linear_5046_2521)"/>
<path d="M1207.81 723.344V1176.61H1113.52V723.344H1207.81Z" fill="url(#paint1_linear_5046_2521)"/>
<path d="M1283.05 1176.59V836.635H1377.34V1176.59H1283.05ZM1330.42 792.814C1316.56 792.814 1304.61 788.134 1294.56 778.767C1284.53 769.406 1279.52 758.159 1279.52 745.024C1279.52 731.897 1284.53 720.679 1294.56 711.38C1304.61 702.079 1316.56 697.43 1330.42 697.43C1344.45 697.43 1356.47 702.079 1366.51 711.38C1376.53 720.679 1381.55 731.897 1381.55 745.024C1381.55 758.159 1376.53 769.406 1366.51 778.767C1356.47 788.134 1344.45 792.814 1330.42 792.814Z" fill="url(#paint2_linear_5046_2521)"/>
<path d="M1452.59 1176.6V836.64H1542.44V896.627H1546.43C1553.5 876.566 1565.35 860.827 1581.96 849.397C1598.55 837.955 1618.29 832.234 1641.16 832.234C1664.46 832.234 1684.3 838.028 1700.68 849.617C1717.06 861.193 1727.98 876.858 1733.45 896.627H1736.98C1743.92 877.151 1756.51 861.557 1774.71 849.835C1792.94 838.101 1814.53 832.234 1839.45 832.234C1871.18 832.234 1896.96 842.306 1916.8 862.447C1936.64 882.574 1946.57 911.081 1946.57 947.971V1176.6H1852.53V966.571C1852.53 947.678 1847.49 933.509 1837.45 924.064C1827.43 914.618 1814.89 909.895 1799.84 909.895C1782.73 909.895 1769.38 915.36 1759.79 926.28C1750.2 937.204 1745.41 951.446 1745.41 969.005V1176.6H1653.99V964.575C1653.99 947.91 1649.22 934.63 1639.7 924.745C1630.18 914.849 1617.69 909.895 1602.21 909.895C1586.56 909.895 1573.42 915.616 1562.79 927.058C1552.18 938.5 1546.87 953.661 1546.87 972.535V1176.6H1452.59Z" fill="url(#paint3_linear_5046_2521)"/>
<mask id="mask1_5046_2521" style="mask-type:luminance" maskUnits="userSpaceOnUse" x="1449" y="595" width="486" height="208">
<path d="M1449.57 595.406H1934.53V802.413H1449.57V595.406Z" fill="white"/>
</mask>
<g mask="url(#mask1_5046_2521)">
<path d="M1451.24 796.327C1450.72 750.942 1458.48 692.903 1474.53 622.216C1524.85 606.953 1591.04 598.414 1673.11 596.593C1700.15 595.845 1729.68 596.892 1761.73 599.716C1843.13 608.802 1886.74 613.283 1892.57 613.16C1896.82 613.708 1899.98 614.706 1902.04 616.149C1915.81 636.228 1926.59 693.536 1934.38 788.056C1933.47 795.542 1897.96 799.833 1827.87 800.929C1808.97 802.371 1733.6 801.428 1601.77 798.093L1449.55 800.362L1451.24 796.327Z" fill="white"/>
</g>
<path d="M1489.07 712.318C1490.96 707.467 1496.65 694.491 1506.12 673.389C1507.54 670.407 1508.85 668.855 1510.05 668.734C1512.35 668.576 1515.8 670.967 1520.43 675.91C1521.35 676.633 1526.59 682.964 1536.14 694.899C1537.52 696.493 1539.84 698.874 1543.11 702.05C1543.69 702.689 1543.87 703.438 1543.7 704.296C1538.94 711.167 1532 722.634 1522.86 738.69C1521.61 740.741 1520.68 741.8 1520.06 741.861C1510.18 736.572 1499.5 728.05 1488 716.286L1489.07 712.318Z" fill="#D6CE2B"/>
<path d="M1563 704.815C1564.9 699.965 1570.58 686.989 1580.05 665.881C1581.47 662.905 1582.79 661.353 1583.99 661.226C1586.27 661.074 1589.73 663.465 1594.37 668.401C1595.28 669.125 1600.52 675.455 1610.06 687.397C1611.44 688.985 1613.77 691.371 1617.04 694.547C1617.61 695.181 1617.81 695.93 1617.64 696.787C1612.87 703.664 1605.93 715.126 1596.79 731.181C1595.55 733.239 1594.61 734.291 1593.98 734.358C1584.12 729.069 1573.43 720.542 1561.93 708.784L1563 704.815Z" fill="#D6CE2B"/>
<path d="M1636.6 700.191C1638.49 695.333 1644.17 682.357 1653.65 661.256C1655.06 658.274 1656.38 656.722 1657.59 656.601C1659.86 656.448 1663.32 658.84 1667.96 663.776C1668.87 664.5 1674.11 670.83 1683.66 682.765C1685.05 684.36 1687.36 686.739 1690.63 689.917C1691.21 690.556 1691.4 691.305 1691.23 692.163C1686.46 699.034 1679.52 710.501 1670.38 726.556C1669.14 728.607 1668.21 729.667 1667.59 729.733C1657.71 724.438 1647.02 715.917 1635.54 704.159L1636.6 700.191Z" fill="#D6CE2B"/>
<path d="M1713.94 704.123C1715.83 699.272 1721.51 686.296 1730.99 665.188C1732.41 662.213 1733.72 660.66 1734.93 660.539C1737.2 660.381 1740.66 662.773 1745.3 667.709C1746.21 668.433 1751.45 674.762 1761 686.704C1762.39 688.292 1764.71 690.678 1767.97 693.856C1768.55 694.488 1768.74 695.237 1768.57 696.095C1763.81 702.973 1756.86 714.433 1747.72 730.489C1746.48 732.546 1745.54 733.599 1744.92 733.665C1735.05 728.376 1724.36 719.85 1712.86 708.091L1713.94 704.123Z" fill="#D6CE2B"/>
<path d="M1786.25 706.73C1788.14 701.873 1793.82 688.897 1803.3 667.796C1804.73 664.814 1806.03 663.262 1807.24 663.14C1809.53 662.988 1812.98 665.38 1817.62 670.316C1818.53 671.04 1823.76 677.369 1833.32 689.305C1834.7 690.9 1837.03 693.279 1840.29 696.457C1840.86 697.096 1841.06 697.844 1840.88 698.703C1836.13 705.574 1829.17 717.04 1820.05 733.096C1818.8 735.147 1817.86 736.205 1817.24 736.267C1807.37 730.977 1796.69 722.457 1785.19 710.698L1786.25 706.73Z" fill="#D6CE2B"/>
<path d="M1862.27 708.315C1864.17 703.465 1869.85 690.482 1879.31 669.381C1880.75 666.399 1882.06 664.847 1883.26 664.726C1885.55 664.574 1889 666.965 1893.64 671.901C1894.55 672.625 1899.79 678.955 1909.33 690.89C1910.72 692.485 1913.05 694.864 1916.31 698.041C1916.88 698.681 1917.08 699.43 1916.9 700.287C1912.15 707.159 1905.2 718.626 1896.07 734.681C1894.82 736.733 1893.88 737.791 1893.25 737.858C1883.39 732.563 1872.71 724.042 1861.2 712.284L1862.27 708.315Z" fill="#D6CE2B"/>
<path d="M1716.62 621.177C1712.41 621.141 1708.68 621.123 1705.39 621.123H1705.38C1692.63 621.038 1678.77 621.342 1663.82 622.03C1635.57 623.332 1613.71 624.768 1598.21 626.339L1598.2 626.345C1584.1 627.465 1556.66 631.11 1515.89 637.277H1515.88C1494.84 639.206 1480.19 640.788 1471.91 642.017L1471.9 642.023C1471.3 642.09 1470.7 642.163 1470.13 642.236L1470.14 642.243C1469.38 645.827 1468.64 649.382 1467.93 652.899C1469.4 652.675 1471.17 652.443 1473.25 652.193C1473.29 652.187 1473.35 652.182 1473.4 652.176C1481.5 650.97 1496.02 649.406 1517 647.483C1517.09 647.47 1517.2 647.458 1517.29 647.447C1558.01 641.287 1585.29 637.66 1599.14 636.564L1599.24 636.552C1614.54 635 1636.23 633.576 1664.3 632.286C1679.08 631.603 1692.77 631.305 1705.36 631.385H1705.39C1708.64 631.385 1712.36 631.402 1716.55 631.44C1736.76 631.628 1767.9 632.31 1809.98 633.479C1825.27 634.031 1838.82 634.877 1850.64 636.023C1850.79 636.034 1850.93 636.046 1851.08 636.046C1851.09 636.046 1851.09 636.046 1851.1 636.046C1851.14 636.046 1851.16 636.046 1851.21 636.046C1859.18 636.12 1880.29 639.984 1914.56 647.629C1913.47 643.575 1912.36 639.832 1911.24 636.4H1911.25C1879.6 629.437 1859.66 625.901 1851.42 625.785H1851.4C1839.42 624.635 1825.72 623.776 1810.32 623.216H1810.26C1768.13 622.048 1736.91 621.366 1716.62 621.177Z" fill="#AD1D34"/>
<path d="M1803.31 737.699C1799.86 737.669 1796.42 737.656 1792.96 737.669C1786.52 737.681 1779.47 737.76 1771.82 737.912H1771.81L1680.02 739.811H1680C1669.02 740.067 1658.71 740.469 1649.06 741.023H1649.01L1648.97 741.029C1608.12 744.066 1577.52 746.105 1557.14 747.158H1557.13C1517.71 748.478 1496.6 749.336 1493.79 749.726C1493.61 749.757 1493.41 749.787 1493.23 749.829H1493.22C1482.48 750.742 1469 752.422 1452.78 754.856H1452.79C1452.51 758.411 1452.26 761.904 1452.05 765.343C1469.36 762.714 1483.56 760.93 1494.66 760.005C1494.96 759.982 1495.25 759.933 1495.53 759.859C1499.11 759.494 1519.78 758.679 1557.55 757.413L1557.64 757.406C1578.09 756.353 1608.78 754.308 1649.69 751.265C1659.21 750.724 1669.39 750.322 1680.23 750.072L1772.02 748.173H1772.04C1779.62 748.021 1786.61 747.942 1792.98 747.936H1792.99C1796.4 747.924 1799.82 747.93 1803.22 747.966C1827.37 748.192 1851.14 749.537 1874.51 751.996C1874.57 752.001 1874.63 752.009 1874.7 752.014C1883.68 752.629 1902.84 756.177 1932.15 762.641C1931.79 759.001 1931.44 755.423 1931.08 751.91H1931.11C1903.21 745.813 1884.69 742.434 1875.54 741.784H1875.52C1851.84 739.293 1827.77 737.931 1803.31 737.699ZM1497.09 750.626C1499.61 752.191 1500.24 754.266 1498.98 756.852C1499.09 756.585 1499.18 756.299 1499.24 756C1499.69 753.925 1498.83 751.789 1497.08 750.626H1497.09ZM1497.95 758.441C1497.38 759.075 1496.7 759.506 1495.92 759.743C1496.69 759.47 1497.38 759.026 1497.94 758.441H1497.95Z" fill="#AD1D34"/>
<path d="M0 1296.33C282.008 1238.65 578.629 1254 853.164 1340.49C1127.71 1426.99 1379.58 1584.43 1577.6 1793.33C1153.95 1511.12 615.008 1405.1 110.844 1475.37L0 1296.33Z" fill="white"/>
<path d="M1199.29 1542.53C1090.12 1614.33 989.103 1698.5 899.215 1793.34C1026.94 1708.26 1165.16 1639.22 1309.73 1586.17C1273.37 1570.55 1236.55 1556.02 1199.29 1542.53Z" fill="white"/>
<path d="M1623.64 1340.5C1508.49 1376.77 1397.35 1425.58 1292.48 1485.38C1327.95 1507.83 1362.63 1531.53 1396.37 1556.5C1707.68 1457.55 2043.93 1430.48 2365.99 1475.37L2476.81 1296.33C2194.81 1238.65 1898.18 1254 1623.64 1340.5Z" fill="white"/>
<defs>
<linearGradient id="paint0_linear_5046_2521" x1="842.749" y1="723.344" x2="842.749" y2="1176.61" gradientUnits="userSpaceOnUse">
<stop offset="0.572115" stop-color="#22D3EE"/>
<stop offset="1" stop-color="#153347"/>
</linearGradient>
<linearGradient id="paint1_linear_5046_2521" x1="1160.66" y1="723.344" x2="1160.66" y2="1176.61" gradientUnits="userSpaceOnUse">
<stop offset="0.572115" stop-color="#22D3EE"/>
<stop offset="1" stop-color="#153347"/>
</linearGradient>
<linearGradient id="paint2_linear_5046_2521" x1="1330.53" y1="697.43" x2="1330.53" y2="1176.59" gradientUnits="userSpaceOnUse">
<stop offset="0.572115" stop-color="#22D3EE"/>
<stop offset="1" stop-color="#153347"/>
</linearGradient>
<linearGradient id="paint3_linear_5046_2521" x1="1699.58" y1="832.234" x2="1699.58" y2="1176.6" gradientUnits="userSpaceOnUse">
<stop offset="0.572115" stop-color="#22D3EE"/>
<stop offset="1" stop-color="#153347"/>
</linearGradient>
</defs>
</svg>
