<svg width="62" height="62" viewBox="0 0 62 62" fill="none" xmlns="http://www.w3.org/2000/svg">
<g clip-path="url(#clip0_6983_74)">
<path d="M49.6232 7.55664C46.1498 3.67871 41.5611 0.079988 30.2179 0.000852333C25.786 -0.0345358 19.0208 1.01373 13.7569 6.57998C10.5717 9.94129 8.2288 14.1881 8.89477 21.1295C9.03994 22.6359 11.19 24.3783 9.67888 27.2851C9.67888 27.2851 6.43265 32.9979 6.54689 33.9481C6.54689 33.9481 6.48921 35.6857 9.17815 35.7404C9.17815 35.7404 9.84941 35.8273 9.65575 37.3083L9.62371 39.4673C9.62371 39.4673 9.70925 40.1098 10.8854 40.5002C10.8854 40.5002 11.1095 40.7242 10.7751 41.1472C10.7751 41.1472 10.1565 41.8374 11.222 43.3296C11.6166 43.8729 12.258 44.5581 11.866 45.9647C11.866 45.9647 11.3619 48.6757 12.4261 49.3249C12.4261 49.3249 13.6359 50.7608 18.5042 50.1598C20.2064 49.9508 23.3482 49.1271 25.2207 51.4789C25.2207 51.4789 29.698 59.9874 30.039 62C30.039 62 37.6804 48.3959 47.0075 46.296C47.0075 46.296 44.7346 41.172 49.3579 34.5363C49.3579 34.5363 55.1521 26.8925 55.3234 22.6936C55.3204 22.6933 56.8485 15.6179 49.6232 7.55664ZM21.9304 15.972C21.5994 16.0924 21.3787 16.4076 21.3754 16.7584L21.34 20.7127C14.685 20.3217 14.7452 17.3909 15.3206 13.6654C15.7776 10.7065 18.0795 8.27805 21.4698 6.72989L21.4311 11.1587C21.4277 11.5095 21.6434 11.8263 21.9705 11.9534C22.2974 12.0819 22.6672 11.9905 22.9051 11.7277C23.5655 10.9848 24.492 10.5616 25.4595 10.5616C25.4703 10.5616 25.4784 10.5616 25.4885 10.5616C27.3777 10.5788 28.9019 12.132 28.8871 14.0243C28.8682 15.906 27.3309 17.4294 25.4547 17.4294C25.443 17.4294 25.4333 17.4294 25.4244 17.4294C24.4485 17.4213 23.5154 16.9807 22.8656 16.2214C22.6287 15.9489 22.2556 15.8525 21.9304 15.972ZM42.3547 26.4806C40.9216 26.3357 39.4609 25.9445 38.1234 25.3697C34.635 23.8733 33.6701 19.8965 28.1888 20.4583C26.1703 20.6658 24.4839 20.7514 23.0213 20.7547L23.0436 18.5019C23.765 18.8898 24.5695 19.1038 25.3996 19.1127C25.4143 19.1127 25.4277 19.1127 25.44 19.1127C28.239 19.1127 30.535 16.8456 30.5598 14.0374C30.5852 11.2144 28.3084 8.89888 25.4887 8.87324C24.6876 8.87659 23.8492 9.06746 23.1244 9.44307L23.1565 6.05529C25.8986 5.12962 29.1671 4.71137 32.6851 4.96411C36.3036 5.21851 39.69 6.28991 42.523 7.91052L42.5048 9.60692C41.7834 9.21737 40.9795 9.00309 40.1481 8.99668C37.3744 9.03374 35.0159 11.2498 34.9831 14.0711C34.9697 15.4407 35.4952 16.7294 36.4507 17.7061C37.409 18.6802 38.6888 19.2239 40.0592 19.2336C40.9171 19.2113 41.6979 19.0419 42.421 18.6638L42.3547 26.4806ZM44.0413 26.5252L44.1271 16.9504C44.1305 16.5996 43.9145 16.2827 43.5885 16.1565C43.2622 16.0297 42.8919 16.1186 42.6531 16.3822C41.9857 17.1309 41.0801 17.5121 40.0756 17.5458C39.1597 17.5394 38.3001 17.1727 37.6592 16.5224C37.0138 15.8676 36.6644 15.0046 36.6728 14.0889C36.6942 12.2047 38.229 10.6819 40.1049 10.6819C40.1149 10.6819 40.1263 10.6819 40.1364 10.6819C41.1278 10.69 42.0367 11.12 42.6971 11.8907C42.9242 12.159 43.2965 12.2529 43.6261 12.1368C43.9572 12.0175 44.1778 11.7037 44.1812 11.3529L44.2043 8.98442C47.5442 11.3727 49.8221 14.6181 50.2504 18.2202C50.9442 24.0795 47.8295 26.3408 44.0413 26.5252Z" fill="black"/>
</g>
<defs>
<clipPath id="clip0_6983_74">
<rect width="62" height="62" fill="white"/>
</clipPath>
</defs>
</svg>
