<svg width="15" height="15" viewBox="0 0 15 15" fill="none" xmlns="http://www.w3.org/2000/svg">
<g clip-path="url(#clip0_6732_64)">
<path d="M3.38275 8.60939C3.69988 7.63991 4.11845 6.70662 4.6315 5.82501C6.61275 2.39251 9.50338 0.351889 11.0878 1.26626C7.524 -0.791236 2.874 0.590015 0.701504 4.35251C0.44222 4.80141 0.225244 5.27344 0.0533792 5.76251C-0.108496 6.22439 0.110879 6.72126 0.534629 6.96626L3.38275 8.61001V8.60939Z" fill="white"/>
<path d="M11.6177 6.35156C11.3004 7.32107 10.8817 8.25437 10.3684 9.13594C8.38711 12.5684 5.49648 14.6097 3.91211 13.6947C7.47648 15.7528 12.1265 14.3709 14.299 10.6084C14.5582 10.1597 14.7752 9.68791 14.9471 9.19906C15.109 8.73781 14.8896 8.24031 14.4659 7.99594L11.6177 6.35219V6.35156Z" fill="white"/>
<path d="M10.3684 9.13642C12.3496 5.70392 12.6721 2.18017 11.0871 1.26517C9.50398 0.350798 6.61336 2.39267 4.63086 5.82392C5.92711 3.58017 8.26148 2.50205 9.84586 3.41642C11.4296 4.33142 11.6634 6.89142 10.3677 9.1358L10.3684 9.13642Z" fill="white"/>
<path d="M4.63137 5.82422C2.65012 9.25672 2.32762 12.7805 3.91262 13.6948C5.49637 14.6098 8.387 12.5686 10.3689 9.13609C9.07263 11.3805 6.73825 12.4586 5.15387 11.5436C3.57012 10.6292 3.33637 8.06859 4.632 5.82484L4.63137 5.82422Z" fill="white"/>
</g>
<defs>
<clipPath id="clip0_6732_64">
<rect width="15" height="15" fill="white"/>
</clipPath>
</defs>
</svg>
