<svg width="3291" height="3737" viewBox="0 0 3291 3737" fill="none" xmlns="http://www.w3.org/2000/svg">
<path d="M2475.27 1226.06C2450.41 1139.65 2415.5 1063.3 2370.51 997.014C2325.53 929.543 2270.49 872.724 2205.39 826.56C2141.47 779.211 2068.08 743.108 1985.22 718.25C1903.54 693.392 1812.99 680.963 1713.55 680.963C1527.71 680.963 1364.36 727.128 1223.5 819.457C1083.82 911.787 974.918 1046.14 896.793 1222.51C818.668 1397.7 779.605 1611.95 779.605 1865.27C779.605 2118.58 818.076 2334.02 895.017 2511.57C971.958 2689.13 1080.86 2824.67 1221.72 2918.18C1362.58 3010.51 1528.89 3056.67 1720.66 3056.67C1894.66 3056.67 2043.22 3025.9 2166.32 2964.34C2290.61 2901.61 2385.31 2813.42 2450.41 2699.78C2516.7 2586.15 2549.85 2451.8 2549.85 2296.73L2706.1 2319.81H1768.6V1740.98H3290.26V2199.07C3290.26 2518.68 3222.79 2793.3 3087.84 3022.94C2952.9 3251.39 2767.06 3427.77 2530.32 3552.06C2293.57 3675.16 2022.5 3736.72 1717.11 3736.72C1376.2 3736.72 1076.72 3661.55 818.668 3511.22C560.618 3359.7 359.387 3144.86 214.974 2866.69C71.7455 2587.33 0.130859 2255.89 0.130859 1872.37C0.130859 1577.62 42.7445 1314.84 127.972 1084.02C214.383 852.009 335.121 655.513 490.188 494.528C645.254 333.543 825.77 211.029 1031.74 126.986C1237.7 42.9417 1460.83 0.919922 1701.12 0.919922C1907.09 0.919922 2098.85 31.1046 2276.41 91.474C2453.97 150.66 2611.4 234.704 2748.71 343.605C2887.2 452.506 3000.25 582.123 3087.84 732.454C3175.44 881.602 3231.66 1046.14 3256.52 1226.06H2475.27Z" fill="url(#paint0_linear_5425_102)"/>
<path fill-rule="evenodd" clip-rule="evenodd" d="M2681.9 1674.4L1843.16 1163.86C1702.74 1078.44 1528 1186.51 1528 1358.48V2379.51C1528 2551.7 1702.74 2659.55 1843.16 2574.13L2681.9 2063.84C2823.37 1977.75 2823.37 1760.49 2681.9 1674.4Z" fill="url(#paint1_linear_5425_102)"/>
<defs>
<linearGradient id="paint0_linear_5425_102" x1="1558" y1="-592" x2="1558" y2="4329" gradientUnits="userSpaceOnUse">
<stop offset="0.610577" stop-color="white"/>
<stop offset="0.831731" stop-color="#999999"/>
</linearGradient>
<linearGradient id="paint1_linear_5425_102" x1="2158" y1="2604.02" x2="2158" y2="1134" gradientUnits="userSpaceOnUse">
<stop stop-color="#22D3EE"/>
<stop offset="1" stop-color="#60A5FA"/>
</linearGradient>
</defs>
</svg>
