<?xml version="1.0" encoding="UTF-8"?>
<svg width="24px" height="24px" viewBox="0 0 24 24" version="1.1" xmlns="http://www.w3.org/2000/svg">
    <g stroke="none" stroke-width="1" fill="none" fill-rule="evenodd">
        <path d="M12,2 C10.3431458,2 9,3.34314575 9,5 L9,11 C9,12.6568542 10.3431458,14 12,14 C13.6568542,14 15,12.6568542 15,11 L15,5 C15,3.34314575 13.6568542,2 12,2 Z M7,11 C7,13.7614237 9.23857625,16 12,16 C14.7614237,16 17,13.7614237 17,11 L19,11 C19,14.866 15.866,18 12,18 C8.134,18 5,14.866 5,11 L7,11 Z M12,20 C12.5522847,20 13,20.4477153 13,21 L13,22 C13,22.5522847 12.5522847,23 12,23 C11.4477153,23 11,22.5522847 11,22 L11,21 C11,20.4477153 11.4477153,20 12,20 Z" fill="#FFFFFF" fill-rule="nonzero"/>
    </g>
</svg> 