<svg width="8" height="8" viewBox="0 0 8 8" fill="none" xmlns="http://www.w3.org/2000/svg">
<path d="M2.36144 3.7701C2.25204 3.66069 2.07427 3.66069 1.96486 3.7701C1.85546 3.8795 1.85546 4.05728 1.96486 4.16668L3.25717 5.45898C3.31187 5.51369 3.38025 5.54104 3.45546 5.54104C3.4623 5.54104 3.4623 5.54104 3.46914 5.54104C3.54435 5.5342 3.61956 5.50001 3.67427 5.43847L6.90845 1.56155C7.00418 1.44531 6.9905 1.26753 6.87427 1.16497C6.75803 1.06924 6.58025 1.08292 6.47768 1.19916L3.43495 4.8436L2.36144 3.7701Z" fill="#656FE2"/>
<path d="M6.09279 0.638031C4.52014 -0.346584 2.50305 -0.114106 1.19022 1.19871C-0.355075 2.74401 -0.355075 5.26709 1.19022 6.81239C1.96287 7.58504 2.98168 7.97478 3.99364 7.97478C5.00561 7.97478 6.02441 7.58504 6.79706 6.81239C8.11672 5.49273 8.34236 3.4688 7.35091 1.89615C7.26886 1.76624 7.09792 1.72521 6.968 1.80726C6.83809 1.88931 6.79706 2.06025 6.87911 2.19017C7.73381 3.54401 7.53552 5.28077 6.40048 6.41581C5.07399 7.74231 2.90646 7.74231 1.57997 6.41581C0.253472 5.08931 0.253472 2.92179 1.57997 1.5953C2.71501 0.467091 4.44493 0.2688 5.79877 1.10983C5.92869 1.19188 6.09963 1.15085 6.18168 1.02094C6.26373 0.891022 6.2227 0.720082 6.09279 0.638031Z" fill="#BA87FC"/>
</svg>
