<svg width="12" height="12" viewBox="0 0 12 12" fill="none" xmlns="http://www.w3.org/2000/svg">
<g clip-path="url(#clip0_6631_105)">
<path d="M6 11.375C8.96853 11.375 11.375 8.96853 11.375 6C11.375 3.03147 8.96853 0.625 6 0.625C3.03147 0.625 0.625 3.03147 0.625 6C0.625 8.96853 3.03147 11.375 6 11.375Z" fill="white"/>
<path d="M6 11.5C2.96725 11.5 0.5 9.03275 0.5 6C0.5 2.96725 2.96725 0.5 6 0.5C7.55475 0.5 9.04375 1.1625 10.0855 2.31775C10.132 2.369 10.1278 2.448 10.0765 2.49425C10.025 2.5405 9.946 2.53625 9.9 2.48525C8.9055 1.3825 7.48425 0.75 6 0.75C3.10525 0.75 0.75 3.105 0.75 6C0.75 8.895 3.10525 11.25 6 11.25C8.89475 11.25 11.25 8.895 11.25 6C11.25 5.42525 11.1578 4.86 10.9755 4.32C10.9532 4.2545 10.9885 4.18375 11.0538 4.16175C11.1208 4.13975 11.1902 4.17475 11.2122 4.24025C11.4032 4.806 11.5 5.398 11.5 6C11.5 9.03275 9.03275 11.5 6 11.5Z" fill="#656FE2"/>
<path d="M6 11.25C3.10525 11.25 0.75 8.895 0.75 6C0.75 3.105 3.10525 0.75 6 0.75C7.4585 0.75 8.8635 1.3645 9.85475 2.43575C9.90175 2.4865 9.8985 2.5655 9.848 2.6125C9.79725 2.65925 9.718 2.6565 9.67125 2.6055C8.72725 1.58525 7.38925 1 6 1C3.243 1 1 3.243 1 6C1 8.757 3.243 11 6 11C8.757 11 11 8.757 11 6C11 5.4925 10.9243 4.99225 10.7753 4.513C10.7548 4.447 10.7915 4.377 10.8575 4.3565C10.9233 4.3365 10.9937 4.373 11.014 4.43875C11.1707 4.942 11.25 5.46725 11.25 6C11.25 8.895 8.89475 11.25 6 11.25Z" fill="white"/>
<path d="M5.39606 8.4585C5.61906 8.6805 6.00556 8.6805 6.22881 8.4585L11.0756 3.63125C11.3083 3.39975 11.3083 3.023 11.0756 2.7915C10.8526 2.5695 10.4661 2.5695 10.2431 2.7915L6.00181 7.01525C5.90206 7.11475 5.72281 7.11475 5.62281 7.01525L4.00706 5.40625C3.89556 5.29525 3.74781 5.23425 3.59081 5.23425C3.43381 5.23425 3.28581 5.29525 3.17456 5.40625C2.94181 5.63775 2.94181 6.0145 3.17456 6.246L5.39606 8.4585Z" fill="#656FE2"/>
<path d="M5.8125 8.75294C5.62875 8.75294 5.44475 8.68494 5.308 8.54869L3.0865 6.33619C2.95025 6.20069 2.875 6.01994 2.875 5.82744C2.875 5.63519 2.95025 5.45469 3.0865 5.31919C3.35575 5.05069 3.825 5.05019 4.09525 5.31919L5.711 6.92819C5.76225 6.97919 5.8625 6.97944 5.9135 6.92819L10.155 2.70419C10.4285 2.43194 10.8902 2.43194 11.1637 2.70419C11.3 2.83969 11.3752 3.02044 11.3752 3.21269C11.3752 3.40494 11.3 3.58544 11.1637 3.72094L6.31725 8.54869C6.1805 8.68494 5.99625 8.75294 5.8125 8.75294ZM3.591 5.36094C3.46725 5.36094 3.35075 5.40919 3.263 5.49644C3.17425 5.58494 3.125 5.70244 3.125 5.82769C3.125 5.95294 3.17375 6.07069 3.26275 6.15894L5.48425 8.37169C5.659 8.54544 5.966 8.54569 6.14075 8.37169L10.9875 3.54419C11.076 3.45594 11.1252 3.33819 11.1252 3.21294C11.1252 3.08769 11.0765 2.96994 10.9875 2.88169C10.8128 2.70769 10.506 2.70744 10.3313 2.88169L6.09 7.10569C5.9425 7.25319 5.6825 7.25319 5.5345 7.10569L3.919 5.49669C3.83125 5.40894 3.71475 5.36094 3.591 5.36094Z" fill="#656FE2"/>
<path d="M3.25 5.95113C3.181 5.95113 3.125 5.89513 3.125 5.82613C3.125 5.70113 3.174 5.58337 3.263 5.49487C3.35075 5.40737 3.467 5.35938 3.591 5.35938C3.66 5.35938 3.716 5.41538 3.716 5.48438C3.716 5.55338 3.66 5.60938 3.591 5.60938C3.53375 5.60938 3.48025 5.63162 3.4395 5.67188C3.39825 5.71338 3.37525 5.76813 3.37525 5.82613C3.375 5.89538 3.319 5.95113 3.25 5.95113Z" fill="white"/>
<path d="M6.54083 6.96047C6.50883 6.96047 6.47658 6.94822 6.45233 6.92372C6.40383 6.87472 6.40383 6.79572 6.45283 6.74672L9.97033 3.24347C10.0191 3.19497 10.0983 3.19472 10.1471 3.24372C10.1956 3.29272 10.1956 3.37172 10.1466 3.42072L6.62908 6.92397C6.60458 6.94822 6.57283 6.96047 6.54083 6.96047Z" fill="white"/>
</g>
<defs>
<clipPath id="clip0_6631_105">
<rect width="12" height="12" fill="white"/>
</clipPath>
</defs>
</svg>
