<svg width="16" height="15" viewBox="0 0 16 15" fill="none" xmlns="http://www.w3.org/2000/svg">
<path d="M8.91797 14.1562H8.30273V14.708H8.91797V14.1562Z" fill="black"/>
<path d="M8.30662 14.1562H7.69141V14.708H8.30662V14.1562Z" fill="black"/>
<path d="M7.69007 14.1562H7.07422V14.708H7.69007V14.1562Z" fill="black"/>
<path d="M10.1465 13.6094H9.53125V14.1612H10.1465V13.6094Z" fill="black"/>
<path d="M9.53614 13.6094H8.9209V14.1612H9.53614V13.6094Z" fill="black"/>
<path d="M8.91797 13.6094H8.30273V14.1612H8.91797V13.6094Z" fill="#DF7126"/>
<path d="M8.30662 13.6094H7.69141V14.1612H8.30662V13.6094Z" fill="#DF7126"/>
<path d="M7.69007 13.6094H7.07422V14.1612H7.69007V13.6094Z" fill="#DF7126"/>
<path d="M7.07129 13.6094H6.45605V14.1612H7.07129V13.6094Z" fill="black"/>
<path d="M6.46094 13.6094H5.8457V14.1612H6.46094V13.6094Z" fill="black"/>
<path d="M11.3818 13.0547H10.7666V13.6065H11.3818V13.0547Z" fill="black"/>
<path d="M10.7647 13.0547H10.1494V13.6065H10.7647V13.0547Z" fill="black"/>
<path d="M10.1465 13.0547H9.53125V13.6065H10.1465V13.0547Z" fill="#DF7126"/>
<path d="M9.53614 13.0547H8.9209V13.6065H9.53614V13.0547Z" fill="#DF7126"/>
<path d="M8.91797 13.0547H8.30273V13.6065H8.91797V13.0547Z" fill="#DF7126"/>
<path d="M8.30662 13.0547H7.69141V13.6065H8.30662V13.0547Z" fill="#FBF236"/>
<path d="M7.69007 13.0547H7.07422V13.6065H7.69007V13.0547Z" fill="#FBF236"/>
<path d="M7.07129 13.0547H6.45605V13.6065H7.07129V13.0547Z" fill="#DF7126"/>
<path d="M6.46094 13.0547H5.8457V13.6065H6.46094V13.0547Z" fill="#DF7126"/>
<path d="M5.84278 13.0547H5.22754V13.6065H5.84278V13.0547Z" fill="black"/>
<path d="M5.23242 13.0547H4.61719V13.6065H5.23242V13.0547Z" fill="black"/>
<path d="M12.6104 12.5H11.9951V13.0518H12.6104V12.5Z" fill="black"/>
<path d="M11.9932 12.5H11.3779V13.0518H11.9932V12.5Z" fill="black"/>
<path d="M11.3818 12.5H10.7666V13.0518H11.3818V12.5Z" fill="#DF7126"/>
<path d="M10.7647 12.5H10.1494V13.0518H10.7647V12.5Z" fill="#DF7126"/>
<path d="M10.1465 12.5H9.53125V13.0518H10.1465V12.5Z" fill="#DF7126"/>
<path d="M9.53614 12.5H8.9209V13.0518H9.53614V12.5Z" fill="#DF7126"/>
<path d="M8.91797 12.5H8.30273V13.0518H8.91797V12.5Z" fill="#FBF236"/>
<path d="M8.30662 12.5H7.69141V13.0518H8.30662V12.5Z" fill="#FBF236"/>
<path d="M7.69007 12.5H7.07422V13.0518H7.69007V12.5Z" fill="#FBF236"/>
<path d="M7.07129 12.5H6.45605V13.0518H7.07129V12.5Z" fill="#FBF236"/>
<path d="M6.46094 12.5H5.8457V13.0518H6.46094V12.5Z" fill="#FBF236"/>
<path d="M5.84278 12.5H5.22754V13.0518H5.84278V12.5Z" fill="#DF7126"/>
<path d="M5.23242 12.5H4.61719V13.0518H5.23242V12.5Z" fill="#DF7126"/>
<path d="M4.61426 12.5H3.99902V13.0518H4.61426V12.5Z" fill="black"/>
<path d="M4.00391 12.5H3.38867V13.0518H4.00391V12.5Z" fill="black"/>
<path d="M13.8389 11.9531H13.2236V12.5049H13.8389V11.9531Z" fill="black"/>
<path d="M13.2223 11.9531H12.6064V12.5049H13.2223V11.9531Z" fill="black"/>
<path d="M12.6104 11.9531H11.9951V12.5049H12.6104V11.9531Z" fill="#DF7126"/>
<path d="M11.9932 11.9531H11.3779V12.5049H11.9932V11.9531Z" fill="#DF7126"/>
<path d="M11.3818 11.9531H10.7666V12.5049H11.3818V11.9531Z" fill="#DF7126"/>
<path d="M10.7647 11.9531H10.1494V12.5049H10.7647V11.9531Z" fill="#DF7126"/>
<path d="M10.1465 11.9531H9.53125V12.5049H10.1465V11.9531Z" fill="#FBF236"/>
<path d="M9.53614 11.9531H8.9209V12.5049H9.53614V11.9531Z" fill="#FBF236"/>
<path d="M8.91797 11.9531H8.30273V12.5049H8.91797V11.9531Z" fill="#FBF236"/>
<path d="M8.30662 11.9531H7.69141V12.5049H8.30662V11.9531Z" fill="#FBF236"/>
<path d="M7.69007 11.9531H7.07422V12.5049H7.69007V11.9531Z" fill="#FBF236"/>
<path d="M7.07129 11.9531H6.45605V12.5049H7.07129V11.9531Z" fill="#FBF236"/>
<path d="M6.46094 11.9531H5.8457V12.5049H6.46094V11.9531Z" fill="#FBF236"/>
<path d="M5.84278 11.9531H5.22754V12.5049H5.84278V11.9531Z" fill="#FBF236"/>
<path d="M5.23242 11.9531H4.61719V12.5049H5.23242V11.9531Z" fill="#FBF236"/>
<path d="M4.61426 11.9531H3.99902V12.5049H4.61426V11.9531Z" fill="#DF7126"/>
<path d="M4.00391 11.9531H3.38867V12.5049H4.00391V11.9531Z" fill="#DF7126"/>
<path d="M3.38574 11.9531H2.77051V12.5049H3.38574V11.9531Z" fill="black"/>
<path d="M2.76758 11.9531H2.15234V12.5049H2.76758V11.9531Z" fill="black"/>
<path d="M14.457 11.3984H13.8418V11.9508H14.457V11.3984Z" fill="black"/>
<path d="M13.8389 11.3984H13.2236V11.9508H13.8389V11.3984Z" fill="#DF7126"/>
<path d="M13.2223 11.3984H12.6064V11.9508H13.2223V11.3984Z" fill="#DF7126"/>
<path d="M12.6104 11.3984H11.9951V11.9508H12.6104V11.3984Z" fill="#DF7126"/>
<path d="M11.9932 11.3984H11.3779V11.9508H11.9932V11.3984Z" fill="#DF7126"/>
<path d="M11.3818 11.3984H10.7666V11.9508H11.3818V11.3984Z" fill="#FBF236"/>
<path d="M10.7647 11.3984H10.1494V11.9508H10.7647V11.3984Z" fill="#FBF236"/>
<path d="M10.1465 11.3984H9.53125V11.9508H10.1465V11.3984Z" fill="#FBF236"/>
<path d="M9.53614 11.3984H8.9209V11.9508H9.53614V11.3984Z" fill="#FBF236"/>
<path d="M8.91797 11.3984H8.30273V11.9508H8.91797V11.3984Z" fill="#FBF236"/>
<path d="M8.30662 11.3984H7.69141V11.9508H8.30662V11.3984Z" fill="#FBF236"/>
<path d="M7.69007 11.3984H7.07422V11.9508H7.69007V11.3984Z" fill="#FBF236"/>
<path d="M7.07129 11.3984H6.45605V11.9508H7.07129V11.3984Z" fill="#FBF236"/>
<path d="M6.46094 11.3984H5.8457V11.9508H6.46094V11.3984Z" fill="#FBF236"/>
<path d="M5.84278 11.3984H5.22754V11.9508H5.84278V11.3984Z" fill="#FBF236"/>
<path d="M5.23242 11.3984H4.61719V11.9508H5.23242V11.3984Z" fill="#FBF236"/>
<path d="M4.61426 11.3984H3.99902V11.9508H4.61426V11.3984Z" fill="#FBF236"/>
<path d="M4.00391 11.3984H3.38867V11.9508H4.00391V11.3984Z" fill="#FBF236"/>
<path d="M3.38574 11.3984H2.77051V11.9508H3.38574V11.3984Z" fill="#DF7126"/>
<path d="M2.76758 11.3984H2.15234V11.9508H2.76758V11.3984Z" fill="#DF7126"/>
<path d="M2.15784 11.3984H1.54199V11.9508H2.15784V11.3984Z" fill="black"/>
<path d="M15.0684 10.8516H14.4531V11.4033H15.0684V10.8516Z" fill="black"/>
<path d="M14.457 10.8516H13.8418V11.4033H14.457V10.8516Z" fill="#DF7126"/>
<path d="M13.8389 10.8516H13.2236V11.4033H13.8389V10.8516Z" fill="#DF7126"/>
<path d="M13.2223 10.8516H12.6064V11.4033H13.2223V10.8516Z" fill="#DF7126"/>
<path d="M12.6104 10.8516H11.9951V11.4033H12.6104V10.8516Z" fill="#FBF236"/>
<path d="M11.9932 10.8516H11.3779V11.4033H11.9932V10.8516Z" fill="#FBF236"/>
<path d="M11.3818 10.8516H10.7666V11.4033H11.3818V10.8516Z" fill="#FBF236"/>
<path d="M10.7647 10.8516H10.1494V11.4033H10.7647V10.8516Z" fill="#FBF236"/>
<path d="M10.1465 10.8516H9.53125V11.4033H10.1465V10.8516Z" fill="#FBF236"/>
<path d="M9.53614 10.8516H8.9209V11.4033H9.53614V10.8516Z" fill="#FBF236"/>
<path d="M8.91797 10.8516H8.30273V11.4033H8.91797V10.8516Z" fill="#FBF236"/>
<path d="M8.30662 10.8516H7.69141V11.4033H8.30662V10.8516Z" fill="#FBF236"/>
<path d="M7.69007 10.8516H7.07422V11.4033H7.69007V10.8516Z" fill="#FBF236"/>
<path d="M7.07129 10.8516H6.45605V11.4033H7.07129V10.8516Z" fill="#FBF236"/>
<path d="M6.46094 10.8516H5.8457V11.4033H6.46094V10.8516Z" fill="#FBF236"/>
<path d="M5.84278 10.8516H5.22754V11.4033H5.84278V10.8516Z" fill="#FBF236"/>
<path d="M5.23242 10.8516H4.61719V11.4033H5.23242V10.8516Z" fill="#FBF236"/>
<path d="M4.61426 10.8516H3.99902V11.4033H4.61426V10.8516Z" fill="#FBF236"/>
<path d="M4.00391 10.8516H3.38867V11.4033H4.00391V10.8516Z" fill="#FBF236"/>
<path d="M3.38574 10.8516H2.77051V11.4033H3.38574V10.8516Z" fill="#FBF236"/>
<path d="M2.76758 10.8516H2.15234V11.4033H2.76758V10.8516Z" fill="#FBF236"/>
<path d="M2.15784 10.8516H1.54199V11.4033H2.15784V10.8516Z" fill="#DF7126"/>
<path d="M1.53906 10.8516H0.923828V11.4033H1.53906V10.8516Z" fill="black"/>
<path d="M15.0684 10.2969H14.4531V10.8487H15.0684V10.2969Z" fill="black"/>
<path d="M14.457 10.2969H13.8418V10.8487H14.457V10.2969Z" fill="#DF7126"/>
<path d="M13.8389 10.2969H13.2236V10.8487H13.8389V10.2969Z" fill="#DF7126"/>
<path d="M13.2223 10.2969H12.6064V10.8487H13.2223V10.2969Z" fill="#FBF236"/>
<path d="M12.6104 10.2969H11.9951V10.8487H12.6104V10.2969Z" fill="#FBF236"/>
<path d="M11.9932 10.2969H11.3779V10.8487H11.9932V10.2969Z" fill="#FBF236"/>
<path d="M11.3818 10.2969H10.7666V10.8487H11.3818V10.2969Z" fill="#FBF236"/>
<path d="M10.7647 10.2969H10.1494V10.8487H10.7647V10.2969Z" fill="#FBF236"/>
<path d="M10.1465 10.2969H9.53125V10.8487H10.1465V10.2969Z" fill="#FBF236"/>
<path d="M9.53614 10.2969H8.9209V10.8487H9.53614V10.2969Z" fill="#FBF236"/>
<path d="M8.91797 10.2969H8.30273V10.8487H8.91797V10.2969Z" fill="#FBF236"/>
<path d="M8.30662 10.2969H7.69141V10.8487H8.30662V10.2969Z" fill="#FBF236"/>
<path d="M7.69007 10.2969H7.07422V10.8487H7.69007V10.2969Z" fill="#FBF236"/>
<path d="M7.07129 10.2969H6.45605V10.8487H7.07129V10.2969Z" fill="#FBF236"/>
<path d="M6.46094 10.2969H5.8457V10.8487H6.46094V10.2969Z" fill="#FBF236"/>
<path d="M5.84278 10.2969H5.22754V10.8487H5.84278V10.2969Z" fill="#FBF236"/>
<path d="M5.23242 10.2969H4.61719V10.8487H5.23242V10.2969Z" fill="#FBF236"/>
<path d="M4.61426 10.2969H3.99902V10.8487H4.61426V10.2969Z" fill="#FBF236"/>
<path d="M4.00391 10.2969H3.38867V10.8487H4.00391V10.2969Z" fill="#FBF236"/>
<path d="M3.38574 10.2969H2.77051V10.8487H3.38574V10.2969Z" fill="#FBF236"/>
<path d="M2.76758 10.2969H2.15234V10.8487H2.76758V10.2969Z" fill="#FBF236"/>
<path d="M2.15784 10.2969H1.54199V10.8487H2.15784V10.2969Z" fill="white"/>
<path d="M1.53906 10.2969H0.923828V10.8487H1.53906V10.2969Z" fill="black"/>
<path d="M15.0684 9.75H14.4531V10.3018H15.0684V9.75Z" fill="black"/>
<path d="M14.457 9.75H13.8418V10.3018H14.457V9.75Z" fill="#DF7126"/>
<path d="M13.8389 9.75H13.2236V10.3018H13.8389V9.75Z" fill="#DF7126"/>
<path d="M13.2223 9.75H12.6064V10.3018H13.2223V9.75Z" fill="#FBF236"/>
<path d="M12.6104 9.75H11.9951V10.3018H12.6104V9.75Z" fill="#FBF236"/>
<path d="M11.9932 9.75H11.3779V10.3018H11.9932V9.75Z" fill="#FBF236"/>
<path d="M11.3818 9.75H10.7666V10.3018H11.3818V9.75Z" fill="#FBF236"/>
<path d="M10.7647 9.75H10.1494V10.3018H10.7647V9.75Z" fill="#FBF236"/>
<path d="M10.1465 9.75H9.53125V10.3018H10.1465V9.75Z" fill="#FBF236"/>
<path d="M9.53614 9.75H8.9209V10.3018H9.53614V9.75Z" fill="#FBF236"/>
<path d="M8.91797 9.75H8.30273V10.3018H8.91797V9.75Z" fill="#FBF236"/>
<path d="M8.30662 9.75H7.69141V10.3018H8.30662V9.75Z" fill="#FBF236"/>
<path d="M7.69007 9.75H7.07422V10.3018H7.69007V9.75Z" fill="#FBF236"/>
<path d="M7.07129 9.75H6.45605V10.3018H7.07129V9.75Z" fill="#FBF236"/>
<path d="M6.46094 9.75H5.8457V10.3018H6.46094V9.75Z" fill="#FBF236"/>
<path d="M5.84278 9.75H5.22754V10.3018H5.84278V9.75Z" fill="#FBF236"/>
<path d="M5.23242 9.75H4.61719V10.3018H5.23242V9.75Z" fill="#FBF236"/>
<path d="M4.61426 9.75H3.99902V10.3018H4.61426V9.75Z" fill="#FBF236"/>
<path d="M4.00391 9.75H3.38867V10.3018H4.00391V9.75Z" fill="#FBF236"/>
<path d="M3.38574 9.75H2.77051V10.3018H3.38574V9.75Z" fill="#FBF236"/>
<path d="M2.76758 9.75H2.15234V10.3018H2.76758V9.75Z" fill="#FBF236"/>
<path d="M2.15784 9.75H1.54199V10.3018H2.15784V9.75Z" fill="white"/>
<path d="M1.53906 9.75H0.923828V10.3018H1.53906V9.75Z" fill="black"/>
<path d="M15.0684 9.19531H14.4531V9.7471H15.0684V9.19531Z" fill="black"/>
<path d="M14.457 9.19531H13.8418V9.7471H14.457V9.19531Z" fill="#DF7126"/>
<path d="M13.8389 9.19531H13.2236V9.7471H13.8389V9.19531Z" fill="#DF7126"/>
<path d="M13.2223 9.19531H12.6064V9.7471H13.2223V9.19531Z" fill="#FBF236"/>
<path d="M12.6104 9.19531H11.9951V9.7471H12.6104V9.19531Z" fill="#FBF236"/>
<path d="M11.9932 9.19531H11.3779V9.7471H11.9932V9.19531Z" fill="#FBF236"/>
<path d="M11.3818 9.19531H10.7666V9.7471H11.3818V9.19531Z" fill="#FBF236"/>
<path d="M10.7647 9.19531H10.1494V9.7471H10.7647V9.19531Z" fill="#FBF236"/>
<path d="M10.1465 9.19531H9.53125V9.7471H10.1465V9.19531Z" fill="#FBF236"/>
<path d="M9.53614 9.19531H8.9209V9.7471H9.53614V9.19531Z" fill="#FBF236"/>
<path d="M8.91797 9.19531H8.30273V9.7471H8.91797V9.19531Z" fill="#FBF236"/>
<path d="M8.30662 9.19531H7.69141V9.7471H8.30662V9.19531Z" fill="#FBF236"/>
<path d="M7.69007 9.19531H7.07422V9.7471H7.69007V9.19531Z" fill="#FBF236"/>
<path d="M7.07129 9.19531H6.45605V9.7471H7.07129V9.19531Z" fill="#FBF236"/>
<path d="M6.46094 9.19531H5.8457V9.7471H6.46094V9.19531Z" fill="#FBF236"/>
<path d="M5.84278 9.19531H5.22754V9.7471H5.84278V9.19531Z" fill="#FBF236"/>
<path d="M5.23242 9.19531H4.61719V9.7471H5.23242V9.19531Z" fill="#FBF236"/>
<path d="M4.61426 9.19531H3.99902V9.7471H4.61426V9.19531Z" fill="#FBF236"/>
<path d="M4.00391 9.19531H3.38867V9.7471H4.00391V9.19531Z" fill="#FBF236"/>
<path d="M3.38574 9.19531H2.77051V9.7471H3.38574V9.19531Z" fill="#FBF236"/>
<path d="M2.76758 9.19531H2.15234V9.7471H2.76758V9.19531Z" fill="#FBF236"/>
<path d="M2.15784 9.19531H1.54199V9.7471H2.15784V9.19531Z" fill="white"/>
<path d="M1.53906 9.19531H0.923828V9.7471H1.53906V9.19531Z" fill="black"/>
<path d="M15.0684 8.64062H14.4531V9.19241H15.0684V8.64062Z" fill="black"/>
<path d="M14.457 8.64062H13.8418V9.19241H14.457V8.64062Z" fill="#DF7126"/>
<path d="M13.8389 8.64062H13.2236V9.19241H13.8389V8.64062Z" fill="#DF7126"/>
<path d="M13.2223 8.64062H12.6064V9.19241H13.2223V8.64062Z" fill="#FBF236"/>
<path d="M12.6104 8.64062H11.9951V9.19241H12.6104V8.64062Z" fill="#FBF236"/>
<path d="M11.9932 8.64062H11.3779V9.19241H11.9932V8.64062Z" fill="#FBF236"/>
<path d="M11.3818 8.64062H10.7666V9.19241H11.3818V8.64062Z" fill="#FBF236"/>
<path d="M10.7647 8.64062H10.1494V9.19241H10.7647V8.64062Z" fill="#FBF236"/>
<path d="M10.1465 8.64062H9.53125V9.19241H10.1465V8.64062Z" fill="#FBF236"/>
<path d="M9.53614 8.64062H8.9209V9.19241H9.53614V8.64062Z" fill="#FBF236"/>
<path d="M8.91797 8.64062H8.30273V9.19241H8.91797V8.64062Z" fill="#FBF236"/>
<path d="M8.30662 8.64062H7.69141V9.19241H8.30662V8.64062Z" fill="#FBF236"/>
<path d="M7.69007 8.64062H7.07422V9.19241H7.69007V8.64062Z" fill="#FBF236"/>
<path d="M7.07129 8.64062H6.45605V9.19241H7.07129V8.64062Z" fill="#FBF236"/>
<path d="M6.46094 8.64062H5.8457V9.19241H6.46094V8.64062Z" fill="#FBF236"/>
<path d="M5.84278 8.64062H5.22754V9.19241H5.84278V8.64062Z" fill="#FBF236"/>
<path d="M5.23242 8.64062H4.61719V9.19241H5.23242V8.64062Z" fill="#FBF236"/>
<path d="M4.61426 8.64062H3.99902V9.19241H4.61426V8.64062Z" fill="#FBF236"/>
<path d="M4.00391 8.64062H3.38867V9.19241H4.00391V8.64062Z" fill="#FBF236"/>
<path d="M3.38574 8.64062H2.77051V9.19241H3.38574V8.64062Z" fill="#FBF236"/>
<path d="M2.76758 8.64062H2.15234V9.19241H2.76758V8.64062Z" fill="#FBF236"/>
<path d="M2.15784 8.64062H1.54199V9.19241H2.15784V8.64062Z" fill="white"/>
<path d="M1.53906 8.64062H0.923828V9.19241H1.53906V8.64062Z" fill="black"/>
<path d="M15.0684 8.09375H14.4531V8.64554H15.0684V8.09375Z" fill="black"/>
<path d="M14.457 8.09375H13.8418V8.64554H14.457V8.09375Z" fill="#DF7126"/>
<path d="M13.8389 8.09375H13.2236V8.64554H13.8389V8.09375Z" fill="#DF7126"/>
<path d="M13.2223 8.09375H12.6064V8.64554H13.2223V8.09375Z" fill="#FBF236"/>
<path d="M12.6104 8.09375H11.9951V8.64554H12.6104V8.09375Z" fill="#FBF236"/>
<path d="M11.9932 8.09375H11.3779V8.64554H11.9932V8.09375Z" fill="#FBF236"/>
<path d="M11.3818 8.09375H10.7666V8.64554H11.3818V8.09375Z" fill="#FBF236"/>
<path d="M10.7647 8.09375H10.1494V8.64554H10.7647V8.09375Z" fill="#FBF236"/>
<path d="M10.1465 8.09375H9.53125V8.64554H10.1465V8.09375Z" fill="#FBF236"/>
<path d="M9.53614 8.09375H8.9209V8.64554H9.53614V8.09375Z" fill="#FBF236"/>
<path d="M8.91797 8.09375H8.30273V8.64554H8.91797V8.09375Z" fill="#FBF236"/>
<path d="M8.30662 8.09375H7.69141V8.64554H8.30662V8.09375Z" fill="#FBF236"/>
<path d="M7.69007 8.09375H7.07422V8.64554H7.69007V8.09375Z" fill="#FBF236"/>
<path d="M7.07129 8.09375H6.45605V8.64554H7.07129V8.09375Z" fill="#FBF236"/>
<path d="M6.46094 8.09375H5.8457V8.64554H6.46094V8.09375Z" fill="#FBF236"/>
<path d="M5.84278 8.09375H5.22754V8.64554H5.84278V8.09375Z" fill="#FBF236"/>
<path d="M5.23242 8.09375H4.61719V8.64554H5.23242V8.09375Z" fill="#FBF236"/>
<path d="M4.61426 8.09375H3.99902V8.64554H4.61426V8.09375Z" fill="#FBF236"/>
<path d="M4.00391 8.09375H3.38867V8.64554H4.00391V8.09375Z" fill="#FBF236"/>
<path d="M3.38574 8.09375H2.77051V8.64554H3.38574V8.09375Z" fill="#FBF236"/>
<path d="M2.76758 8.09375H2.15234V8.64554H2.76758V8.09375Z" fill="#FBF236"/>
<path d="M2.15784 8.09375H1.54199V8.64554H2.15784V8.09375Z" fill="white"/>
<path d="M1.53906 8.09375H0.923828V8.64554H1.53906V8.09375Z" fill="black"/>
<path d="M15.0684 7.53906H14.4531V8.09085H15.0684V7.53906Z" fill="black"/>
<path d="M14.457 7.53906H13.8418V8.09085H14.457V7.53906Z" fill="#DF7126"/>
<path d="M13.8389 7.53906H13.2236V8.09085H13.8389V7.53906Z" fill="#DF7126"/>
<path d="M13.2223 7.53906H12.6064V8.09085H13.2223V7.53906Z" fill="#FBF236"/>
<path d="M12.6104 7.53906H11.9951V8.09085H12.6104V7.53906Z" fill="#FBF236"/>
<path d="M11.9932 7.53906H11.3779V8.09085H11.9932V7.53906Z" fill="#FBF236"/>
<path d="M11.3818 7.53906H10.7666V8.09085H11.3818V7.53906Z" fill="#FBF236"/>
<path d="M10.7647 7.53906H10.1494V8.09085H10.7647V7.53906Z" fill="#FBF236"/>
<path d="M10.1465 7.53906H9.53125V8.09085H10.1465V7.53906Z" fill="#FBF236"/>
<path d="M9.53614 7.53906H8.9209V8.09085H9.53614V7.53906Z" fill="#FBF236"/>
<path d="M8.91797 7.53906H8.30273V8.09085H8.91797V7.53906Z" fill="#FBF236"/>
<path d="M8.30662 7.53906H7.69141V8.09085H8.30662V7.53906Z" fill="#FBF236"/>
<path d="M7.69007 7.53906H7.07422V8.09085H7.69007V7.53906Z" fill="#FBF236"/>
<path d="M7.07129 7.53906H6.45605V8.09085H7.07129V7.53906Z" fill="#FBF236"/>
<path d="M6.46094 7.53906H5.8457V8.09085H6.46094V7.53906Z" fill="#FBF236"/>
<path d="M5.84278 7.53906H5.22754V8.09085H5.84278V7.53906Z" fill="#FBF236"/>
<path d="M5.23242 7.53906H4.61719V8.09085H5.23242V7.53906Z" fill="#FBF236"/>
<path d="M4.61426 7.53906H3.99902V8.09085H4.61426V7.53906Z" fill="#FBF236"/>
<path d="M4.00391 7.53906H3.38867V8.09085H4.00391V7.53906Z" fill="#FBF236"/>
<path d="M3.38574 7.53906H2.77051V8.09085H3.38574V7.53906Z" fill="#FBF236"/>
<path d="M2.76758 7.53906H2.15234V8.09085H2.76758V7.53906Z" fill="#FBF236"/>
<path d="M2.15784 7.53906H1.54199V8.09085H2.15784V7.53906Z" fill="white"/>
<path d="M1.53906 7.53906H0.923828V8.09085H1.53906V7.53906Z" fill="black"/>
<path d="M15.0684 6.99219H14.4531V7.54397H15.0684V6.99219Z" fill="black"/>
<path d="M14.457 6.99219H13.8418V7.54397H14.457V6.99219Z" fill="#DF7126"/>
<path d="M13.8389 6.99219H13.2236V7.54397H13.8389V6.99219Z" fill="#DF7126"/>
<path d="M13.2223 6.99219H12.6064V7.54397H13.2223V6.99219Z" fill="#FBF236"/>
<path d="M12.6104 6.99219H11.9951V7.54397H12.6104V6.99219Z" fill="#FBF236"/>
<path d="M11.9932 6.99219H11.3779V7.54397H11.9932V6.99219Z" fill="#FBF236"/>
<path d="M11.3818 6.99219H10.7666V7.54397H11.3818V6.99219Z" fill="#FBF236"/>
<path d="M10.7647 6.99219H10.1494V7.54397H10.7647V6.99219Z" fill="#FBF236"/>
<path d="M10.1465 6.99219H9.53125V7.54397H10.1465V6.99219Z" fill="#FBF236"/>
<path d="M9.53614 6.99219H8.9209V7.54397H9.53614V6.99219Z" fill="#FBF236"/>
<path d="M8.91797 6.99219H8.30273V7.54397H8.91797V6.99219Z" fill="#FBF236"/>
<path d="M8.30662 6.99219H7.69141V7.54397H8.30662V6.99219Z" fill="#FBF236"/>
<path d="M7.69007 6.99219H7.07422V7.54397H7.69007V6.99219Z" fill="#FBF236"/>
<path d="M7.07129 6.99219H6.45605V7.54397H7.07129V6.99219Z" fill="#FBF236"/>
<path d="M6.46094 6.99219H5.8457V7.54397H6.46094V6.99219Z" fill="#FBF236"/>
<path d="M5.84278 6.99219H5.22754V7.54397H5.84278V6.99219Z" fill="#FBF236"/>
<path d="M5.23242 6.99219H4.61719V7.54397H5.23242V6.99219Z" fill="#FBF236"/>
<path d="M4.61426 6.99219H3.99902V7.54397H4.61426V6.99219Z" fill="#FBF236"/>
<path d="M4.00391 6.99219H3.38867V7.54397H4.00391V6.99219Z" fill="#FBF236"/>
<path d="M3.38574 6.99219H2.77051V7.54397H3.38574V6.99219Z" fill="#FBF236"/>
<path d="M2.76758 6.99219H2.15234V7.54397H2.76758V6.99219Z" fill="#FBF236"/>
<path d="M2.15784 6.99219H1.54199V7.54397H2.15784V6.99219Z" fill="white"/>
<path d="M1.53906 6.99219H0.923828V7.54397H1.53906V6.99219Z" fill="black"/>
<path d="M15.0684 6.4375H14.4531V6.98984H15.0684V6.4375Z" fill="black"/>
<path d="M14.457 6.4375H13.8418V6.98984H14.457V6.4375Z" fill="#DF7126"/>
<path d="M13.8389 6.4375H13.2236V6.98984H13.8389V6.4375Z" fill="#DF7126"/>
<path d="M13.2223 6.4375H12.6064V6.98984H13.2223V6.4375Z" fill="#FBF236"/>
<path d="M12.6104 6.4375H11.9951V6.98984H12.6104V6.4375Z" fill="#FBF236"/>
<path d="M11.9932 6.4375H11.3779V6.98984H11.9932V6.4375Z" fill="#FBF236"/>
<path d="M11.3818 6.4375H10.7666V6.98984H11.3818V6.4375Z" fill="#FBF236"/>
<path d="M10.7647 6.4375H10.1494V6.98984H10.7647V6.4375Z" fill="#FBF236"/>
<path d="M10.1465 6.4375H9.53125V6.98984H10.1465V6.4375Z" fill="#FBF236"/>
<path d="M9.53614 6.4375H8.9209V6.98984H9.53614V6.4375Z" fill="#FBF236"/>
<path d="M8.91797 6.4375H8.30273V6.98984H8.91797V6.4375Z" fill="#FBF236"/>
<path d="M8.30662 6.4375H7.69141V6.98984H8.30662V6.4375Z" fill="#FBF236"/>
<path d="M7.69007 6.4375H7.07422V6.98984H7.69007V6.4375Z" fill="#FBF236"/>
<path d="M7.07129 6.4375H6.45605V6.98984H7.07129V6.4375Z" fill="#FBF236"/>
<path d="M6.46094 6.4375H5.8457V6.98984H6.46094V6.4375Z" fill="#FBF236"/>
<path d="M5.84278 6.4375H5.22754V6.98984H5.84278V6.4375Z" fill="#FBF236"/>
<path d="M5.23242 6.4375H4.61719V6.98984H5.23242V6.4375Z" fill="#FBF236"/>
<path d="M4.61426 6.4375H3.99902V6.98984H4.61426V6.4375Z" fill="#FBF236"/>
<path d="M4.00391 6.4375H3.38867V6.98984H4.00391V6.4375Z" fill="#FBF236"/>
<path d="M3.38574 6.4375H2.77051V6.98984H3.38574V6.4375Z" fill="#FBF236"/>
<path d="M2.76758 6.4375H2.15234V6.98984H2.76758V6.4375Z" fill="#FBF236"/>
<path d="M2.15784 6.4375H1.54199V6.98984H2.15784V6.4375Z" fill="white"/>
<path d="M1.53906 6.4375H0.923828V6.98984H1.53906V6.4375Z" fill="black"/>
<path d="M15.0684 5.88281H14.4531V6.4346H15.0684V5.88281Z" fill="black"/>
<path d="M14.457 5.88281H13.8418V6.4346H14.457V5.88281Z" fill="#DF7126"/>
<path d="M13.8389 5.88281H13.2236V6.4346H13.8389V5.88281Z" fill="#DF7126"/>
<path d="M13.2223 5.88281H12.6064V6.4346H13.2223V5.88281Z" fill="#FBF236"/>
<path d="M12.6104 5.88281H11.9951V6.4346H12.6104V5.88281Z" fill="#FBF236"/>
<path d="M11.9932 5.88281H11.3779V6.4346H11.9932V5.88281Z" fill="#FBF236"/>
<path d="M11.3818 5.88281H10.7666V6.4346H11.3818V5.88281Z" fill="#FBF236"/>
<path d="M10.7647 5.88281H10.1494V6.4346H10.7647V5.88281Z" fill="#FBF236"/>
<path d="M10.1465 5.88281H9.53125V6.4346H10.1465V5.88281Z" fill="#FBF236"/>
<path d="M9.53614 5.88281H8.9209V6.4346H9.53614V5.88281Z" fill="#FBF236"/>
<path d="M8.91797 5.88281H8.30273V6.4346H8.91797V5.88281Z" fill="#FBF236"/>
<path d="M8.30662 5.88281H7.69141V6.4346H8.30662V5.88281Z" fill="#FBF236"/>
<path d="M7.69007 5.88281H7.07422V6.4346H7.69007V5.88281Z" fill="#FBF236"/>
<path d="M7.07129 5.88281H6.45605V6.4346H7.07129V5.88281Z" fill="#FBF236"/>
<path d="M6.46094 5.88281H5.8457V6.4346H6.46094V5.88281Z" fill="#FBF236"/>
<path d="M5.84278 5.88281H5.22754V6.4346H5.84278V5.88281Z" fill="#FBF236"/>
<path d="M5.23242 5.88281H4.61719V6.4346H5.23242V5.88281Z" fill="#FBF236"/>
<path d="M4.61426 5.88281H3.99902V6.4346H4.61426V5.88281Z" fill="#FBF236"/>
<path d="M4.00391 5.88281H3.38867V6.4346H4.00391V5.88281Z" fill="#FBF236"/>
<path d="M3.38574 5.88281H2.77051V6.4346H3.38574V5.88281Z" fill="#FBF236"/>
<path d="M2.76758 5.88281H2.15234V6.4346H2.76758V5.88281Z" fill="#FBF236"/>
<path d="M2.15784 5.88281H1.54199V6.4346H2.15784V5.88281Z" fill="white"/>
<path d="M1.53906 5.88281H0.923828V6.4346H1.53906V5.88281Z" fill="black"/>
<path d="M15.0684 5.33594H14.4531V5.88772H15.0684V5.33594Z" fill="black"/>
<path d="M14.457 5.33594H13.8418V5.88772H14.457V5.33594Z" fill="#DF7126"/>
<path d="M13.8389 5.33594H13.2236V5.88772H13.8389V5.33594Z" fill="#DF7126"/>
<path d="M13.2223 5.33594H12.6064V5.88772H13.2223V5.33594Z" fill="#FBF236"/>
<path d="M12.6104 5.33594H11.9951V5.88772H12.6104V5.33594Z" fill="#FBF236"/>
<path d="M11.9932 5.33594H11.3779V5.88772H11.9932V5.33594Z" fill="#FBF236"/>
<path d="M11.3818 5.33594H10.7666V5.88772H11.3818V5.33594Z" fill="#FBF236"/>
<path d="M10.7647 5.33594H10.1494V5.88772H10.7647V5.33594Z" fill="#FBF236"/>
<path d="M10.1465 5.33594H9.53125V5.88772H10.1465V5.33594Z" fill="#FBF236"/>
<path d="M9.53614 5.33594H8.9209V5.88772H9.53614V5.33594Z" fill="#FBF236"/>
<path d="M8.91797 5.33594H8.30273V5.88772H8.91797V5.33594Z" fill="#FBF236"/>
<path d="M8.30662 5.33594H7.69141V5.88772H8.30662V5.33594Z" fill="#FBF236"/>
<path d="M7.69007 5.33594H7.07422V5.88772H7.69007V5.33594Z" fill="#FBF236"/>
<path d="M7.07129 5.33594H6.45605V5.88772H7.07129V5.33594Z" fill="#FBF236"/>
<path d="M6.46094 5.33594H5.8457V5.88772H6.46094V5.33594Z" fill="#FBF236"/>
<path d="M5.84278 5.33594H5.22754V5.88772H5.84278V5.33594Z" fill="#FBF236"/>
<path d="M5.23242 5.33594H4.61719V5.88772H5.23242V5.33594Z" fill="#FBF236"/>
<path d="M4.61426 5.33594H3.99902V5.88772H4.61426V5.33594Z" fill="#FBF236"/>
<path d="M4.00391 5.33594H3.38867V5.88772H4.00391V5.33594Z" fill="#FBF236"/>
<path d="M3.38574 5.33594H2.77051V5.88772H3.38574V5.33594Z" fill="#FBF236"/>
<path d="M2.76758 5.33594H2.15234V5.88772H2.76758V5.33594Z" fill="#FBF236"/>
<path d="M2.15784 5.33594H1.54199V5.88772H2.15784V5.33594Z" fill="white"/>
<path d="M1.53906 5.33594H0.923828V5.88772H1.53906V5.33594Z" fill="black"/>
<path d="M15.0684 4.78125H14.4531V5.33304H15.0684V4.78125Z" fill="black"/>
<path d="M14.457 4.78125H13.8418V5.33304H14.457V4.78125Z" fill="#DF7126"/>
<path d="M13.8389 4.78125H13.2236V5.33304H13.8389V4.78125Z" fill="#DF7126"/>
<path d="M13.2223 4.78125H12.6064V5.33304H13.2223V4.78125Z" fill="#FBF236"/>
<path d="M12.6104 4.78125H11.9951V5.33304H12.6104V4.78125Z" fill="#FBF236"/>
<path d="M11.9932 4.78125H11.3779V5.33304H11.9932V4.78125Z" fill="#FBF236"/>
<path d="M11.3818 4.78125H10.7666V5.33304H11.3818V4.78125Z" fill="#FBF236"/>
<path d="M10.7647 4.78125H10.1494V5.33304H10.7647V4.78125Z" fill="#FBF236"/>
<path d="M10.1465 4.78125H9.53125V5.33304H10.1465V4.78125Z" fill="#FBF236"/>
<path d="M9.53614 4.78125H8.9209V5.33304H9.53614V4.78125Z" fill="#FBF236"/>
<path d="M8.91797 4.78125H8.30273V5.33304H8.91797V4.78125Z" fill="#FBF236"/>
<path d="M8.30662 4.78125H7.69141V5.33304H8.30662V4.78125Z" fill="#FBF236"/>
<path d="M7.69007 4.78125H7.07422V5.33304H7.69007V4.78125Z" fill="#FBF236"/>
<path d="M7.07129 4.78125H6.45605V5.33304H7.07129V4.78125Z" fill="#FBF236"/>
<path d="M6.46094 4.78125H5.8457V5.33304H6.46094V4.78125Z" fill="#FBF236"/>
<path d="M5.84278 4.78125H5.22754V5.33304H5.84278V4.78125Z" fill="#FBF236"/>
<path d="M5.23242 4.78125H4.61719V5.33304H5.23242V4.78125Z" fill="#FBF236"/>
<path d="M4.61426 4.78125H3.99902V5.33304H4.61426V4.78125Z" fill="#FBF236"/>
<path d="M4.00391 4.78125H3.38867V5.33304H4.00391V4.78125Z" fill="#FBF236"/>
<path d="M3.38574 4.78125H2.77051V5.33304H3.38574V4.78125Z" fill="#FBF236"/>
<path d="M2.76758 4.78125H2.15234V5.33304H2.76758V4.78125Z" fill="#FBF236"/>
<path d="M2.15784 4.78125H1.54199V5.33304H2.15784V4.78125Z" fill="white"/>
<path d="M1.53906 4.78125H0.923828V5.33304H1.53906V4.78125Z" fill="black"/>
<path d="M15.0684 4.23438H14.4531V4.78616H15.0684V4.23438Z" fill="black"/>
<path d="M14.457 4.23438H13.8418V4.78616H14.457V4.23438Z" fill="#DF7126"/>
<path d="M13.8389 4.23438H13.2236V4.78616H13.8389V4.23438Z" fill="#DF7126"/>
<path d="M13.2223 4.23438H12.6064V4.78616H13.2223V4.23438Z" fill="#FBF236"/>
<path d="M12.6104 4.23438H11.9951V4.78616H12.6104V4.23438Z" fill="#FBF236"/>
<path d="M11.9932 4.23438H11.3779V4.78616H11.9932V4.23438Z" fill="#FBF236"/>
<path d="M11.3818 4.23438H10.7666V4.78616H11.3818V4.23438Z" fill="#FBF236"/>
<path d="M10.7647 4.23438H10.1494V4.78616H10.7647V4.23438Z" fill="#FBF236"/>
<path d="M10.1465 4.23438H9.53125V4.78616H10.1465V4.23438Z" fill="#FBF236"/>
<path d="M9.53614 4.23438H8.9209V4.78616H9.53614V4.23438Z" fill="#FBF236"/>
<path d="M8.91797 4.23438H8.30273V4.78616H8.91797V4.23438Z" fill="#FBF236"/>
<path d="M8.30662 4.23438H7.69141V4.78616H8.30662V4.23438Z" fill="#FBF236"/>
<path d="M7.69007 4.23438H7.07422V4.78616H7.69007V4.23438Z" fill="#FBF236"/>
<path d="M7.07129 4.23438H6.45605V4.78616H7.07129V4.23438Z" fill="#FBF236"/>
<path d="M6.46094 4.23438H5.8457V4.78616H6.46094V4.23438Z" fill="#FBF236"/>
<path d="M5.84278 4.23438H5.22754V4.78616H5.84278V4.23438Z" fill="#FBF236"/>
<path d="M5.23242 4.23438H4.61719V4.78616H5.23242V4.23438Z" fill="#FBF236"/>
<path d="M4.61426 4.23438H3.99902V4.78616H4.61426V4.23438Z" fill="#FBF236"/>
<path d="M4.00391 4.23438H3.38867V4.78616H4.00391V4.23438Z" fill="#FBF236"/>
<path d="M3.38574 4.23438H2.77051V4.78616H3.38574V4.23438Z" fill="#FBF236"/>
<path d="M2.76758 4.23438H2.15234V4.78616H2.76758V4.23438Z" fill="white"/>
<path d="M2.15784 4.23438H1.54199V4.78616H2.15784V4.23438Z" fill="white"/>
<path d="M1.53906 4.23438H0.923828V4.78616H1.53906V4.23438Z" fill="black"/>
<path d="M15.0684 3.67969H14.4531V4.23145H15.0684V3.67969Z" fill="black"/>
<path d="M14.457 3.67969H13.8418V4.23145H14.457V3.67969Z" fill="#DF7126"/>
<path d="M13.8389 3.67969H13.2236V4.23145H13.8389V3.67969Z" fill="#DF7126"/>
<path d="M13.2223 3.67969H12.6064V4.23145H13.2223V3.67969Z" fill="#FBF236"/>
<path d="M12.6104 3.67969H11.9951V4.23145H12.6104V3.67969Z" fill="#FBF236"/>
<path d="M11.9932 3.67969H11.3779V4.23145H11.9932V3.67969Z" fill="#FBF236"/>
<path d="M11.3818 3.67969H10.7666V4.23145H11.3818V3.67969Z" fill="#FBF236"/>
<path d="M10.7647 3.67969H10.1494V4.23145H10.7647V3.67969Z" fill="#FBF236"/>
<path d="M10.1465 3.67969H9.53125V4.23145H10.1465V3.67969Z" fill="#FBF236"/>
<path d="M9.53614 3.67969H8.9209V4.23145H9.53614V3.67969Z" fill="#FBF236"/>
<path d="M8.91797 3.67969H8.30273V4.23145H8.91797V3.67969Z" fill="#FBF236"/>
<path d="M8.30662 3.67969H7.69141V4.23145H8.30662V3.67969Z" fill="#FBF236"/>
<path d="M7.69007 3.67969H7.07422V4.23145H7.69007V3.67969Z" fill="#FBF236"/>
<path d="M7.07129 3.67969H6.45605V4.23145H7.07129V3.67969Z" fill="#FBF236"/>
<path d="M6.46094 3.67969H5.8457V4.23145H6.46094V3.67969Z" fill="#FBF236"/>
<path d="M5.84278 3.67969H5.22754V4.23145H5.84278V3.67969Z" fill="#FBF236"/>
<path d="M5.23242 3.67969H4.61719V4.23145H5.23242V3.67969Z" fill="#FBF236"/>
<path d="M4.61426 3.67969H3.99902V4.23145H4.61426V3.67969Z" fill="#FBF236"/>
<path d="M4.00391 3.67969H3.38867V4.23145H4.00391V3.67969Z" fill="#FBF236"/>
<path d="M3.38574 3.67969H2.77051V4.23145H3.38574V3.67969Z" fill="#FBF236"/>
<path d="M2.76758 3.67969H2.15234V4.23145H2.76758V3.67969Z" fill="white"/>
<path d="M2.15784 3.67969H1.54199V4.23145H2.15784V3.67969Z" fill="white"/>
<path d="M1.53906 3.67969H0.923828V4.23145H1.53906V3.67969Z" fill="black"/>
<path d="M14.457 3.125H13.8418V3.67679H14.457V3.125Z" fill="black"/>
<path d="M13.8389 3.125H13.2236V3.67679H13.8389V3.125Z" fill="white"/>
<path d="M13.2223 3.125H12.6064V3.67679H13.2223V3.125Z" fill="white"/>
<path d="M12.6104 3.125H11.9951V3.67679H12.6104V3.125Z" fill="#FBF236"/>
<path d="M11.9932 3.125H11.3779V3.67679H11.9932V3.125Z" fill="#FBF236"/>
<path d="M11.3818 3.125H10.7666V3.67679H11.3818V3.125Z" fill="#FBF236"/>
<path d="M10.7647 3.125H10.1494V3.67679H10.7647V3.125Z" fill="#FBF236"/>
<path d="M10.1465 3.125H9.53125V3.67679H10.1465V3.125Z" fill="#FBF236"/>
<path d="M9.53614 3.125H8.9209V3.67679H9.53614V3.125Z" fill="#FBF236"/>
<path d="M8.91797 3.125H8.30273V3.67679H8.91797V3.125Z" fill="#FBF236"/>
<path d="M8.30662 3.125H7.69141V3.67679H8.30662V3.125Z" fill="#FBF236"/>
<path d="M7.69007 3.125H7.07422V3.67679H7.69007V3.125Z" fill="#FBF236"/>
<path d="M7.07129 3.125H6.45605V3.67679H7.07129V3.125Z" fill="#FBF236"/>
<path d="M6.46094 3.125H5.8457V3.67679H6.46094V3.125Z" fill="#FBF236"/>
<path d="M5.84278 3.125H5.22754V3.67679H5.84278V3.125Z" fill="#FBF236"/>
<path d="M5.23242 3.125H4.61719V3.67679H5.23242V3.125Z" fill="#FBF236"/>
<path d="M4.61426 3.125H3.99902V3.67679H4.61426V3.125Z" fill="#FBF236"/>
<path d="M4.00391 3.125H3.38867V3.67679H4.00391V3.125Z" fill="#FBF236"/>
<path d="M3.38574 3.125H2.77051V3.67679H3.38574V3.125Z" fill="white"/>
<path d="M2.76758 3.125H2.15234V3.67679H2.76758V3.125Z" fill="white"/>
<path d="M2.15784 3.125H1.54199V3.67679H2.15784V3.125Z" fill="black"/>
<path d="M13.8389 2.57812H13.2236V3.12992H13.8389V2.57812Z" fill="black"/>
<path d="M13.2223 2.57812H12.6064V3.12992H13.2223V2.57812Z" fill="black"/>
<path d="M12.6104 2.57812H11.9951V3.12992H12.6104V2.57812Z" fill="white"/>
<path d="M11.9932 2.57812H11.3779V3.12992H11.9932V2.57812Z" fill="white"/>
<path d="M11.3818 2.57812H10.7666V3.12992H11.3818V2.57812Z" fill="#FBF236"/>
<path d="M10.7647 2.57812H10.1494V3.12992H10.7647V2.57812Z" fill="#FBF236"/>
<path d="M10.1465 2.57812H9.53125V3.12992H10.1465V2.57812Z" fill="#FBF236"/>
<path d="M9.53614 2.57812H8.9209V3.12992H9.53614V2.57812Z" fill="#FBF236"/>
<path d="M8.91797 2.57812H8.30273V3.12992H8.91797V2.57812Z" fill="#FBF236"/>
<path d="M8.30662 2.57812H7.69141V3.12992H8.30662V2.57812Z" fill="#FBF236"/>
<path d="M7.69007 2.57812H7.07422V3.12992H7.69007V2.57812Z" fill="#FBF236"/>
<path d="M7.07129 2.57812H6.45605V3.12992H7.07129V2.57812Z" fill="#FBF236"/>
<path d="M6.46094 2.57812H5.8457V3.12992H6.46094V2.57812Z" fill="#FBF236"/>
<path d="M5.84278 2.57812H5.22754V3.12992H5.84278V2.57812Z" fill="#FBF236"/>
<path d="M5.23242 2.57812H4.61719V3.12992H5.23242V2.57812Z" fill="white"/>
<path d="M4.61426 2.57812H3.99902V3.12992H4.61426V2.57812Z" fill="white"/>
<path d="M4.00391 2.57812H3.38867V3.12992H4.00391V2.57812Z" fill="white"/>
<path d="M3.38574 2.57812H2.77051V3.12992H3.38574V2.57812Z" fill="black"/>
<path d="M2.76758 2.57812H2.15234V3.12992H2.76758V2.57812Z" fill="black"/>
<path d="M12.6104 2.02344H11.9951V2.57522H12.6104V2.02344Z" fill="black"/>
<path d="M11.9932 2.02344H11.3779V2.57522H11.9932V2.02344Z" fill="black"/>
<path d="M11.3818 2.02344H10.7666V2.57522H11.3818V2.02344Z" fill="white"/>
<path d="M10.7647 2.02344H10.1494V2.57522H10.7647V2.02344Z" fill="white"/>
<path d="M10.1465 2.02344H9.53125V2.57522H10.1465V2.02344Z" fill="#FBF236"/>
<path d="M9.53614 2.02344H8.9209V2.57522H9.53614V2.02344Z" fill="#FBF236"/>
<path d="M8.91797 2.02344H8.30273V2.57522H8.91797V2.02344Z" fill="#FBF236"/>
<path d="M8.30662 2.02344H7.69141V2.57522H8.30662V2.02344Z" fill="#FBF236"/>
<path d="M7.69007 2.02344H7.07422V2.57522H7.69007V2.02344Z" fill="#FBF236"/>
<path d="M7.07129 2.02344H6.45605V2.57522H7.07129V2.02344Z" fill="#FBF236"/>
<path d="M6.46094 2.02344H5.8457V2.57522H6.46094V2.02344Z" fill="#FBF236"/>
<path d="M5.84278 2.02344H5.22754V2.57522H5.84278V2.02344Z" fill="white"/>
<path d="M5.23242 2.02344H4.61719V2.57522H5.23242V2.02344Z" fill="white"/>
<path d="M4.61426 2.02344H3.99902V2.57522H4.61426V2.02344Z" fill="black"/>
<path d="M4.00391 2.02344H3.38867V2.57522H4.00391V2.02344Z" fill="black"/>
<path d="M11.3818 1.46875H10.7666V2.02109H11.3818V1.46875Z" fill="black"/>
<path d="M10.7647 1.46875H10.1494V2.02109H10.7647V1.46875Z" fill="black"/>
<path d="M10.1465 1.46875H9.53125V2.02109H10.1465V1.46875Z" fill="white"/>
<path d="M9.53614 1.46875H8.9209V2.02109H9.53614V1.46875Z" fill="white"/>
<path d="M8.91797 1.46875H8.30273V2.02109H8.91797V1.46875Z" fill="#FBF236"/>
<path d="M8.30662 1.46875H7.69141V2.02109H8.30662V1.46875Z" fill="#FBF236"/>
<path d="M7.69007 1.46875H7.07422V2.02109H7.69007V1.46875Z" fill="#FBF236"/>
<path d="M7.07129 1.46875H6.45605V2.02109H7.07129V1.46875Z" fill="white"/>
<path d="M6.46094 1.46875H5.8457V2.02109H6.46094V1.46875Z" fill="white"/>
<path d="M5.84278 1.46875H5.22754V2.02109H5.84278V1.46875Z" fill="black"/>
<path d="M5.23242 1.46875H4.61719V2.02109H5.23242V1.46875Z" fill="black"/>
<path d="M10.1465 0.921875H9.53125V1.47366H10.1465V0.921875Z" fill="black"/>
<path d="M9.53614 0.921875H8.9209V1.47366H9.53614V0.921875Z" fill="black"/>
<path d="M8.91797 0.921875H8.30273V1.47366H8.91797V0.921875Z" fill="white"/>
<path d="M8.30662 0.921875H7.69141V1.47366H8.30662V0.921875Z" fill="white"/>
<path d="M7.69007 0.921875H7.07422V1.47366H7.69007V0.921875Z" fill="white"/>
<path d="M7.07129 0.921875H6.45605V1.47366H7.07129V0.921875Z" fill="black"/>
<path d="M6.46094 0.921875H5.8457V1.47366H6.46094V0.921875Z" fill="black"/>
<path d="M8.91797 0.367188H8.30273V0.918972H8.91797V0.367188Z" fill="black"/>
<path d="M8.30662 0.367188H7.69141V0.918972H8.30662V0.367188Z" fill="black"/>
<path d="M7.69007 0.367188H7.07422V0.918972H7.69007V0.367188Z" fill="black"/>
</svg>
