<svg width="124" height="38" viewBox="0 0 124 38" fill="none" xmlns="http://www.w3.org/2000/svg">
<path d="M56.2944 27.4199C54.9487 28.1309 53.2729 28.4863 51.2671 28.4863C48.6772 28.4863 46.6037 27.6527 45.0464 25.9854C43.4891 24.318 42.7104 22.1302 42.7104 19.4219C42.7104 16.5104 43.5864 14.1576 45.3384 12.3633C47.0903 10.569 49.312 9.67188 52.0034 9.67188C53.73 9.67188 55.1603 9.92155 56.2944 10.4209V12.6934C54.991 11.9655 53.5522 11.6016 51.978 11.6016C49.8875 11.6016 48.1906 12.2998 46.8872 13.6963C45.5923 15.0928 44.9448 16.959 44.9448 19.2949C44.9448 21.5124 45.55 23.2812 46.7603 24.6016C47.979 25.9134 49.5744 26.5693 51.5464 26.5693C53.3745 26.5693 54.9572 26.1631 56.2944 25.3506V27.4199ZM61.8042 28.1816H59.7222V8.93555H61.8042V28.1816ZM75.3247 28.1816H73.2427V26.1504H73.1919C72.2863 27.7077 70.9533 28.4863 69.1929 28.4863C67.8979 28.4863 66.8823 28.1436 66.146 27.458C65.4181 26.7725 65.0542 25.8626 65.0542 24.7285C65.0542 22.2995 66.4845 20.8861 69.3452 20.4883L73.2427 19.9424C73.2427 17.7334 72.3498 16.6289 70.564 16.6289C68.9982 16.6289 67.5848 17.1621 66.3237 18.2285V16.0957C67.6017 15.2832 69.0744 14.877 70.7417 14.877C73.797 14.877 75.3247 16.4935 75.3247 19.7266V28.1816ZM73.2427 21.6055L70.1069 22.0371C69.1421 22.1725 68.4142 22.4137 67.9233 22.7607C67.4325 23.0993 67.187 23.7044 67.187 24.5762C67.187 25.2109 67.4113 25.7314 67.8599 26.1377C68.3169 26.5355 68.922 26.7344 69.6753 26.7344C70.7078 26.7344 71.5584 26.3747 72.2271 25.6553C72.9041 24.9274 73.2427 24.0091 73.2427 22.9004V21.6055ZM89.7593 28.1816H87.6772V26.125H87.6265C86.7632 27.6992 85.4259 28.4863 83.6147 28.4863C80.5171 28.4863 78.9683 26.6413 78.9683 22.9512V15.1816H81.0376V22.6211C81.0376 25.3633 82.0871 26.7344 84.186 26.7344C85.2017 26.7344 86.0353 26.362 86.687 25.6172C87.3472 24.8639 87.6772 23.8822 87.6772 22.6719V15.1816H89.7593V28.1816ZM105.07 28.1816H102.988V25.9727H102.937C101.972 27.6484 100.483 28.4863 98.4683 28.4863C96.8348 28.4863 95.5272 27.9066 94.5454 26.7471C93.5721 25.5791 93.0854 23.9922 93.0854 21.9863C93.0854 19.8366 93.6271 18.1143 94.7104 16.8193C95.7938 15.5244 97.2368 14.877 99.0396 14.877C100.825 14.877 102.125 15.5794 102.937 16.9844H102.988V8.93555H105.07V28.1816ZM102.988 22.3037V20.3867C102.988 19.3372 102.641 18.4486 101.947 17.7207C101.253 16.9928 100.373 16.6289 99.3062 16.6289C98.0366 16.6289 97.0379 17.0944 96.3101 18.0254C95.5822 18.9564 95.2183 20.2428 95.2183 21.8848C95.2183 23.3828 95.5653 24.5677 96.2593 25.4395C96.9618 26.3027 97.9012 26.7344 99.0776 26.7344C100.237 26.7344 101.177 26.3154 101.896 25.4775C102.624 24.6396 102.988 23.5817 102.988 22.3037ZM119.733 22.2021H110.554C110.588 23.6494 110.977 24.7666 111.722 25.5537C112.467 26.3408 113.491 26.7344 114.794 26.7344C116.259 26.7344 117.604 26.252 118.832 25.2871V27.2422C117.689 28.0716 116.178 28.4863 114.299 28.4863C112.463 28.4863 111.02 27.8981 109.97 26.7217C108.921 25.5368 108.396 23.8737 108.396 21.7324C108.396 19.7096 108.967 18.0635 110.11 16.7939C111.261 15.516 112.687 14.877 114.388 14.877C116.089 14.877 117.405 15.4271 118.336 16.5273C119.267 17.6276 119.733 19.1553 119.733 21.1104V22.2021ZM117.6 20.4375C117.592 19.2357 117.3 18.3005 116.724 17.6318C116.157 16.9632 115.366 16.6289 114.35 16.6289C113.368 16.6289 112.535 16.9801 111.849 17.6826C111.164 18.3851 110.74 19.3034 110.58 20.4375H117.6Z" fill="#E8E8E6"/>
<path d="M7.4311 25.3733L14.3613 21.4868L14.4787 21.1491L14.3613 20.9612H14.025L12.8651 20.8907L8.90376 20.7835L5.46951 20.6411L2.14245 20.4619L1.30407 20.2843L0.51709 19.2492L0.597844 18.7323L1.30261 18.261L2.30983 18.3491L4.54157 18.5004L7.88626 18.7323L10.3118 18.8748L13.9076 19.2492H14.4787L14.5595 19.0187L14.3627 18.8748L14.2115 18.7323L10.7494 16.389L7.00237 13.9106L5.04078 12.4835L3.97776 11.7625L3.44332 11.0842L3.21134 9.60421L4.17451 8.54413L5.46804 8.63223L5.7984 8.72179L7.10955 9.72901L9.91098 11.8962L13.5684 14.5875L14.1043 15.0338L14.3172 14.8826L14.3451 14.7754L14.1043 14.3731L12.1148 10.7817L9.99173 7.1258L9.04618 5.61056L8.79657 4.70171C8.70147 4.35264 8.65018 3.99309 8.64388 3.63135L9.74213 2.14401L10.3485 1.94727L11.8109 2.14401L12.4276 2.67846L13.3379 4.75457L14.8091 8.02731L17.0922 12.4761L17.7617 13.7946L18.1185 15.0162L18.2521 15.3906H18.4841V15.1762L18.6721 12.6714L19.02 9.5954L19.3577 5.63846L19.4752 4.52258L20.0273 3.18647L21.124 2.46409L21.9815 2.8752L22.6863 3.88096L22.5879 4.53286L22.168 7.2506L21.3472 11.5129L20.8128 14.3643H21.124L21.4808 14.009L22.927 12.0914L25.3526 9.06096L26.4244 7.85699L27.6724 6.52969L28.4756 5.89687H29.9923L31.1082 7.55453L30.609 9.26651L29.0467 11.2443L27.7532 12.921L25.8973 15.417L24.7374 17.4139L24.8446 17.5754L25.1206 17.546L29.314 16.6562L31.5795 16.2451L34.2825 15.7826L35.5056 16.3523L35.6392 16.9323L35.1576 18.1171L32.2666 18.8307L28.8764 19.5091L23.8271 20.7027L23.7654 20.7468L23.8374 20.8364L26.1117 21.0507L27.0837 21.1036H29.4652L33.8993 21.4339L35.0592 22.2004L35.7552 23.1371L35.6392 23.8492L33.8553 24.7595L31.4473 24.1884L25.8254 22.8523L23.899 22.3692H23.6318V22.5307L25.2366 24.0988L28.1819 26.7564L31.8658 30.1774L32.0522 31.026L31.5795 31.6941L31.0803 31.6221L27.8428 29.1893L26.5933 28.0925L23.7654 25.7139H23.5775V25.9635L24.2294 26.9164L27.6724 32.0861L27.8516 33.6718L27.602 34.1901L26.7093 34.5029L25.7285 34.3237L23.7111 31.4973L21.6335 28.3156L19.9553 25.4628L19.7497 25.5803L18.7601 36.231L18.2962 36.7743L17.2258 37.1854L16.3346 36.5085L15.8618 35.4117L16.3346 33.2446L16.9057 30.4196L17.3682 28.1732L17.7882 25.3835L18.0378 24.4556L18.0201 24.3939L17.8146 24.4204L15.7091 27.3084L12.5083 31.6324L9.97411 34.3414L9.36626 34.5821L8.31352 34.0389L8.41189 33.0669L9.00066 32.2021L12.5069 27.7445L14.6211 24.9812L15.9866 23.3867L15.9778 23.1547H15.897L6.58392 29.1981L4.92479 29.4124L4.20975 28.7429L4.29931 27.6476L4.63848 27.2908L7.43991 25.3644L7.4311 25.3733Z" fill="#E8E8E6"/>
</svg>
