<svg width="167" height="36" viewBox="0 0 167 36" fill="none" xmlns="http://www.w3.org/2000/svg">
<path d="M48.9038 28.1816V9.97656H53.9312C60.3465 9.97656 63.5542 12.9346 63.5542 18.8506C63.5542 21.6605 62.6613 23.9202 60.8755 25.6299C59.0981 27.3311 56.7157 28.1816 53.728 28.1816H48.9038ZM51.0366 11.9062V26.252H53.7534C56.1401 26.252 57.9979 25.613 59.3267 24.335C60.6554 23.057 61.3198 21.2458 61.3198 18.9014C61.3198 14.238 58.84 11.9062 53.8804 11.9062H51.0366ZM77.3032 22.2021H68.1245C68.1584 23.6494 68.5477 24.7666 69.2925 25.5537C70.0373 26.3408 71.0614 26.7344 72.3647 26.7344C73.8289 26.7344 75.1746 26.252 76.4019 25.2871V27.2422C75.2593 28.0716 73.7485 28.4863 71.8696 28.4863C70.033 28.4863 68.59 27.8981 67.5405 26.7217C66.491 25.5368 65.9663 23.8737 65.9663 21.7324C65.9663 19.7096 66.5376 18.0635 67.6802 16.7939C68.8312 15.516 70.2573 14.877 71.9585 14.877C73.6597 14.877 74.9757 15.4271 75.9067 16.5273C76.8377 17.6276 77.3032 19.1553 77.3032 21.1104V22.2021ZM75.1704 20.4375C75.1619 19.2357 74.87 18.3005 74.2944 17.6318C73.7274 16.9632 72.936 16.6289 71.9204 16.6289C70.9386 16.6289 70.105 16.9801 69.4194 17.6826C68.7339 18.3851 68.3107 19.3034 68.1499 20.4375H75.1704ZM90.9126 22.2021H81.7339C81.7677 23.6494 82.1571 24.7666 82.9019 25.5537C83.6466 26.3408 84.6707 26.7344 85.9741 26.7344C87.4383 26.7344 88.784 26.252 90.0112 25.2871V27.2422C88.8687 28.0716 87.3579 28.4863 85.479 28.4863C83.6424 28.4863 82.1994 27.8981 81.1499 26.7217C80.1004 25.5368 79.5757 23.8737 79.5757 21.7324C79.5757 19.7096 80.147 18.0635 81.2896 16.7939C82.4406 15.516 83.8667 14.877 85.5679 14.877C87.269 14.877 88.5851 15.4271 89.5161 16.5273C90.4471 17.6276 90.9126 19.1553 90.9126 21.1104V22.2021ZM88.7798 20.4375C88.7713 19.2357 88.4793 18.3005 87.9038 17.6318C87.3368 16.9632 86.5454 16.6289 85.5298 16.6289C84.548 16.6289 83.7144 16.9801 83.0288 17.6826C82.3433 18.3851 81.9201 19.3034 81.7593 20.4375H88.7798ZM96.2065 26.3027H96.1558V34.1611H94.0737V15.1816H96.1558V17.4668H96.2065C97.2306 15.7402 98.7287 14.877 100.701 14.877C102.376 14.877 103.684 15.4609 104.624 16.6289C105.563 17.7884 106.033 19.3457 106.033 21.3008C106.033 23.4759 105.504 25.2194 104.446 26.5312C103.388 27.8346 101.941 28.4863 100.104 28.4863C98.4198 28.4863 97.1206 27.7585 96.2065 26.3027ZM96.1558 21.0596V22.875C96.1558 23.9499 96.5028 24.8639 97.1968 25.6172C97.8993 26.362 98.7879 26.7344 99.8628 26.7344C101.124 26.7344 102.11 26.252 102.821 25.2871C103.54 24.3223 103.9 22.9808 103.9 21.2627C103.9 19.8154 103.566 18.6813 102.897 17.8604C102.228 17.0394 101.323 16.6289 100.18 16.6289C98.9699 16.6289 97.9966 17.0521 97.2603 17.8984C96.5239 18.7363 96.1558 19.79 96.1558 21.0596ZM108.788 27.4453V24.9316C109.075 25.1855 109.418 25.4141 109.816 25.6172C110.222 25.8203 110.645 25.9938 111.085 26.1377C111.534 26.2731 111.983 26.3789 112.431 26.4551C112.88 26.5312 113.294 26.5693 113.675 26.5693C114.987 26.5693 115.965 26.3281 116.608 25.8457C117.26 25.3548 117.585 24.6523 117.585 23.7383C117.585 23.2474 117.475 22.82 117.255 22.4561C117.044 22.0921 116.748 21.762 116.367 21.4658C115.986 21.1611 115.533 20.8734 115.008 20.6025C114.492 20.3232 113.933 20.0312 113.333 19.7266C112.698 19.4049 112.105 19.0791 111.555 18.749C111.005 18.4189 110.527 18.055 110.121 17.6572C109.714 17.2594 109.393 16.8109 109.156 16.3115C108.927 15.8037 108.813 15.2113 108.813 14.5342C108.813 13.7048 108.995 12.9854 109.359 12.376C109.723 11.7581 110.201 11.2503 110.793 10.8525C111.386 10.4548 112.059 10.1585 112.812 9.96387C113.574 9.76921 114.348 9.67188 115.135 9.67188C116.93 9.67188 118.237 9.8877 119.058 10.3193V12.7188C117.983 11.974 116.604 11.6016 114.919 11.6016C114.454 11.6016 113.988 11.6523 113.523 11.7539C113.057 11.847 112.643 12.0036 112.279 12.2236C111.915 12.4437 111.619 12.7272 111.39 13.0742C111.162 13.4212 111.047 13.8444 111.047 14.3438C111.047 14.8092 111.132 15.2113 111.301 15.5498C111.479 15.8883 111.737 16.1973 112.076 16.4766C112.414 16.7559 112.825 17.0267 113.307 17.2891C113.798 17.5514 114.361 17.8392 114.996 18.1523C115.647 18.474 116.265 18.8125 116.849 19.168C117.433 19.5234 117.945 19.917 118.385 20.3486C118.825 20.7803 119.172 21.2585 119.426 21.7832C119.689 22.3079 119.82 22.9089 119.82 23.5859C119.82 24.4831 119.642 25.2448 119.287 25.8711C118.94 26.4889 118.466 26.9925 117.865 27.3818C117.272 27.7712 116.587 28.0505 115.808 28.2197C115.029 28.3975 114.208 28.4863 113.345 28.4863C113.057 28.4863 112.702 28.4609 112.279 28.4102C111.856 28.3678 111.424 28.3001 110.984 28.207C110.544 28.1224 110.125 28.0166 109.727 27.8896C109.338 27.7542 109.025 27.6061 108.788 27.4453ZM133.62 22.2021H124.441C124.475 23.6494 124.864 24.7666 125.609 25.5537C126.354 26.3408 127.378 26.7344 128.681 26.7344C130.145 26.7344 131.491 26.252 132.718 25.2871V27.2422C131.576 28.0716 130.065 28.4863 128.186 28.4863C126.349 28.4863 124.906 27.8981 123.857 26.7217C122.807 25.5368 122.283 23.8737 122.283 21.7324C122.283 19.7096 122.854 18.0635 123.997 16.7939C125.148 15.516 126.574 14.877 128.275 14.877C129.976 14.877 131.292 15.4271 132.223 16.5273C133.154 17.6276 133.62 19.1553 133.62 21.1104V22.2021ZM131.487 20.4375C131.478 19.2357 131.186 18.3005 130.611 17.6318C130.044 16.9632 129.252 16.6289 128.237 16.6289C127.255 16.6289 126.421 16.9801 125.736 17.6826C125.05 18.3851 124.627 19.3034 124.466 20.4375H131.487ZM147.229 22.2021H138.05C138.084 23.6494 138.473 24.7666 139.218 25.5537C139.963 26.3408 140.987 26.7344 142.291 26.7344C143.755 26.7344 145.1 26.252 146.328 25.2871V27.2422C145.185 28.0716 143.674 28.4863 141.795 28.4863C139.959 28.4863 138.516 27.8981 137.466 26.7217C136.417 25.5368 135.892 23.8737 135.892 21.7324C135.892 19.7096 136.463 18.0635 137.606 16.7939C138.757 15.516 140.183 14.877 141.884 14.877C143.585 14.877 144.902 15.4271 145.833 16.5273C146.764 17.6276 147.229 19.1553 147.229 21.1104V22.2021ZM145.096 20.4375C145.088 19.2357 144.796 18.3005 144.22 17.6318C143.653 16.9632 142.862 16.6289 141.846 16.6289C140.864 16.6289 140.031 16.9801 139.345 17.6826C138.66 18.3851 138.236 19.3034 138.076 20.4375H145.096ZM161.181 28.1816H158.261L152.523 21.9355H152.472V28.1816H150.39V8.93555H152.472V21.1357H152.523L157.982 15.1816H160.711L154.681 21.4531L161.181 28.1816Z" fill="#E8E8E6"/>
<path d="M40.6145 7.98382C40.1857 7.77351 39.9999 8.17547 39.75 8.38069C39.6639 8.44684 39.5913 8.53334 39.5187 8.61135C38.8906 9.28468 38.1578 9.72565 37.2005 9.67308C35.8007 9.59506 34.6053 10.036 33.5483 11.1113C33.3238 9.78501 32.5775 8.99466 31.4428 8.48585C30.8485 8.22127 30.2474 7.95838 29.8303 7.38342C29.5399 6.97468 29.4606 6.51844 29.3154 6.07069C29.2225 5.79932 29.1296 5.52287 28.8206 5.47707C28.4829 5.4245 28.3512 5.70773 28.2195 5.94518C27.6911 6.91531 27.4868 7.98382 27.507 9.06589C27.5526 11.5014 28.5758 13.4417 30.6104 14.8206C30.8417 14.9783 30.9008 15.1377 30.8282 15.3684C30.6898 15.8433 30.5243 16.3046 30.3791 16.7812C30.2862 17.0848 30.1478 17.1492 29.8236 17.0186C28.7282 16.5458 27.7332 15.8664 26.8924 15.0173C25.4454 13.613 24.1385 12.0628 22.5075 10.8484C22.1296 10.5679 21.7415 10.3015 21.3441 10.0496C19.681 8.42649 21.5636 7.0934 21.9993 6.93567C22.4551 6.76946 22.1563 6.20298 20.684 6.20976C19.2116 6.21655 17.8642 6.71009 16.1471 7.36985C15.8919 7.46807 15.6294 7.54577 15.3619 7.60221C13.7573 7.29851 12.1161 7.24018 10.4941 7.42922C7.31136 7.78538 4.77023 9.29825 2.90111 11.8779C0.655458 14.9783 0.126971 18.5027 0.773651 22.1763C1.4541 26.05 3.42284 29.2572 6.44687 31.764C9.58403 34.364 13.1956 35.6377 17.3172 35.3935C19.8195 35.2493 22.6071 34.9118 25.7493 32.2389C26.5429 32.6358 27.3736 32.7935 28.7548 32.9122C29.8185 33.0123 30.8417 32.8613 31.6336 32.6951C32.8746 32.4305 32.7885 31.2755 32.3411 31.0652C28.7024 29.3624 29.5011 30.0561 28.7734 29.4947C30.6239 27.2966 33.4099 25.0138 34.5006 17.6173C34.585 17.0288 34.5124 16.6591 34.5006 16.1842C34.4939 15.8958 34.5597 15.7822 34.889 15.75C35.8025 15.6548 36.6887 15.3811 37.4976 14.9444C39.8547 13.6503 40.807 11.5268 41.0316 8.97939C41.0653 8.58931 41.0248 8.18904 40.6145 7.98382ZM20.071 30.9109C16.5439 28.126 14.8334 27.2084 14.1277 27.2474C13.4658 27.2881 13.5857 28.0463 13.7309 28.5415C13.8828 29.03 14.0804 29.3658 14.3573 29.7949C14.5498 30.0781 14.6815 30.5004 14.1665 30.8176C13.0302 31.5231 11.0564 30.5802 10.9635 30.5344C8.66551 29.1741 6.74235 27.3797 5.3899 24.9256C4.08303 22.563 3.32322 20.0291 3.19828 17.3239C3.16451 16.6692 3.3553 16.4386 4.00367 16.3199C4.85484 16.1562 5.72696 16.1339 6.58533 16.2537C10.1851 16.7829 13.248 18.3992 15.8178 20.9585C17.2834 22.4171 18.3927 24.1589 19.5358 25.8618C20.7515 27.6697 22.0584 29.3929 23.7232 30.804C24.3108 31.2993 24.7785 31.6758 25.2276 31.9522C23.8735 32.1049 21.6143 32.1388 20.071 30.9109ZM21.7595 19.9884C21.7592 19.9041 21.7793 19.8211 21.8182 19.7464C21.857 19.6717 21.9133 19.6076 21.9823 19.5597C22.0513 19.5118 22.1308 19.4815 22.2141 19.4713C22.2974 19.4612 22.3818 19.4716 22.4602 19.5016C22.5601 19.5376 22.6463 19.604 22.7069 19.6916C22.7674 19.7791 22.7992 19.8835 22.7979 19.9901C22.7981 20.059 22.7847 20.1272 22.7584 20.1908C22.7321 20.2544 22.6935 20.3121 22.6448 20.3606C22.5961 20.409 22.5382 20.4473 22.4747 20.4731C22.4111 20.4989 22.343 20.5117 22.2745 20.5108C22.2064 20.511 22.139 20.4976 22.0762 20.4713C22.0134 20.4451 21.9564 20.4065 21.9086 20.3579C21.8608 20.3092 21.8232 20.2515 21.7978 20.188C21.7725 20.1246 21.7584 20.0567 21.7595 19.9884ZM27.0106 22.6953C26.6729 22.8326 26.3369 22.9514 26.0144 22.9666C25.5292 22.9836 25.0532 22.8314 24.667 22.5358C24.2044 22.1457 23.8735 21.9287 23.735 21.2502C23.6873 20.9187 23.6964 20.5814 23.762 20.253C23.8802 19.6984 23.7485 19.3422 23.3585 19.0199C23.0427 18.7554 22.6392 18.6824 22.1968 18.6824C22.0454 18.6736 21.8982 18.6282 21.7679 18.5501C21.5822 18.4586 21.4303 18.2279 21.5755 17.943C21.6227 17.8514 21.8456 17.6275 21.8996 17.5868C22.5007 17.2442 23.1947 17.3561 23.8346 17.6139C24.429 17.8582 24.8781 18.3059 25.5248 18.9402C26.185 19.7051 26.3048 19.9172 26.6814 20.4904C26.9785 20.9399 27.2487 21.4012 27.4327 21.9287C27.5459 22.2594 27.4006 22.5291 27.0106 22.6953Z" fill="#E8E8E6"/>
</svg>
