<svg width="142" height="40" viewBox="0 0 142 40" fill="none" xmlns="http://www.w3.org/2000/svg">
<path d="M41.4038 30V11.7949H46.4312C52.8465 11.7949 56.0542 14.7529 56.0542 20.6689C56.0542 23.4788 55.1613 25.7386 53.3755 27.4482C51.5981 29.1494 49.2157 30 46.228 30H41.4038ZM43.5366 13.7246V28.0703H46.2534C48.6401 28.0703 50.4979 27.4313 51.8267 26.1533C53.1554 24.8753 53.8198 23.0641 53.8198 20.7197C53.8198 16.0563 51.34 13.7246 46.3804 13.7246H43.5366ZM60.4214 13.6992C60.049 13.6992 59.7316 13.5723 59.4692 13.3184C59.2069 13.0645 59.0757 12.7428 59.0757 12.3535C59.0757 11.9642 59.2069 11.6426 59.4692 11.3887C59.7316 11.1263 60.049 10.9951 60.4214 10.9951C60.8022 10.9951 61.1239 11.1263 61.3862 11.3887C61.6571 11.6426 61.7925 11.9642 61.7925 12.3535C61.7925 12.7259 61.6571 13.0433 61.3862 13.3057C61.1239 13.568 60.8022 13.6992 60.4214 13.6992ZM61.437 30H59.355V17H61.437V30ZM76.7476 28.959C76.7476 33.7324 74.4624 36.1191 69.8921 36.1191C68.284 36.1191 66.8791 35.8145 65.6772 35.2051V33.123C67.1414 33.9355 68.5379 34.3418 69.8667 34.3418C73.0659 34.3418 74.6655 32.6406 74.6655 29.2383V27.8164H74.6147C73.6245 29.4753 72.1349 30.3047 70.146 30.3047C68.5295 30.3047 67.2261 29.7292 66.2358 28.5781C65.2541 27.4186 64.7632 25.8656 64.7632 23.9189C64.7632 21.71 65.2922 19.9538 66.3501 18.6504C67.4165 17.347 68.8722 16.6953 70.7173 16.6953C72.4692 16.6953 73.7684 17.3978 74.6147 18.8027H74.6655V17H76.7476V28.959ZM74.6655 24.1221V22.2051C74.6655 21.1725 74.3143 20.2881 73.6118 19.5518C72.9178 18.8154 72.0503 18.4473 71.0093 18.4473C69.7228 18.4473 68.7157 18.917 67.9878 19.8564C67.2599 20.7874 66.896 22.0951 66.896 23.7793C66.896 25.2266 67.243 26.3861 67.937 27.2578C68.6395 28.1211 69.5662 28.5527 70.7173 28.5527C71.8853 28.5527 72.8332 28.138 73.561 27.3086C74.2974 26.4792 74.6655 25.417 74.6655 24.1221ZM82.0288 13.6992C81.6564 13.6992 81.339 13.5723 81.0767 13.3184C80.8143 13.0645 80.6831 12.7428 80.6831 12.3535C80.6831 11.9642 80.8143 11.6426 81.0767 11.3887C81.339 11.1263 81.6564 10.9951 82.0288 10.9951C82.4097 10.9951 82.7313 11.1263 82.9937 11.3887C83.2645 11.6426 83.3999 11.9642 83.3999 12.3535C83.3999 12.7259 83.2645 13.0433 82.9937 13.3057C82.7313 13.568 82.4097 13.6992 82.0288 13.6992ZM83.0444 30H80.9624V17H83.0444V30ZM93.2896 29.873C92.7987 30.1439 92.1512 30.2793 91.3472 30.2793C89.0705 30.2793 87.9321 29.0098 87.9321 26.4707V18.7773H85.6978V17H87.9321V13.8262L90.0142 13.1533V17H93.2896V18.7773H90.0142V26.1025C90.0142 26.9743 90.1623 27.5964 90.4585 27.9688C90.7547 28.3411 91.2456 28.5273 91.9312 28.5273C92.4559 28.5273 92.9087 28.3835 93.2896 28.0957V29.873ZM108.917 30H106.315L102.125 23.0303C101.999 22.8187 101.859 22.5182 101.707 22.1289H101.656C101.571 22.3236 101.427 22.624 101.224 23.0303L96.9077 30H94.2925L100.386 20.8467L94.7749 11.7949H97.3901L101.11 18.1934C101.355 18.6165 101.571 19.0397 101.757 19.4629H101.808C102.079 18.9043 102.316 18.4642 102.519 18.1426L106.391 11.7949H108.841L103.116 20.8213L108.917 30ZM132.912 30H130.55L128.621 24.8965H120.902L119.086 30H116.712L123.695 11.7949H125.904L132.912 30ZM127.922 22.9795L125.066 15.2227C124.973 14.9688 124.88 14.5625 124.787 14.0039H124.736C124.651 14.5202 124.554 14.9264 124.444 15.2227L121.613 22.9795H127.922ZM137.736 30H135.603V11.7949H137.736V30Z" fill="#E8E8E6"/>
<path d="M22.2541 27.1097L23.3895 29.532L29.1962 29.5388L30.1377 27.108L22.2541 27.1097Z" fill="#E8E8E6"/>
<path d="M21.244 6.31006L21.3288 3.90404L29.3848 3.90415L29.3849 6.58296L21.244 6.31006Z" fill="#E8E8E6"/>
<path d="M19.2196 23.2505L17.6812 25.1252L21.3086 29.5312H24.3997L19.2196 23.2505Z" fill="#E8E8E6"/>
<path d="M10.8883 3.90381H0.0170898L10.6744 16.7312L0.0170898 29.5633H10.855L21.529 16.7169L10.8883 3.90381ZM5.13309 6.30671H9.76196L18.4233 16.7335L9.76196 27.1604H5.13546L13.7968 16.7335L5.13546 6.30671H5.13309Z" fill="#E8E8E6"/>
<path d="M19.2372 10.153L18.4592 9.21761L17.6812 8.28225L21.3191 3.90381H24.4312L19.2372 10.153Z" fill="#E8E8E6"/>
<path d="M21.5605 12.941L23.0988 14.7925L32.1272 3.90381H29.0531L21.5605 12.941Z" fill="#E8E8E6"/>
<path d="M29.0785 29.5385H32.1955L27.6435 24.0626L23.0915 18.5867L21.5342 20.4634L29.0785 29.5385Z" fill="#E8E8E6"/>
<path d="M29.4568 38.5568L29.7674 39.2195L31.3559 39.2213L31.6135 38.5564L29.4568 38.5568Z" fill="#E8E8E6"/>
<path d="M29.1803 32.8668L29.2035 32.2086L31.4073 32.2087L31.4073 32.9415L29.1803 32.8668Z" fill="#E8E8E6"/>
<path d="M28.626 37.5007L28.2051 38.0136L29.1974 39.2189H30.043L28.626 37.5007Z" fill="#E8E8E6"/>
<path d="M26.347 32.2085H23.373L26.2885 35.7176L23.373 39.228H26.3379L29.2579 35.7137L26.347 32.2085ZM24.7726 32.8658H26.0389L28.4083 35.7182L26.0389 38.5706H24.7732L27.1427 35.7182L24.7732 32.8658H24.7726Z" fill="#E8E8E6"/>
<path d="M28.6308 33.918L28.4179 33.6622L28.2051 33.4063L29.2003 32.2085H30.0516L28.6308 33.918Z" fill="#E8E8E6"/>
<path d="M29.2676 34.6807L29.6884 35.1872L32.1582 32.2085H31.3173L29.2676 34.6807Z" fill="#E8E8E6"/>
<path d="M31.3236 39.2211H32.1763L30.931 37.7231L29.6858 36.2251L29.2598 36.7385L31.3236 39.2211Z" fill="#E8E8E6"/>
<path d="M8.21015 39.2646H6.81006V32.259H8.21015V39.2646Z" fill="#E8E8E6"/>
<path d="M0.0735631 39.2618V37.8704H3.479V39.2618H0.0735631Z" fill="#E8E8E6"/>
<path d="M0.0178988 33.6674V32.2192L3.42334 32.2334V33.6674H0.0178988Z" fill="#E8E8E6"/>
<path d="M3.01278 33.6678L3.42328 32.2338L6.12008 35.7838L4.35726 35.7869L3.01278 33.6678Z" fill="#E8E8E6"/>
<path d="M3.48033 39.262L3.0123 37.8699L4.36514 35.7729L6.1196 35.7833L3.48033 39.262Z" fill="#E8E8E6"/>
<path d="M14.4567 38.8035C14.1916 38.9523 13.9088 39.0671 13.6081 39.1481C13.3074 39.2289 12.9923 39.2693 12.6627 39.2693C12.0936 39.2693 11.5908 39.1722 11.1543 38.9781C10.7179 38.7841 10.351 38.5238 10.0535 38.1971C9.75616 37.8704 9.53146 37.5017 9.3795 37.0909C9.22769 36.6801 9.14853 36.2547 9.14204 35.8147C9.13554 35.3748 9.20177 34.9479 9.34081 34.5339C9.47978 34.1198 9.69472 33.7429 9.98557 33.4032C10.2766 33.0635 10.6452 32.7886 11.0914 32.5783C11.5375 32.3682 12.0613 32.2533 12.6627 32.2338C12.9407 32.221 13.1944 32.234 13.4238 32.2728C13.6534 32.3116 13.8441 32.3537 13.9959 32.399C14.1479 32.4441 14.2433 32.4731 14.2821 32.4861L14.1173 33.8932C13.9814 33.8351 13.7971 33.7753 13.5644 33.7138C13.3317 33.6523 13.0311 33.628 12.6627 33.6408C12.2617 33.6538 11.9206 33.7412 11.6393 33.9029C11.3581 34.0647 11.135 34.2718 10.97 34.5241C10.8052 34.7764 10.6969 35.0513 10.6451 35.349C10.5935 35.6465 10.5967 35.9441 10.6549 36.2418C10.7131 36.5393 10.8279 36.8126 10.9992 37.0616C11.1705 37.3107 11.3952 37.5096 11.6732 37.6586C11.9512 37.8074 12.2811 37.8817 12.6627 37.8817C12.7272 37.8817 12.7918 37.8769 12.8564 37.8672C12.9212 37.8574 12.9859 37.8492 13.0505 37.8427V35.7565H14.4567V38.8035Z" fill="#E8E8E6"/>
<path d="M14.4567 38.8035C14.1916 38.9523 13.9088 39.0671 13.6081 39.1481C13.3074 39.2289 12.9923 39.2693 12.6627 39.2693C12.0936 39.2693 11.5908 39.1722 11.1543 38.9781C10.7179 38.7841 10.351 38.5238 10.0535 38.1971C9.75616 37.8704 9.53146 37.5017 9.3795 37.0909C9.22769 36.6801 9.14853 36.2547 9.14204 35.8147C9.13554 35.3748 9.20177 34.9479 9.34081 34.5339C9.47978 34.1198 9.69472 33.7429 9.98557 33.4032C10.2766 33.0635 10.6452 32.7886 11.0914 32.5783C11.5375 32.3682 12.0613 32.2533 12.6627 32.2338C12.9407 32.221 13.1944 32.234 13.4238 32.2728C13.6534 32.3116 13.8441 32.3537 13.9959 32.399C14.1479 32.4441 14.2433 32.4731 14.2821 32.4861L14.1173 33.8932C13.9814 33.8351 13.7971 33.7753 13.5644 33.7138C13.3317 33.6523 13.0311 33.628 12.6627 33.6408C12.2617 33.6538 11.9206 33.7412 11.6393 33.9029C11.3581 34.0647 11.135 34.2718 10.97 34.5241C10.8052 34.7764 10.6969 35.0513 10.6451 35.349C10.5935 35.6465 10.5967 35.9441 10.6549 36.2418C10.7131 36.5393 10.8279 36.8126 10.9992 37.0616C11.1705 37.3107 11.3952 37.5096 11.6732 37.6586C11.9512 37.8074 12.2811 37.8817 12.6627 37.8817C12.7272 37.8817 12.7918 37.8769 12.8564 37.8672C12.9212 37.8574 12.9859 37.8492 13.0505 37.8427V35.7565H14.4567V38.8035Z" fill="#E8E8E6"/>
<path d="M17.0451 39.2346H15.645V32.229H17.0451V39.2346Z" fill="#E8E8E6"/>
<path d="M17.0451 39.2346H15.645V32.229H17.0451V39.2346Z" fill="#E8E8E6"/>
<path d="M20.8922 39.2346H19.4901V33.6224H17.7446V32.229H22.6377V33.6224H20.8922V39.2346Z" fill="#E8E8E6"/>
<path d="M20.8922 39.2346H19.4901V33.6224H17.7446V32.229H22.6377V33.6224H20.8922V39.2346Z" fill="#E8E8E6"/>
</svg>
