<svg width="30" height="30" viewBox="0 0 30 30" fill="none" xmlns="http://www.w3.org/2000/svg">
<path d="M22.4004 3.98438H18.8004C17.4749 3.98438 16.4004 5.05889 16.4004 6.38438V9.98438C16.4004 11.3099 17.4749 12.3844 18.8004 12.3844H22.4004C23.7259 12.3844 24.8004 11.3099 24.8004 9.98438V6.38438C24.8004 5.05889 23.7259 3.98438 22.4004 3.98438Z" stroke="#D070FF" stroke-width="1.7" stroke-linecap="round" stroke-linejoin="round"/>
<path d="M9.19922 3.98438H5.59922C4.27373 3.98438 3.19922 5.05889 3.19922 6.38438V9.98438C3.19922 11.3099 4.27373 12.3844 5.59922 12.3844H9.19922C10.5247 12.3844 11.5992 11.3099 11.5992 9.98438V6.38438C11.5992 5.05889 10.5247 3.98438 9.19922 3.98438Z" stroke="#D070FF" stroke-width="1.7" stroke-linecap="round" stroke-linejoin="round"/>
<path d="M22.4004 17.1836H18.8004C17.4749 17.1836 16.4004 18.2581 16.4004 19.5836V23.1836C16.4004 24.5091 17.4749 25.5836 18.8004 25.5836H22.4004C23.7259 25.5836 24.8004 24.5091 24.8004 23.1836V19.5836C24.8004 18.2581 23.7259 17.1836 22.4004 17.1836Z" stroke="#D070FF" stroke-width="1.7" stroke-linecap="round" stroke-linejoin="round"/>
<path d="M9.19922 17.1836H5.59922C4.27373 17.1836 3.19922 18.2581 3.19922 19.5836V23.1836C3.19922 24.5091 4.27373 25.5836 5.59922 25.5836H9.19922C10.5247 25.5836 11.5992 24.5091 11.5992 23.1836V19.5836C11.5992 18.2581 10.5247 17.1836 9.19922 17.1836Z" stroke="#D070FF" stroke-width="1.7" stroke-linecap="round" stroke-linejoin="round"/>
</svg>
