<svg width="29" height="34" viewBox="0 0 29 34" fill="none" xmlns="http://www.w3.org/2000/svg">
<g clip-path="url(#clip0_6913_6291)">
<g clip-path="url(#clip1_6913_6291)">
<path fill-rule="evenodd" clip-rule="evenodd" d="M22.6551 22.9021H19.1397V17.4875C19.1397 16.1963 19.1148 14.5352 17.3113 14.5352C15.4801 14.5352 15.2007 15.9411 15.2007 17.3941V22.9021H11.6868V11.7676H15.0591V13.2888H15.1079C15.577 12.4132 16.7256 11.4902 18.4367 11.4902C21.9968 11.4902 22.6551 13.7957 22.6551 16.7946V22.9021ZM7.72012 10.2444C6.58943 10.2444 5.6788 9.34546 5.6788 8.23778C5.6788 7.13138 6.58943 6.23175 7.72012 6.23175C8.84555 6.23175 9.75946 7.13138 9.75946 8.23778C9.75946 9.34546 8.84555 10.2444 7.72012 10.2444ZM5.95818 11.7676H9.48008V22.9021H5.95818V11.7676ZM24.0477 3.01953H4.16366C3.21414 3.01953 2.44287 3.77268 2.44287 4.70083V24.669C2.44287 25.5984 3.21414 26.3529 4.16366 26.3529H24.0477C24.9991 26.3529 25.7762 25.5984 25.7762 24.669V4.70083C25.7762 3.77268 24.9991 3.01953 24.0477 3.01953Z" fill="white"/>
</g>
</g>
<defs>
<clipPath id="clip0_6913_6291">
<rect width="28" height="33" fill="white" transform="translate(0.109375 0.6875)"/>
</clipPath>
<clipPath id="clip1_6913_6291">
<rect width="28" height="28" fill="white" transform="translate(0.109375 0.6875)"/>
</clipPath>
</defs>
</svg>
