<svg width="24" height="24" viewBox="0 0 24 24" fill="none" xmlns="http://www.w3.org/2000/svg">
<path d="M9.48632 15.0291L17.3008 9.25221C17.6839 8.96929 18.2319 9.07892 18.4141 9.51907C19.3751 11.8389 18.945 14.6266 17.0334 16.5417C15.1219 18.4551 12.463 18.8753 10.0311 17.9192L7.37549 19.1511C11.1847 21.7583 15.8105 21.1132 18.7003 18.2176C20.9938 15.9227 21.7029 12.7929 21.0386 9.97031L21.0436 9.97583C20.0809 5.82948 21.28 4.17295 23.7374 0.784557C23.795 0.704831 23.8536 0.623445 23.9129 0.541504L20.6794 3.77874V3.76823L9.48467 15.0307" fill="black"/>
<path d="M7.87315 16.4327C5.13952 13.8183 5.61118 9.77111 7.94234 7.43633C9.66678 5.70836 12.4939 5.00411 14.9607 6.04L17.6108 4.81475C17.1342 4.46982 16.5219 4.09831 15.8194 3.83643C12.6468 2.52869 8.84637 3.17924 6.26664 5.7604C3.78656 8.24467 3.00599 12.0649 4.34512 15.3243C5.34601 17.7598 3.70462 19.4845 2.0516 21.223C1.46535 21.8386 0.879081 22.456 0.405762 23.1082L7.86983 16.4327" fill="black"/>
</svg>
