<svg width="98" height="36" viewBox="0 0 98 36" fill="none" xmlns="http://www.w3.org/2000/svg">
<g clip-path="url(#clip0_3857_655)">
<path d="M14.1013 21.9874L24.6851 14.1642C25.2043 13.7812 25.9467 13.9292 26.1933 14.526C27.4949 17.667 26.9122 21.4424 24.3233 24.0361C21.7343 26.6274 18.1328 27.1959 14.839 25.9014L11.2422 27.5695C16.4013 31.1005 22.667 30.2266 26.581 26.3055C29.6868 23.1974 30.6477 18.9592 29.7479 15.1368L29.7549 15.1438C28.4511 9.52893 30.0744 7.28532 33.4035 2.69707C33.481 2.589 33.5609 2.47858 33.6407 2.36816L29.2616 6.75202V6.73792L14.099 21.9898" fill="#E8E8E6"/>
<path d="M11.9166 23.8881C8.21407 20.3477 8.85308 14.8667 12.0106 11.7045C14.3458 9.36452 18.1752 8.41069 21.516 9.81324L25.1058 8.15461C24.4597 7.6871 23.6304 7.18434 22.6789 6.82959C18.382 5.05819 13.2346 5.93919 9.74113 9.435C6.38159 12.7992 5.32439 17.9725 7.13807 22.3869C8.49364 25.6853 6.27117 28.0206 4.03225 30.3746C3.23818 31.2086 2.4441 32.045 1.80273 32.9283L11.9119 23.8881" fill="#E8E8E6"/>
</g>
<path d="M57.5132 26.9375C55.6851 27.9701 53.6538 28.4863 51.4194 28.4863C48.8211 28.4863 46.7179 27.6484 45.1099 25.9727C43.5103 24.2969 42.7104 22.0794 42.7104 19.3203C42.7104 16.502 43.5991 14.1914 45.3765 12.3887C47.1623 10.5775 49.422 9.67188 52.1558 9.67188C54.1362 9.67188 55.7993 9.99349 57.145 10.6367V12.998C55.6724 12.0671 53.9289 11.6016 51.9146 11.6016C49.8748 11.6016 48.2033 12.304 46.8999 13.709C45.5965 15.1139 44.9448 16.9336 44.9448 19.168C44.9448 21.4701 45.55 23.2812 46.7603 24.6016C47.9705 25.9134 49.6125 26.5693 51.686 26.5693C53.1079 26.5693 54.3394 26.2858 55.3804 25.7188V20.6152H51.394V18.6855H57.5132V26.9375ZM68.2534 17.2891C67.8895 17.0098 67.3647 16.8701 66.6792 16.8701C65.7905 16.8701 65.0457 17.2891 64.4448 18.127C63.8524 18.9648 63.5562 20.1074 63.5562 21.5547V28.1816H61.4741V15.1816H63.5562V17.8604H63.6069C63.9032 16.9463 64.356 16.2354 64.9653 15.7275C65.5747 15.2113 66.256 14.9531 67.0093 14.9531C67.5509 14.9531 67.9657 15.0124 68.2534 15.1309V17.2891ZM75.9468 28.4863C74.0256 28.4863 72.4894 27.8812 71.3384 26.6709C70.1958 25.4521 69.6245 23.8398 69.6245 21.834C69.6245 19.6504 70.2212 17.945 71.4146 16.7178C72.6079 15.4906 74.2202 14.877 76.2515 14.877C78.1896 14.877 79.7004 15.4736 80.7837 16.667C81.8755 17.8604 82.4214 19.515 82.4214 21.6309C82.4214 23.7044 81.8332 25.3675 80.6567 26.6201C79.4888 27.8643 77.9188 28.4863 75.9468 28.4863ZM76.0991 16.6289C74.7619 16.6289 73.7039 17.0859 72.9253 18C72.1466 18.9056 71.7573 20.1582 71.7573 21.7578C71.7573 23.2982 72.1509 24.5127 72.938 25.4014C73.7251 26.29 74.7788 26.7344 76.0991 26.7344C77.4448 26.7344 78.4774 26.2985 79.1968 25.4268C79.9246 24.555 80.2886 23.3151 80.2886 21.707C80.2886 20.082 79.9246 18.8294 79.1968 17.9492C78.4774 17.069 77.4448 16.6289 76.0991 16.6289ZM96.5386 28.1816H93.6187L87.8804 21.9355H87.8296V28.1816H85.7476V8.93555H87.8296V21.1357H87.8804L93.3394 15.1816H96.0688L90.0386 21.4531L96.5386 28.1816Z" fill="#E8E8E6"/>
<defs>
<clipPath id="clip0_3857_655">
<rect width="35.24" height="35.24" fill="white" transform="translate(0.0170898)"/>
</clipPath>
</defs>
</svg>
