<svg width="167" height="38" viewBox="0 0 167 38" fill="none" xmlns="http://www.w3.org/2000/svg">
<path d="M41.184 31C41.184 29.9773 41.184 28.9937 41.184 28.049C41.184 27.1043 41.184 26.0557 41.184 24.903V18.65C41.184 17.4887 41.184 16.4227 41.184 15.452C41.184 14.4813 41.184 13.4847 41.184 12.462C41.912 12.462 42.861 12.462 44.031 12.462C45.201 12.462 46.5443 12.462 48.061 12.462C49.5083 12.462 50.7087 12.6483 51.662 13.021C52.6153 13.3937 53.3303 13.983 53.807 14.789C54.2837 15.595 54.522 16.6523 54.522 17.961C54.522 19.1223 54.3097 20.1537 53.885 21.055C53.4603 21.9563 52.7583 22.6627 51.779 23.174C50.7997 23.6853 49.478 23.941 47.814 23.941C47.3893 23.941 46.93 23.941 46.436 23.941C45.9507 23.941 45.474 23.941 45.006 23.941C44.538 23.941 44.135 23.941 43.797 23.941V21.458H47.177C48.1563 21.458 48.958 21.341 49.582 21.107C50.206 20.873 50.6653 20.5003 50.96 19.989C51.2633 19.4777 51.415 18.8103 51.415 17.987C51.415 17.311 51.3067 16.7737 51.09 16.375C50.8733 15.9677 50.5873 15.6643 50.232 15.465C49.8853 15.257 49.4997 15.1183 49.075 15.049C48.659 14.9797 48.2517 14.945 47.853 14.945H42.718L44.2 12.93C44.2 13.9527 44.2 14.9493 44.2 15.92C44.2 16.882 44.2 17.948 44.2 19.118V24.903C44.2 26.0557 44.2 27.1043 44.2 28.049C44.2 28.9937 44.2 29.9773 44.2 31H41.184ZM63.196 31.299C61.61 31.299 60.3057 31.0043 59.283 30.415C58.2604 29.8257 57.502 29.0197 57.008 27.997C56.5227 26.9743 56.28 25.8 56.28 24.474C56.28 23.1653 56.514 22.004 56.982 20.99C57.4587 19.976 58.152 19.1873 59.062 18.624C59.972 18.052 61.0727 17.766 62.364 17.766C63.482 17.766 64.444 17.9783 65.25 18.403C66.056 18.819 66.6757 19.443 67.109 20.275C67.5424 21.107 67.759 22.1383 67.759 23.369C67.759 23.6983 67.7504 23.9973 67.733 24.266C67.7244 24.526 67.6984 24.786 67.655 25.046L65.224 23.98C65.2414 23.85 65.2544 23.7243 65.263 23.603C65.2717 23.473 65.276 23.3517 65.276 23.239C65.276 22.173 65.0074 21.3497 64.47 20.769C63.9414 20.1797 63.248 19.885 62.39 19.885C61.7227 19.885 61.142 20.067 60.648 20.431C60.154 20.795 59.7684 21.2933 59.491 21.926C59.2224 22.5587 59.088 23.2867 59.088 24.11V24.526C59.088 25.4447 59.244 26.2333 59.556 26.892C59.8767 27.5507 60.362 28.0577 61.012 28.413C61.6707 28.7683 62.4984 28.946 63.495 28.946C63.8764 28.946 64.2924 28.9157 64.743 28.855C65.2024 28.7857 65.6617 28.6817 66.121 28.543C66.5804 28.4043 67.0137 28.2267 67.421 28.01L67.525 30.428C67.1957 30.6013 66.81 30.753 66.368 30.883C65.926 31.013 65.4364 31.1127 64.899 31.182C64.3704 31.26 63.8027 31.299 63.196 31.299ZM57.398 25.046V23.148L65.991 23.044L67.655 23.733V25.046H57.398ZM70.836 31C70.836 30.0553 70.836 29.141 70.836 28.257C70.836 27.373 70.836 26.398 70.836 25.332V24.032C70.836 23.07 70.836 22.0907 70.836 21.094C70.836 20.0887 70.836 19.0833 70.836 18.078L73.215 17.922L73.319 20.47H73.579C73.9257 19.7073 74.32 19.131 74.762 18.741C75.204 18.351 75.6547 18.091 76.114 17.961C76.5733 17.8223 77.0023 17.753 77.401 17.753C77.6263 17.753 77.8603 17.7703 78.103 17.805C78.3457 17.8397 78.5753 17.896 78.792 17.974L78.545 20.73C78.2417 20.678 77.9687 20.639 77.726 20.613C77.4833 20.587 77.206 20.574 76.894 20.574C76.6513 20.574 76.3827 20.6087 76.088 20.678C75.7933 20.7387 75.4943 20.8687 75.191 21.068C74.8963 21.2673 74.6103 21.5663 74.333 21.965C74.0643 22.355 73.826 22.8707 73.618 23.512V25.475C73.618 26.4717 73.618 27.4077 73.618 28.283C73.618 29.1497 73.618 30.0553 73.618 31H70.836ZM81.3477 36.083C81.3477 35.1383 81.3477 34.2067 81.3477 33.288C81.3477 32.378 81.3477 31.39 81.3477 30.324V24.032C81.3477 23.07 81.3477 22.0907 81.3477 21.094C81.3477 20.0887 81.3477 19.0833 81.3477 18.078L83.8437 17.922L83.9217 19.638H84.1817C84.433 19.274 84.7537 18.949 85.1437 18.663C85.5337 18.377 85.9757 18.156 86.4697 18C86.9724 17.8353 87.5184 17.753 88.1077 17.753C89.2777 17.753 90.2657 18.0477 91.0717 18.637C91.8864 19.2263 92.5017 20.0323 92.9177 21.055C93.3424 22.0777 93.5547 23.226 93.5547 24.5C93.5547 25.7047 93.3554 26.827 92.9567 27.867C92.5667 28.8983 91.973 29.7303 91.1757 30.363C90.3784 30.9957 89.373 31.312 88.1597 31.312C87.5964 31.312 87.0807 31.2383 86.6127 31.091C86.1534 30.9437 85.733 30.7313 85.3517 30.454C84.979 30.1767 84.641 29.843 84.3377 29.453H84.1297V30.467C84.1297 31.4637 84.1297 32.3953 84.1297 33.262C84.1297 34.1373 84.1297 35.0473 84.1297 35.992L81.3477 36.083ZM87.2107 28.881C88.0167 28.881 88.6797 28.6773 89.1997 28.27C89.7197 27.854 90.101 27.3167 90.3437 26.658C90.5864 25.9907 90.7077 25.28 90.7077 24.526C90.7077 23.7373 90.5777 23.018 90.3177 22.368C90.0664 21.7093 89.6807 21.185 89.1607 20.795C88.6407 20.405 87.9777 20.21 87.1717 20.21C86.773 20.21 86.383 20.2707 86.0017 20.392C85.629 20.5047 85.2824 20.678 84.9617 20.912C84.641 21.1373 84.3637 21.4233 84.1297 21.77V27.022C84.355 27.4033 84.615 27.7327 84.9097 28.01C85.2044 28.2873 85.5424 28.504 85.9237 28.66C86.305 28.8073 86.734 28.881 87.2107 28.881ZM96.7344 31C96.7344 30.0553 96.7344 29.141 96.7344 28.257C96.7344 27.373 96.7344 26.398 96.7344 25.332V18.169C96.7344 17.0857 96.7344 16.0283 96.7344 14.997C96.7344 13.9657 96.7344 12.956 96.7344 11.968L99.5164 11.669C99.5164 12.709 99.5164 13.762 99.5164 14.828C99.5164 15.8853 99.5164 16.999 99.5164 18.169V25.332C99.5164 26.398 99.5164 27.373 99.5164 28.257C99.5164 29.141 99.5164 30.0553 99.5164 31H96.7344ZM109.585 31.299C107.999 31.299 106.694 31.0043 105.672 30.415C104.649 29.8257 103.891 29.0197 103.397 27.997C102.911 26.9743 102.669 25.8 102.669 24.474C102.669 23.1653 102.903 22.004 103.371 20.99C103.847 19.976 104.541 19.1873 105.451 18.624C106.361 18.052 107.461 17.766 108.753 17.766C109.871 17.766 110.833 17.9783 111.639 18.403C112.445 18.819 113.064 19.443 113.498 20.275C113.931 21.107 114.148 22.1383 114.148 23.369C114.148 23.6983 114.139 23.9973 114.122 24.266C114.113 24.526 114.087 24.786 114.044 25.046L111.613 23.98C111.63 23.85 111.643 23.7243 111.652 23.603C111.66 23.473 111.665 23.3517 111.665 23.239C111.665 22.173 111.396 21.3497 110.859 20.769C110.33 20.1797 109.637 19.885 108.779 19.885C108.111 19.885 107.531 20.067 107.037 20.431C106.543 20.795 106.157 21.2933 105.88 21.926C105.611 22.5587 105.477 23.2867 105.477 24.11V24.526C105.477 25.4447 105.633 26.2333 105.945 26.892C106.265 27.5507 106.751 28.0577 107.401 28.413C108.059 28.7683 108.887 28.946 109.884 28.946C110.265 28.946 110.681 28.9157 111.132 28.855C111.591 28.7857 112.05 28.6817 112.51 28.543C112.969 28.4043 113.402 28.2267 113.81 28.01L113.914 30.428C113.584 30.6013 113.199 30.753 112.757 30.883C112.315 31.013 111.825 31.1127 111.288 31.182C110.759 31.26 110.191 31.299 109.585 31.299ZM103.787 25.046V23.148L112.38 23.044L114.044 23.733V25.046H103.787ZM115.886 31C116.258 30.4107 116.583 29.8993 116.861 29.466C117.138 29.024 117.398 28.608 117.641 28.218C117.892 27.828 118.161 27.412 118.447 26.97L120.319 24.019L120.332 24.721L118.486 21.952C118.2 21.51 117.927 21.0983 117.667 20.717C117.407 20.3357 117.138 19.937 116.861 19.521C116.583 19.0963 116.263 18.6153 115.899 18.078L119.019 17.974C119.383 18.546 119.703 19.0703 119.981 19.547C120.267 20.015 120.57 20.5133 120.891 21.042L122.1 23.018H122.321L123.53 21.042C123.833 20.522 124.119 20.0367 124.388 19.586C124.665 19.1267 124.973 18.624 125.311 18.078H128.47C128.088 18.6413 127.759 19.1267 127.482 19.534C127.213 19.9327 126.953 20.314 126.702 20.678C126.459 21.0333 126.186 21.4277 125.883 21.861L123.985 24.656L123.855 23.993L125.974 26.996C126.416 27.6287 126.845 28.2397 127.261 28.829C127.677 29.4183 128.184 30.142 128.782 31H125.441C125.103 30.4713 124.795 29.9903 124.518 29.557C124.249 29.1237 123.946 28.6427 123.608 28.114L122.23 25.93H122.009L120.774 28.01C120.444 28.556 120.145 29.0543 119.877 29.505C119.617 29.947 119.318 30.4453 118.98 31H115.886ZM131.445 31C131.445 30.0553 131.445 29.141 131.445 28.257C131.445 27.373 131.445 26.398 131.445 25.332V24.032C131.445 23.2347 131.445 22.5023 131.445 21.835C131.445 21.1677 131.445 20.5307 131.445 19.924C131.445 19.3173 131.445 18.702 131.445 18.078L134.227 17.987C134.227 18.6197 134.227 19.2437 134.227 19.859C134.227 20.4743 134.227 21.12 134.227 21.796C134.227 22.472 134.227 23.2173 134.227 24.032V25.332C134.227 26.398 134.227 27.373 134.227 28.257C134.227 29.141 134.227 30.0553 134.227 31H131.445ZM132.797 15.452C132.242 15.452 131.791 15.309 131.445 15.023C131.107 14.7283 130.938 14.269 130.938 13.645C130.938 13.0643 131.107 12.6223 131.445 12.319C131.791 12.0157 132.251 11.864 132.823 11.864C133.403 11.864 133.858 12.02 134.188 12.332C134.526 12.644 134.695 13.0817 134.695 13.645C134.695 14.269 134.526 14.7283 134.188 15.023C133.85 15.309 133.386 15.452 132.797 15.452ZM143.395 31.312C142.503 31.312 141.74 31.1647 141.107 30.87C140.483 30.5753 140.007 30.116 139.677 29.492C139.357 28.868 139.196 28.062 139.196 27.074C139.196 26.3893 139.196 25.7047 139.196 25.02C139.196 24.3267 139.196 23.6377 139.196 22.953C139.196 22.2597 139.196 21.5707 139.196 20.886C139.196 20.2013 139.196 19.5167 139.196 18.832C139.196 17.9133 139.196 17.064 139.196 16.284C139.196 15.504 139.196 14.7023 139.196 13.879L141.939 13.333C141.939 13.9917 141.939 14.6027 141.939 15.166C141.939 15.7293 141.939 16.3057 141.939 16.895C141.939 17.4757 141.939 18.1213 141.939 18.832V26.307C141.939 27.191 142.117 27.8583 142.472 28.309C142.828 28.751 143.382 28.972 144.136 28.972C144.448 28.972 144.782 28.92 145.137 28.816C145.501 28.7033 145.835 28.5343 146.138 28.309L146.333 30.649C146.134 30.779 145.878 30.896 145.566 31C145.263 31.0953 144.921 31.169 144.539 31.221C144.167 31.2817 143.785 31.312 143.395 31.312ZM136.843 20.223V18.078H146.229V20.223C145.38 20.223 144.526 20.223 143.668 20.223C142.81 20.223 141.974 20.223 141.159 20.223H139.976H136.843ZM150.326 36.083C150.673 35.2163 151.024 34.341 151.379 33.457C151.734 32.573 152.085 31.702 152.432 30.844V31.455C152.111 30.5623 151.786 29.6653 151.457 28.764C151.128 27.854 150.807 26.97 150.495 26.112L149.65 23.759C149.312 22.8317 148.965 21.8827 148.61 20.912C148.263 19.9413 147.921 18.9967 147.583 18.078L150.573 17.974C150.902 19.0313 151.223 20.0627 151.535 21.068C151.847 22.0733 152.163 23.1003 152.484 24.149L153.68 28.062H153.94L155.253 24.136C155.6 23.1133 155.938 22.1037 156.267 21.107C156.605 20.1017 156.947 19.092 157.294 18.078H160.245C159.976 18.7713 159.712 19.443 159.452 20.093C159.201 20.7343 158.923 21.445 158.62 22.225C158.317 23.005 157.953 23.9367 157.528 25.02L156.098 28.66C155.457 30.3067 154.911 31.7063 154.46 32.859C154.009 34.0117 153.598 35.056 153.225 35.992L150.326 36.083Z" fill="white"/>
<path d="M27.4275 0V10.908H31.5V26.43H27.0975V36L16.542 26.709V35.9265H14.9055V26.6985L4.338 36V26.3025H0V10.782H4.326V0L14.9055 9.741V0.285H16.5405V10.02L27.4275 0ZM16.542 13.566V24.5445L25.461 32.3955V21.66L16.542 13.566ZM14.8935 13.446L5.9745 21.543V32.3955L14.8935 24.5445V13.4475V13.446ZM27.0975 24.816H29.8635V12.5235H17.94L27.0975 20.8335V24.816ZM13.6245 12.396H1.635V24.6885H4.335V20.8245L13.623 12.3945L13.6245 12.396ZM5.9625 3.714V10.779H13.635L5.9625 3.714ZM25.791 3.714L18.1185 10.779H25.791V3.714Z" fill="white"/>
</svg>
