<svg width="110" height="37" viewBox="0 0 110 37" fill="none" xmlns="http://www.w3.org/2000/svg">
<path d="M55.406 33.433C54.8687 32.965 54.3313 32.5057 53.794 32.055C53.2567 31.6043 52.728 31.1537 52.208 30.703L50.154 28.961L51.818 27.245L54.483 29.338C55.0637 29.7973 55.64 30.2523 56.212 30.703C56.7927 31.1537 57.4253 31.652 58.11 32.198L55.406 33.433ZM49.699 29.312C48.087 29.312 46.683 29.0563 45.487 28.545C44.2997 28.0337 43.3117 27.3317 42.523 26.439C41.743 25.5463 41.158 24.5237 40.768 23.371C40.378 22.2183 40.183 21.0007 40.183 19.718C40.183 17.924 40.5427 16.3033 41.262 14.856C41.99 13.4 43.0517 12.2473 44.447 11.398C45.851 10.54 47.5713 10.111 49.608 10.111C51.1507 10.111 52.507 10.358 53.677 10.852C54.8557 11.346 55.8393 12.035 56.628 12.919C57.4253 13.7943 58.0233 14.8127 58.422 15.974C58.8207 17.1353 59.02 18.3833 59.02 19.718C59.02 21.5467 58.656 23.1847 57.928 24.632C57.2 26.0793 56.1383 27.2233 54.743 28.064C53.3563 28.896 51.675 29.312 49.699 29.312ZM49.634 26.738C50.7 26.738 51.623 26.5473 52.403 26.166C53.183 25.7847 53.8287 25.2647 54.34 24.606C54.8513 23.9473 55.2283 23.1977 55.471 22.357C55.7223 21.5163 55.848 20.6367 55.848 19.718C55.848 18.73 55.7137 17.8113 55.445 16.962C55.1763 16.1127 54.7777 15.3673 54.249 14.726C53.729 14.0847 53.0833 13.5863 52.312 13.231C51.5407 12.867 50.648 12.685 49.634 12.685C48.5853 12.685 47.671 12.8713 46.891 13.244C46.111 13.6167 45.4567 14.1323 44.928 14.791C44.408 15.4497 44.018 16.1993 43.758 17.04C43.498 17.8807 43.368 18.7733 43.368 19.718C43.368 20.654 43.4937 21.5423 43.745 22.383C43.9963 23.2237 44.3777 23.9733 44.889 24.632C45.409 25.282 46.0633 25.7977 46.852 26.179C47.6407 26.5517 48.568 26.738 49.634 26.738ZM64.9196 29C64.6596 28.1853 64.3996 27.3707 64.1396 26.556C63.8796 25.7413 63.6152 24.918 63.3466 24.086L62.6056 21.785C62.2936 20.823 61.9859 19.874 61.6826 18.938C61.3879 17.9933 61.0846 17.04 60.7726 16.078L63.7236 15.974C64.0009 16.9793 64.2956 18.0323 64.6076 19.133C64.9196 20.2337 65.2142 21.2867 65.4916 22.292L66.5576 26.075H66.7916L67.8186 22.214C68.0959 21.1913 68.3689 20.173 68.6376 19.159C68.9149 18.145 69.1922 17.118 69.4696 16.078H72.1086C72.3859 17.066 72.6632 18.08 72.9406 19.12C73.2266 20.1513 73.5039 21.174 73.7726 22.188L74.8386 26.075H75.0726L76.1516 22.123C76.4202 21.135 76.7019 20.1037 76.9966 19.029C77.2912 17.9543 77.5599 16.9707 77.8026 16.078H80.7796C80.4762 17.0313 80.1686 17.9847 79.8566 18.938C79.5532 19.8827 79.2499 20.8317 78.9466 21.785L78.2186 24.06C77.9499 24.892 77.6812 25.724 77.4126 26.556C77.1526 27.388 76.8926 28.2027 76.6326 29H73.4346C73.1746 28.0813 72.9016 27.1323 72.6156 26.153C72.3296 25.165 72.0566 24.2203 71.7966 23.319L70.7956 19.874H70.5486L69.5736 23.371C69.3222 24.255 69.0579 25.1867 68.7806 26.166C68.5119 27.1367 68.2476 28.0813 67.9876 29H64.9196ZM88.9168 29.299C87.3308 29.299 86.0264 29.0043 85.0038 28.415C83.9811 27.8257 83.2228 27.0197 82.7288 25.997C82.2434 24.9743 82.0008 23.8 82.0008 22.474C82.0008 21.1653 82.2348 20.004 82.7028 18.99C83.1794 17.976 83.8728 17.1873 84.7828 16.624C85.6928 16.052 86.7934 15.766 88.0848 15.766C89.2028 15.766 90.1648 15.9783 90.9708 16.403C91.7768 16.819 92.3964 17.443 92.8298 18.275C93.2631 19.107 93.4798 20.1383 93.4798 21.369C93.4798 21.6983 93.4711 21.9973 93.4538 22.266C93.4451 22.526 93.4191 22.786 93.3758 23.046L90.9448 21.98C90.9621 21.85 90.9751 21.7243 90.9838 21.603C90.9924 21.473 90.9968 21.3517 90.9968 21.239C90.9968 20.173 90.7281 19.3497 90.1908 18.769C89.6621 18.1797 88.9688 17.885 88.1108 17.885C87.4434 17.885 86.8628 18.067 86.3688 18.431C85.8748 18.795 85.4891 19.2933 85.2118 19.926C84.9431 20.5587 84.8088 21.2867 84.8088 22.11V22.526C84.8088 23.4447 84.9648 24.2333 85.2768 24.892C85.5974 25.5507 86.0828 26.0577 86.7328 26.413C87.3914 26.7683 88.2191 26.946 89.2158 26.946C89.5971 26.946 90.0131 26.9157 90.4638 26.855C90.9231 26.7857 91.3824 26.6817 91.8418 26.543C92.3011 26.4043 92.7344 26.2267 93.1418 26.01L93.2458 28.428C92.9164 28.6013 92.5308 28.753 92.0888 28.883C91.6468 29.013 91.1571 29.1127 90.6198 29.182C90.0911 29.26 89.5234 29.299 88.9168 29.299ZM83.1188 23.046V21.148L91.7118 21.044L93.3758 21.733V23.046H83.1188ZM96.5567 29C96.5567 28.0553 96.5567 27.141 96.5567 26.257C96.5567 25.373 96.5567 24.398 96.5567 23.332V22.032C96.5567 21.07 96.5567 20.0907 96.5567 19.094C96.5567 18.0887 96.5567 17.0833 96.5567 16.078L98.9357 15.922L99.0397 18.262H99.3127C99.59 17.8633 99.941 17.4733 100.366 17.092C100.799 16.702 101.302 16.3813 101.874 16.13C102.446 15.8787 103.1 15.753 103.837 15.753C105.18 15.753 106.172 16.143 106.814 16.923C107.464 17.703 107.789 18.847 107.789 20.355C107.789 20.9183 107.789 21.4297 107.789 21.889C107.789 22.3397 107.789 22.8207 107.789 23.332C107.789 24.372 107.789 25.3427 107.789 26.244C107.789 27.1367 107.789 28.0553 107.789 29H105.007C105.007 28.0553 105.007 27.141 105.007 26.257C105.007 25.3643 105.007 24.437 105.007 23.475V21.161C105.007 20.225 104.846 19.5187 104.526 19.042C104.205 18.5653 103.616 18.327 102.758 18.327C102.255 18.327 101.796 18.431 101.38 18.639C100.964 18.8383 100.587 19.1113 100.249 19.458C99.9107 19.796 99.6074 20.173 99.3387 20.589V23.475C99.3387 24.4717 99.3387 25.4077 99.3387 26.283C99.3387 27.1497 99.3387 28.0553 99.3387 29H96.5567Z" fill="white"/>
<path fill-rule="evenodd" clip-rule="evenodd" d="M14.7692 5.43293C15.2693 6.31111 15.767 7.19183 16.2633 8.07382C16.2834 8.10909 16.3125 8.1384 16.3476 8.15875C16.3827 8.1791 16.4226 8.18976 16.4631 8.18964H23.5292C23.7507 8.18964 23.939 8.32963 24.0969 8.60581L25.9474 11.8767C26.1892 12.3056 26.2528 12.485 25.9779 12.942C25.647 13.4892 25.325 14.0416 25.0107 14.5965L24.5436 15.4339C24.4087 15.6834 24.2598 15.7903 24.4927 16.0856L27.8679 21.9871C28.0868 22.3702 28.0092 22.6159 27.8132 22.9671C27.257 23.9662 26.6906 24.9577 26.1141 25.9453C25.9117 26.2915 25.6661 26.4226 25.2487 26.4162C24.2598 26.3958 23.2734 26.4035 22.2871 26.4366C22.2659 26.4376 22.2454 26.444 22.2274 26.4552C22.2094 26.4663 22.1944 26.4818 22.184 26.5002C21.046 28.5165 19.8984 30.5274 18.7413 32.5329C18.5262 32.9058 18.2577 32.9949 17.8186 32.9961C16.5497 32.9999 15.2706 33.0012 13.9788 32.9987C13.8585 32.9983 13.7405 32.9663 13.6366 32.9057C13.5327 32.8452 13.4466 32.7582 13.387 32.6538L11.6879 29.6973C11.678 29.6779 11.6629 29.6618 11.6442 29.6507C11.6255 29.6397 11.604 29.6342 11.5823 29.6349H5.06856C4.70583 29.6731 4.36475 29.6336 4.04402 29.5178L2.00387 25.9924C1.94353 25.888 1.91155 25.7696 1.91111 25.6491C1.91066 25.5285 1.94176 25.4099 2.00132 25.3051L3.53749 22.607C3.55937 22.5688 3.57088 22.5256 3.57088 22.4816C3.57088 22.4376 3.55937 22.3944 3.53749 22.3562C2.73729 20.9708 1.94184 19.5827 1.15115 18.1919L0.14571 16.4165C-0.0579238 16.0219 -0.074469 15.7852 0.266618 15.1883C0.858428 14.1536 1.44642 13.1201 2.03187 12.088C2.19987 11.7901 2.41877 11.6629 2.77513 11.6616C3.87348 11.657 4.97183 11.6566 6.07018 11.6603C6.09792 11.6601 6.12512 11.6526 6.14903 11.6385C6.17294 11.6244 6.19271 11.6043 6.20636 11.5801L9.77759 5.35021C9.83171 5.25543 9.90985 5.17659 10.0041 5.12163C10.0984 5.06666 10.2055 5.03752 10.3147 5.03712C10.9816 5.03585 11.6548 5.03712 12.3294 5.02948L13.6237 5.00021C14.0577 4.99639 14.5452 5.04094 14.7692 5.43293ZM10.4012 5.94584C10.3878 5.94583 10.3746 5.94935 10.363 5.95606C10.3514 5.96276 10.3417 5.9724 10.335 5.98402L6.68744 12.3667C6.66993 12.3968 6.64487 12.4217 6.61473 12.4392C6.58459 12.4566 6.55043 12.4658 6.51563 12.466H2.86804C2.79677 12.466 2.77895 12.4978 2.81586 12.5601L10.2103 25.4858C10.2421 25.5393 10.2269 25.5647 10.167 25.566L6.60981 25.5851C6.55781 25.5834 6.50636 25.5963 6.46135 25.6224C6.41634 25.6485 6.37958 25.6867 6.35527 25.7327L4.67529 28.6727C4.61929 28.772 4.64856 28.8229 4.76183 28.8229L12.0366 28.8331C12.0952 28.8331 12.1385 28.8585 12.169 28.9107L13.9546 32.034C14.0132 32.137 14.0717 32.1383 14.1315 32.034L20.5027 20.885L21.4993 19.1261C21.5053 19.1152 21.5142 19.1062 21.5249 19.0999C21.5357 19.0936 21.5479 19.0903 21.5603 19.0903C21.5728 19.0903 21.585 19.0936 21.5958 19.0999C21.6065 19.1062 21.6154 19.1152 21.6214 19.1261L23.4338 22.346C23.4474 22.3701 23.4672 22.3902 23.4911 22.404C23.5151 22.4179 23.5423 22.4251 23.57 22.425L27.0865 22.3995C27.0955 22.3996 27.1043 22.3973 27.1122 22.3928C27.12 22.3883 27.1265 22.3819 27.131 22.374C27.1353 22.3663 27.1376 22.3575 27.1376 22.3486C27.1376 22.3397 27.1353 22.3309 27.131 22.3231L23.4401 15.8501C23.4269 15.8285 23.4198 15.8036 23.4198 15.7782C23.4198 15.7528 23.4269 15.7279 23.4401 15.7063L23.813 15.061L25.2385 12.5449C25.269 12.4927 25.2538 12.466 25.1939 12.466H10.4369C10.3618 12.466 10.3439 12.4329 10.3821 12.368L12.2072 9.17981C12.2209 9.15808 12.2281 9.13293 12.2281 9.10726C12.2281 9.08159 12.2209 9.05644 12.2072 9.03472L10.4687 5.98529C10.462 5.97325 10.4522 5.96323 10.4404 5.95628C10.4285 5.94934 10.415 5.94573 10.4012 5.94584ZM18.4066 16.153C18.4651 16.153 18.4804 16.1785 18.4498 16.2294L17.3909 18.0939L14.0654 23.9293C14.0591 23.9407 14.0499 23.9501 14.0387 23.9566C14.0275 23.9631 14.0147 23.9664 14.0017 23.9662C13.9888 23.9662 13.9761 23.9627 13.965 23.9563C13.9538 23.9498 13.9445 23.9405 13.9381 23.9293L9.54341 16.2523C9.51795 16.209 9.53068 16.1861 9.57904 16.1836L9.85395 16.1683L18.4091 16.153H18.4066Z" fill="white"/>
</svg>
