<svg width="14" height="14" viewBox="0 0 14 14" fill="none" xmlns="http://www.w3.org/2000/svg">
<path fill-rule="evenodd" clip-rule="evenodd" d="M7.41576 10.3703C6.22823 10.3703 5.02176 9.66541 4.31764 8.73235C0.93952 8.73235 0.837402 13.5582 0.837402 13.5582H13.9933C13.9933 13.5582 14.2585 8.71094 10.4595 8.71094C9.75623 9.65553 8.60328 10.3703 7.41576 10.3703Z" fill="white"/>
<path fill-rule="evenodd" clip-rule="evenodd" d="M10.2456 4.58455C10.2456 5.97302 8.97818 8.62808 7.41348 8.62808C5.85124 8.62808 4.58301 5.97219 4.58301 4.58455C4.58301 3.1969 5.85042 2.07031 7.41348 2.07031C8.97818 2.07114 10.2456 3.19772 10.2456 4.58455Z" fill="white"/>
<path fill-rule="evenodd" clip-rule="evenodd" d="M11.5085 3.38781C11.5085 3.12757 11.1461 2.91757 10.6965 2.91592V2.37981C10.6965 2.29992 10.727 0.429688 7.42295 0.429688C4.1206 0.429688 4.15107 2.29992 4.15107 2.37981V2.93486C4.14284 2.93486 4.13625 2.93239 4.12884 2.93239C3.68166 2.93239 3.32178 3.1391 3.32178 3.39522V5.66322C3.32178 5.91769 3.68248 6.12522 4.12884 6.12522C4.57519 6.12522 4.93754 5.91769 4.93754 5.66322V3.39522C4.93754 3.35981 4.91531 3.32769 4.90213 3.29475V2.67628C4.90213 2.61945 4.66495 1.20792 7.42295 1.20792C10.1818 1.20792 9.89519 2.61945 9.89519 2.67628V3.32769C9.89025 3.34828 9.8746 3.36639 9.8746 3.38781V5.70769C9.8746 5.96875 10.2394 6.18039 10.6915 6.18039C10.7014 6.18039 10.7088 6.1771 10.7187 6.1771V7.02451H9.90837V7.82333H11.5167L11.5085 3.38781Z" fill="white"/>
</svg>
