<svg width="109" height="35" viewBox="0 0 109 35" fill="none" xmlns="http://www.w3.org/2000/svg">
<path d="M51.832 28H42.3867V9.79492H44.5195V26.0703H51.832V28ZM56.4277 28H54.3457V8.75391H56.4277V28ZM69.9482 28H67.8662V25.9688H67.8154C66.9098 27.526 65.5768 28.3047 63.8164 28.3047C62.5215 28.3047 61.5059 27.9619 60.7695 27.2764C60.0417 26.5908 59.6777 25.681 59.6777 24.5469C59.6777 22.1178 61.1081 20.7044 63.9688 20.3066L67.8662 19.7607C67.8662 17.5518 66.9733 16.4473 65.1875 16.4473C63.6217 16.4473 62.2083 16.9805 60.9473 18.0469V15.9141C62.2253 15.1016 63.6979 14.6953 65.3652 14.6953C68.4206 14.6953 69.9482 16.3118 69.9482 19.5449V28ZM67.8662 21.4238L64.7305 21.8555C63.7656 21.9909 63.0378 22.2321 62.5469 22.5791C62.056 22.9176 61.8105 23.5228 61.8105 24.3945C61.8105 25.0293 62.0348 25.5498 62.4834 25.9561C62.9404 26.3538 63.5456 26.5527 64.2988 26.5527C65.3314 26.5527 66.182 26.193 66.8506 25.4736C67.5277 24.7458 67.8662 23.8275 67.8662 22.7188V21.4238ZM92.3301 28H90.248V20.5352C90.248 19.0964 90.0238 18.0553 89.5752 17.4121C89.1351 16.7689 88.3903 16.4473 87.3408 16.4473C86.4521 16.4473 85.6947 16.8535 85.0684 17.666C84.4505 18.4785 84.1416 19.4518 84.1416 20.5859V28H82.0596V20.2812C82.0596 17.7253 81.0736 16.4473 79.1016 16.4473C78.1875 16.4473 77.4342 16.8324 76.8418 17.6025C76.2493 18.3643 75.9531 19.3587 75.9531 20.5859V28H73.8711V15H75.9531V17.0566H76.0039C76.9264 15.4824 78.2721 14.6953 80.041 14.6953C80.9297 14.6953 81.7041 14.945 82.3643 15.4443C83.0244 15.9352 83.4772 16.5827 83.7227 17.3867C84.6875 15.5924 86.1263 14.6953 88.0391 14.6953C90.8997 14.6953 92.3301 16.46 92.3301 19.9893V28ZM105.571 28H103.489V25.9688H103.438C102.533 27.526 101.2 28.3047 99.4395 28.3047C98.1445 28.3047 97.1289 27.9619 96.3926 27.2764C95.6647 26.5908 95.3008 25.681 95.3008 24.5469C95.3008 22.1178 96.7311 20.7044 99.5918 20.3066L103.489 19.7607C103.489 17.5518 102.596 16.4473 100.811 16.4473C99.2448 16.4473 97.8314 16.9805 96.5703 18.0469V15.9141C97.8483 15.1016 99.321 14.6953 100.988 14.6953C104.044 14.6953 105.571 16.3118 105.571 19.5449V28ZM103.489 21.4238L100.354 21.8555C99.3887 21.9909 98.6608 22.2321 98.1699 22.5791C97.679 22.9176 97.4336 23.5228 97.4336 24.3945C97.4336 25.0293 97.6579 25.5498 98.1064 25.9561C98.5635 26.3538 99.1686 26.5527 99.9219 26.5527C100.954 26.5527 101.805 26.193 102.474 25.4736C103.151 24.7458 103.489 23.8275 103.489 22.7188V21.4238Z" fill="white"/>
<path d="M10.1442 8.87329H10.109L10.0635 12.713H10.0958C12.614 12.713 14.5683 14.7055 18.8177 21.8842L19.0746 22.3203L19.0923 22.3497L21.471 18.7699L21.4533 18.742C20.9335 17.8909 20.396 17.0509 19.8411 16.2223C19.2948 15.4046 18.7193 14.6068 18.1158 13.8304C15.3069 10.2418 12.9576 8.87329 10.1442 8.87329Z" fill="url(#paint0_linear_3857_654)"/>
<path d="M10.1088 8.87329C7.28516 8.88797 4.78459 10.7205 2.98295 13.5279C2.97803 13.5362 2.97314 13.5445 2.96826 13.5529L6.27788 15.3604L6.29404 15.3354C7.3483 13.7452 8.65805 12.7306 10.0647 12.7145H10.0956L10.1425 8.87329H10.1088Z" fill="#E8E8E6"/>
<path d="M2.98169 13.5278L2.96554 13.5528C1.77913 15.4029 0.895191 17.6759 0.419451 20.1265L0.412109 20.1588L4.13287 21.0398L4.13874 21.0075C4.53519 18.8535 5.29285 16.8551 6.27663 15.3618L6.29278 15.3368L2.98169 13.5278Z" fill="url(#paint1_linear_3857_654)"/>
<path d="M4.1387 21.0077L0.419413 20.1267L0.412071 20.159C0.152176 21.5069 0.0200265 22.8769 0.0170898 24.2498V24.2836L3.83182 24.6257V24.5919C3.81794 23.3905 3.92121 22.1906 4.14017 21.0092L4.1387 21.0077Z" fill="url(#paint2_linear_3857_654)"/>
<path d="M3.948 25.8135C3.87959 25.4191 3.84082 25.02 3.832 24.6198V24.5875L0.0172706 24.2439V24.2791C0.0129895 25.0926 0.0847607 25.9047 0.231647 26.7048L3.95387 25.8458C3.95189 25.8351 3.94993 25.8243 3.948 25.8135Z" fill="url(#paint3_linear_3857_654)"/>
<path d="M4.81853 27.8001C4.40153 27.3449 4.10786 26.6901 3.95368 25.8502L3.94781 25.8193L0.225586 26.6783L0.231459 26.7091C0.513379 28.1922 1.06547 29.4256 1.85544 30.3609L1.87599 30.3859L4.83909 27.8236C4.83171 27.8158 4.82583 27.808 4.81853 27.8001Z" fill="url(#paint4_linear_3857_654)"/>
<path d="M15.8457 17.1753C13.6021 20.6259 12.2425 22.7917 12.2425 22.7917C9.2544 27.4903 8.22069 28.5431 6.55854 28.5431C6.23166 28.5516 5.90681 28.4894 5.60623 28.3607C5.30565 28.2319 5.03646 28.0397 4.8171 27.7972L1.85547 30.358L1.87603 30.383C2.96847 31.6589 4.50728 32.3667 6.41318 32.3667C9.29551 32.3667 11.3673 31.0041 15.0528 24.5405L17.6459 19.9446C17.0706 19.0053 16.4713 18.0818 15.8457 17.1753Z" fill="#E8E8E6"/>
<path d="M19.8425 11.7307L19.819 11.7542C19.2317 12.3856 18.6649 13.0875 18.1157 13.8334C18.6708 14.5426 19.2434 15.3369 19.841 16.2268C20.5458 15.1358 21.2036 14.2518 21.8482 13.5735L21.8717 13.55L19.8425 11.7307Z" fill="url(#paint5_linear_3857_654)"/>
<path d="M30.732 11.3885C29.1682 9.80275 27.3034 8.87329 25.3094 8.87329C23.2068 8.87329 21.4374 10.0289 19.8428 11.7277L19.8193 11.7512L21.8486 13.572L21.8721 13.547C22.9219 12.4502 23.9395 11.9025 25.0672 11.9025C26.28 11.9025 27.4165 12.4751 28.4003 13.4809L28.4223 13.5044L30.7555 11.412L30.732 11.3885Z" fill="#E8E8E6"/>
<path d="M35.2541 23.74C35.166 18.6493 33.3893 14.099 30.7551 11.4119L30.7316 11.3884L28.3999 13.4793L28.4219 13.5028C30.4042 15.5467 31.7653 19.3468 31.8887 23.7386V23.7724H35.2541V23.74Z" fill="url(#paint6_linear_3857_654)"/>
<path d="M35.2544 23.7769V23.7432H31.889V23.7755C31.8949 23.981 31.8978 24.1895 31.8978 24.398C31.8978 25.5947 31.7201 26.5624 31.3575 27.2613L31.3413 27.2936L33.8492 29.9102L33.8683 29.8808C34.7787 28.4712 35.2574 26.5139 35.2574 24.1396C35.2574 24.0177 35.2574 23.8973 35.2544 23.7769Z" fill="url(#paint7_linear_3857_654)"/>
<path d="M31.3572 27.2568L31.3411 27.2862C31.0269 27.8765 30.579 28.27 29.9946 28.4418L31.137 32.0568C31.3572 31.9824 31.572 31.8931 31.7801 31.7896C32.5932 31.3785 33.2847 30.762 33.7859 30.0012L33.8505 29.9057L33.8681 29.8763L31.3572 27.2568Z" fill="url(#paint8_linear_3857_654)"/>
<path d="M29.2665 28.5386C28.8818 28.5386 28.5441 28.4813 28.2123 28.333L27.0405 32.0361C27.6998 32.2608 28.4017 32.3621 29.1843 32.3621C29.9067 32.3621 30.5689 32.2549 31.1695 32.0464L30.0242 28.4314C29.779 28.5048 29.5249 28.5415 29.2665 28.5386Z" fill="url(#paint9_linear_3857_654)"/>
<path d="M26.9215 27.2774L26.9009 27.2524L24.2051 30.0628L24.2286 30.0878C25.1639 31.0892 26.0581 31.7103 27.0727 32.051L28.243 28.3508C27.8157 28.1672 27.4016 27.8324 26.9215 27.2774Z" fill="url(#paint10_linear_3857_654)"/>
<path d="M26.9009 27.2495C26.0933 26.3068 25.0919 24.7357 23.5194 22.1984L21.4696 18.7684L21.4534 18.739L19.0747 22.3188L19.0923 22.3482L20.5445 24.7974C21.9526 27.1614 23.0994 28.8705 24.2051 30.0613L24.2286 30.0848L26.9215 27.2744C26.9146 27.2661 26.9077 27.2578 26.9009 27.2495Z" fill="url(#paint11_linear_3857_654)"/>
<defs>
<linearGradient id="paint0_linear_3857_654" x1="875.857" y1="1210.95" x2="168.467" y2="281.034" gradientUnits="userSpaceOnUse">
<stop offset="0.0006" stop-color="#E8E8E6"/>
<stop offset="0.8591" stop-color="#E8E8E6"/>
</linearGradient>
<linearGradient id="paint1_linear_3857_654" x1="225.424" y1="683.049" x2="431.197" y2="163.489" gradientUnits="userSpaceOnUse">
<stop offset="0.6881" stop-color="#E8E8E6"/>
</linearGradient>
<linearGradient id="paint2_linear_3857_654" x1="193.934" y1="425.889" x2="219.036" y2="91.2631" gradientUnits="userSpaceOnUse">
<stop offset="0.0731" stop-color="#E8E8E6"/>
<stop offset="0.9943" stop-color="#E8E8E6"/>
</linearGradient>
<linearGradient id="paint3_linear_3857_654" x1="205.34" y1="167.718" x2="198.126" y2="113.867" gradientUnits="userSpaceOnUse">
<stop offset="0.0731" stop-color="#E8E8E6"/>
<stop offset="1" stop-color="#E8E8E6"/>
</linearGradient>
<linearGradient id="paint4_linear_3857_654" x1="174.104" y1="82.9099" x2="284.224" y2="317.233" gradientUnits="userSpaceOnUse">
<stop offset="0.0731" stop-color="#E8E8E6"/>
<stop offset="1" stop-color="#E8E8E6"/>
</linearGradient>
<linearGradient id="paint5_linear_3857_654" x1="148.854" y1="321.423" x2="281.653" y2="137.214" gradientUnits="userSpaceOnUse">
<stop offset="0.2799" stop-color="#E8E8E6"/>
<stop offset="0.9141" stop-color="#E8E8E6"/>
</linearGradient>
<linearGradient id="paint6_linear_3857_654" x1="328.353" y1="88.6022" x2="623.327" y2="1177.15" gradientUnits="userSpaceOnUse">
<stop stop-color="#E8E8E6"/>
<stop offset="0.9995" stop-color="#E8E8E6"/>
</linearGradient>
<linearGradient id="paint7_linear_3857_654" x1="266.519" y1="52.4875" x2="93.4633" y2="403.353" gradientUnits="userSpaceOnUse">
<stop offset="0.0619" stop-color="#E8E8E6"/>
<stop offset="1" stop-color="#E8E8E6"/>
</linearGradient>
<linearGradient id="paint8_linear_3857_654" x1="147.291" y1="311.992" x2="286.925" y2="216.59" gradientUnits="userSpaceOnUse">
<stop stop-color="#E8E8E6"/>
<stop offset="1" stop-color="#E8E8E6"/>
</linearGradient>
<linearGradient id="paint9_linear_3857_654" x1="111.407" y1="229.792" x2="366.077" y2="229.792" gradientUnits="userSpaceOnUse">
<stop offset="0.9994" stop-color="#E8E8E6"/>
</linearGradient>
<linearGradient id="paint10_linear_3857_654" x1="186.945" y1="196.63" x2="330.33" y2="281.276" gradientUnits="userSpaceOnUse">
<stop offset="0.0019" stop-color="#E8E8E6"/>
<stop offset="1" stop-color="#E8E8E6"/>
</linearGradient>
<linearGradient id="paint11_linear_3857_654" x1="272.165" y1="242.467" x2="740.526" y2="833.14" gradientUnits="userSpaceOnUse">
<stop offset="0.2765" stop-color="#E8E8E6"/>
<stop offset="1" stop-color="#E8E8E6"/>
</linearGradient>
</defs>
</svg>
