<svg xmlns="http://www.w3.org/2000/svg" xmlns:xlink="http://www.w3.org/1999/xlink" width="80" zoomAndPan="magnify" viewBox="0 0 60 60" height="80" preserveAspectRatio="xMidYMid meet" version="1.0"><defs><clipPath id="4b7bee1ebd"><path d="M 0.753906 0 L 40 0 L 40 47 L 0.753906 47 Z M 0.753906 0 " clip-rule="nonzero"/></clipPath><clipPath id="dad734c964"><path d="M 39 0 L 59.253906 0 L 59.253906 20 L 39 20 Z M 39 0 " clip-rule="nonzero"/></clipPath><clipPath id="28f72093b7"><path d="M 39 26 L 59.253906 26 L 59.253906 47 L 39 47 Z M 39 26 " clip-rule="nonzero"/></clipPath><clipPath id="805211714b"><path d="M 0.753906 49 L 11 49 L 11 59.789062 L 0.753906 59.789062 Z M 0.753906 49 " clip-rule="nonzero"/></clipPath><clipPath id="c94d92d6fc"><path d="M 11 53 L 19 53 L 19 59.789062 L 11 59.789062 Z M 11 53 " clip-rule="nonzero"/></clipPath><clipPath id="4b944cbbf5"><path d="M 19 53 L 26 53 L 26 59.789062 L 19 59.789062 Z M 19 53 " clip-rule="nonzero"/></clipPath><clipPath id="eb06760d24"><path d="M 26 49 L 34 49 L 34 59.789062 L 26 59.789062 Z M 26 49 " clip-rule="nonzero"/></clipPath><clipPath id="41136b7c68"><path d="M 34 53 L 41 53 L 41 59.789062 L 34 59.789062 Z M 34 53 " clip-rule="nonzero"/></clipPath><clipPath id="3d05110631"><path d="M 40 53 L 48 53 L 48 59.789062 L 40 59.789062 Z M 40 53 " clip-rule="nonzero"/></clipPath><clipPath id="7a6585cebf"><path d="M 48 49 L 52 49 L 52 59.789062 L 48 59.789062 Z M 48 49 " clip-rule="nonzero"/></clipPath><clipPath id="9a13b24540"><path d="M 52 53 L 59.253906 53 L 59.253906 59.789062 L 52 59.789062 Z M 52 53 " clip-rule="nonzero"/></clipPath></defs><path fill="#d6ce2b" d="M 19.757812 3.015625 L 7.167969 3.015625 L 24.101562 23.425781 L 7.167969 44.375 L 19.757812 44.375 L 36.773438 23.425781 Z M 19.757812 3.015625 " fill-opacity="1" fill-rule="nonzero"/><path fill="#153347" d="M 41.179688 42.152344 L 43.242188 46.539062 L 53.796875 46.550781 L 55.507812 42.148438 Z M 41.179688 42.152344 " fill-opacity="1" fill-rule="nonzero"/><path fill="#ad1d34" d="M 39.34375 4.480469 L 39.496094 0.121094 L 54.140625 0.121094 L 54.140625 4.972656 Z M 39.34375 4.480469 " fill-opacity="1" fill-rule="nonzero"/><path fill="#153347" d="M 35.660156 35.164062 L 32.863281 38.558594 L 39.457031 46.539062 L 45.078125 46.539062 Z M 35.660156 35.164062 " fill-opacity="1" fill-rule="nonzero"/><g clip-path="url(#4b7bee1ebd)"><path fill="#030200" d="M 20.515625 0.121094 L 0.753906 0.121094 L 20.128906 23.355469 L 0.753906 46.597656 L 20.457031 46.597656 L 39.859375 23.328125 Z M 10.054688 4.472656 L 18.46875 4.472656 L 34.214844 23.359375 L 18.46875 42.246094 L 10.058594 42.246094 L 25.804688 23.359375 L 10.058594 4.472656 Z M 10.054688 4.472656 " fill-opacity="1" fill-rule="nonzero"/></g><path fill="#ad1d34" d="M 35.695312 11.4375 L 34.28125 9.746094 L 32.863281 8.050781 L 39.476562 0.121094 L 45.136719 0.121094 Z M 35.695312 11.4375 " fill-opacity="1" fill-rule="nonzero"/><g clip-path="url(#dad734c964)"><path fill="#ad1d34" d="M 39.917969 16.488281 L 42.714844 19.84375 L 59.125 0.121094 L 53.539062 0.121094 Z M 39.917969 16.488281 " fill-opacity="1" fill-rule="nonzero"/></g><g clip-path="url(#28f72093b7)"><path fill="#153347" d="M 53.585938 46.550781 L 59.25 46.550781 L 50.976562 36.632812 L 42.699219 26.714844 L 39.871094 30.113281 Z M 53.585938 46.550781 " fill-opacity="1" fill-rule="nonzero"/></g><g clip-path="url(#805211714b)"><path fill="#030200" d="M 0.753906 54.519531 C 0.753906 53.050781 1.246094 51.8125 2.230469 50.796875 C 3.210938 49.777344 4.394531 49.269531 5.78125 49.269531 C 7.175781 49.269531 8.359375 49.777344 9.332031 50.789062 C 10.308594 51.800781 10.792969 53.042969 10.792969 54.519531 C 10.792969 56.003906 10.316406 57.25 9.355469 58.261719 C 8.398438 59.277344 7.207031 59.78125 5.78125 59.78125 C 4.324219 59.78125 3.121094 59.28125 2.175781 58.277344 C 1.230469 57.269531 0.753906 56.019531 0.753906 54.519531 Z M 3.207031 54.519531 C 3.207031 55.050781 3.289062 55.539062 3.449219 55.976562 C 3.609375 56.414062 3.890625 56.785156 4.292969 57.089844 C 4.699219 57.390625 5.191406 57.542969 5.78125 57.542969 C 6.625 57.542969 7.265625 57.25 7.695312 56.660156 C 8.125 56.070312 8.34375 55.355469 8.34375 54.519531 C 8.34375 53.691406 8.121094 52.980469 7.683594 52.386719 C 7.246094 51.792969 6.609375 51.496094 5.78125 51.496094 C 4.960938 51.496094 4.324219 51.792969 3.878906 52.386719 C 3.429688 52.980469 3.207031 53.691406 3.207031 54.519531 Z M 3.207031 54.519531 " fill-opacity="1" fill-rule="nonzero"/></g><g clip-path="url(#c94d92d6fc)"><path fill="#030200" d="M 11.734375 59.597656 L 11.734375 53.289062 L 13.875 53.289062 L 13.875 53.953125 L 13.898438 53.953125 C 14.453125 53.390625 15.046875 53.105469 15.671875 53.105469 C 15.980469 53.105469 16.285156 53.148438 16.585938 53.230469 C 16.886719 53.3125 17.175781 53.4375 17.457031 53.609375 C 17.734375 53.78125 17.957031 54.027344 18.132812 54.34375 C 18.304688 54.65625 18.390625 55.023438 18.390625 55.441406 L 18.390625 59.597656 L 16.253906 59.597656 L 16.253906 56.03125 C 16.253906 55.703125 16.152344 55.417969 15.945312 55.171875 C 15.738281 54.925781 15.472656 54.804688 15.140625 54.804688 C 14.820312 54.804688 14.527344 54.929688 14.265625 55.183594 C 14.003906 55.4375 13.875 55.71875 13.875 56.03125 L 13.875 59.597656 Z M 11.734375 59.597656 " fill-opacity="1" fill-rule="nonzero"/></g><g clip-path="url(#4b944cbbf5)"><path fill="#030200" d="M 25.929688 56.746094 L 21.433594 56.746094 C 21.433594 57.1875 21.574219 57.515625 21.859375 57.730469 C 22.140625 57.941406 22.445312 58.046875 22.777344 58.046875 C 23.121094 58.046875 23.394531 58 23.597656 57.90625 C 23.800781 57.8125 24.027344 57.625 24.285156 57.347656 L 25.832031 58.132812 C 25.1875 59.234375 24.117188 59.78125 22.617188 59.78125 C 21.683594 59.78125 20.882812 59.457031 20.214844 58.804688 C 19.546875 58.152344 19.210938 57.367188 19.210938 56.449219 C 19.210938 55.53125 19.546875 54.746094 20.214844 54.089844 C 20.882812 53.433594 21.683594 53.105469 22.617188 53.105469 C 23.601562 53.105469 24.402344 53.394531 25.015625 53.972656 C 25.632812 54.550781 25.941406 55.375 25.941406 56.449219 C 25.941406 56.597656 25.9375 56.695312 25.929688 56.746094 Z M 21.496094 55.539062 L 23.851562 55.539062 C 23.804688 55.210938 23.675781 54.960938 23.472656 54.785156 C 23.265625 54.609375 23 54.519531 22.679688 54.519531 C 22.324219 54.519531 22.042969 54.613281 21.835938 54.804688 C 21.625 54.992188 21.511719 55.238281 21.496094 55.539062 Z M 21.496094 55.539062 " fill-opacity="1" fill-rule="nonzero"/></g><g clip-path="url(#eb06760d24)"><path fill="#030200" d="M 26.882812 49.453125 L 29.976562 49.453125 C 30.910156 49.453125 31.65625 49.65625 32.210938 50.0625 C 32.765625 50.46875 33.042969 51.128906 33.042969 52.035156 C 33.042969 53.054688 32.628906 53.777344 31.800781 54.210938 C 33.21875 54.464844 33.925781 55.320312 33.925781 56.769531 C 33.925781 57.621094 33.636719 58.308594 33.054688 58.824219 C 32.476562 59.339844 31.679688 59.597656 30.664062 59.597656 L 26.882812 59.597656 Z M 29.152344 53.425781 L 29.335938 53.425781 C 29.84375 53.425781 30.222656 53.335938 30.46875 53.15625 C 30.71875 52.976562 30.84375 52.679688 30.84375 52.269531 C 30.84375 51.582031 30.339844 51.238281 29.335938 51.238281 L 29.152344 51.238281 Z M 29.152344 57.816406 L 29.867188 57.816406 C 30.976562 57.816406 31.535156 57.4375 31.535156 56.683594 C 31.535156 56.234375 31.394531 55.910156 31.117188 55.714844 C 30.839844 55.515625 30.421875 55.417969 29.867188 55.417969 L 29.152344 55.417969 Z M 29.152344 57.816406 " fill-opacity="1" fill-rule="nonzero"/></g><g clip-path="url(#41136b7c68)"><path fill="#030200" d="M 34.867188 59.597656 L 34.867188 53.289062 L 37.003906 53.289062 L 37.003906 54.199219 L 37.03125 54.199219 C 37.046875 54.167969 37.070312 54.125 37.109375 54.078125 C 37.144531 54.027344 37.222656 53.941406 37.34375 53.820312 C 37.464844 53.695312 37.59375 53.585938 37.730469 53.488281 C 37.867188 53.390625 38.042969 53.300781 38.261719 53.222656 C 38.480469 53.144531 38.699219 53.105469 38.925781 53.105469 C 39.160156 53.105469 39.390625 53.140625 39.613281 53.203125 C 39.839844 53.269531 40.003906 53.335938 40.109375 53.402344 L 40.277344 53.5 L 39.386719 55.34375 C 39.121094 55.113281 38.75 55 38.273438 55 C 38.015625 55 37.792969 55.058594 37.609375 55.171875 C 37.425781 55.285156 37.292969 55.425781 37.214844 55.589844 C 37.140625 55.753906 37.085938 55.894531 37.054688 56.007812 C 37.019531 56.121094 37.003906 56.210938 37.003906 56.277344 L 37.003906 59.597656 Z M 34.867188 59.597656 " fill-opacity="1" fill-rule="nonzero"/></g><g clip-path="url(#3d05110631)"><path fill="#030200" d="M 41.246094 58.816406 C 40.664062 58.171875 40.375 57.382812 40.375 56.449219 C 40.375 55.515625 40.664062 54.726562 41.246094 54.078125 C 41.824219 53.429688 42.5625 53.105469 43.457031 53.105469 C 44.277344 53.105469 44.953125 53.367188 45.484375 53.894531 L 45.484375 53.289062 L 47.625 53.289062 L 47.625 59.597656 L 45.507812 59.597656 L 45.507812 58.882812 L 45.484375 58.882812 C 44.953125 59.484375 44.277344 59.78125 43.457031 59.78125 C 42.5625 59.78125 41.824219 59.460938 41.246094 58.816406 Z M 43.0625 55.378906 C 42.785156 55.660156 42.648438 56.015625 42.648438 56.449219 C 42.648438 56.882812 42.78125 57.238281 43.046875 57.515625 C 43.3125 57.789062 43.660156 57.925781 44.097656 57.925781 C 44.515625 57.925781 44.859375 57.785156 45.128906 57.507812 C 45.398438 57.230469 45.535156 56.875 45.535156 56.449219 C 45.535156 56.015625 45.394531 55.660156 45.117188 55.378906 C 44.839844 55.101562 44.5 54.960938 44.097656 54.960938 C 43.683594 54.960938 43.339844 55.101562 43.0625 55.378906 Z M 43.0625 55.378906 " fill-opacity="1" fill-rule="nonzero"/></g><g clip-path="url(#7a6585cebf)"><path fill="#030200" d="M 49.21875 49.773438 C 49.46875 49.519531 49.765625 49.394531 50.109375 49.394531 C 50.457031 49.394531 50.753906 49.519531 51.003906 49.773438 C 51.253906 50.027344 51.378906 50.332031 51.378906 50.683594 C 51.378906 51.035156 51.253906 51.339844 51.003906 51.59375 C 50.753906 51.847656 50.457031 51.976562 50.109375 51.976562 C 49.765625 51.976562 49.46875 51.847656 49.21875 51.59375 C 48.96875 51.339844 48.84375 51.035156 48.84375 50.683594 C 48.84375 50.332031 48.96875 50.027344 49.21875 49.773438 Z M 49.011719 53.289062 L 49.011719 59.597656 L 51.148438 59.597656 L 51.148438 53.289062 Z M 49.011719 53.289062 " fill-opacity="1" fill-rule="nonzero"/></g><g clip-path="url(#9a13b24540)"><path fill="#030200" d="M 52.597656 59.597656 L 52.597656 53.289062 L 54.738281 53.289062 L 54.738281 53.953125 L 54.761719 53.953125 C 55.316406 53.390625 55.910156 53.105469 56.539062 53.105469 C 56.84375 53.105469 57.148438 53.148438 57.449219 53.230469 C 57.75 53.3125 58.042969 53.4375 58.320312 53.609375 C 58.597656 53.78125 58.824219 54.027344 58.996094 54.34375 C 59.167969 54.65625 59.253906 55.023438 59.253906 55.441406 L 59.253906 59.597656 L 57.117188 59.597656 L 57.117188 56.03125 C 57.117188 55.703125 57.015625 55.417969 56.808594 55.171875 C 56.605469 54.925781 56.335938 54.804688 56.007812 54.804688 C 55.683594 54.804688 55.390625 54.929688 55.128906 55.183594 C 54.867188 55.4375 54.738281 55.71875 54.738281 56.03125 L 54.738281 59.597656 Z M 52.597656 59.597656 " fill-opacity="1" fill-rule="nonzero"/></g></svg>