<svg width="57" height="20" viewBox="0 0 57 20" fill="none" xmlns="http://www.w3.org/2000/svg">
<path d="M6.10156 3.625V15H3.76562V3.625H6.10156ZM9.60156 3.625V5.46094H0.320312V3.625H9.60156ZM12.5 8.39062V15H10.25V6.54688H12.3672L12.5 8.39062ZM15.0469 6.49219L15.0078 8.57812C14.8984 8.5625 14.7656 8.54948 14.6094 8.53906C14.4583 8.52344 14.3203 8.51562 14.1953 8.51562C13.8776 8.51562 13.6016 8.55729 13.3672 8.64062C13.138 8.71875 12.9453 8.83594 12.7891 8.99219C12.638 9.14844 12.5234 9.33854 12.4453 9.5625C12.3724 9.78646 12.3307 10.0417 12.3203 10.3281L11.8672 10.1875C11.8672 9.64062 11.9219 9.13802 12.0312 8.67969C12.1406 8.21615 12.2995 7.8125 12.5078 7.46875C12.7214 7.125 12.9818 6.85938 13.2891 6.67188C13.5964 6.48438 13.9479 6.39062 14.3438 6.39062C14.4688 6.39062 14.5964 6.40104 14.7266 6.42188C14.8568 6.4375 14.9635 6.46094 15.0469 6.49219ZM18.7578 14.0469L21 6.54688H23.4141L20.0156 16.2734C19.9427 16.487 19.8438 16.7161 19.7188 16.9609C19.599 17.2057 19.4349 17.4375 19.2266 17.6562C19.0234 17.8802 18.7656 18.0625 18.4531 18.2031C18.1458 18.3438 17.7682 18.4141 17.3203 18.4141C17.1068 18.4141 16.9323 18.401 16.7969 18.375C16.6615 18.349 16.5 18.3125 16.3125 18.2656V16.6172C16.3698 16.6172 16.4297 16.6172 16.4922 16.6172C16.5547 16.6224 16.6146 16.625 16.6719 16.625C16.9688 16.625 17.2109 16.5911 17.3984 16.5234C17.5859 16.4557 17.737 16.3516 17.8516 16.2109C17.9661 16.0755 18.0573 15.8984 18.125 15.6797L18.7578 14.0469ZM17.8203 6.54688L19.6562 12.6719L19.9766 15.0547L18.4453 15.2188L15.4062 6.54688H17.8203Z" fill="white"/>
<path d="M30.2224 7.60314V17.8008H28V5.95888H30.0603L30.2224 7.60314ZM35.5083 10.1407V10.3067C35.5083 10.9286 35.4362 11.5057 35.2922 12.038C35.1532 12.5701 34.9475 13.034 34.6749 13.4292C34.4022 13.8192 34.0627 14.1248 33.6563 14.3461C33.255 14.5623 32.792 14.6703 32.2673 14.6703C31.758 14.6703 31.3156 14.5649 30.94 14.3541C30.5645 14.1433 30.2482 13.8482 29.9909 13.4688C29.7388 13.084 29.5357 12.6387 29.3812 12.1328C29.2269 11.6269 29.1086 11.084 29.0263 10.5043V10.0695C29.1086 9.44766 29.2269 8.8785 29.3812 8.36203C29.5357 7.8403 29.7388 7.3897 29.9909 7.01026C30.2482 6.62554 30.5619 6.32779 30.9323 6.11698C31.3079 5.90618 31.7477 5.80078 32.2518 5.80078C32.7817 5.80078 33.2473 5.90354 33.6485 6.10908C34.0549 6.31461 34.3945 6.60973 34.6672 6.99444C34.945 7.37917 35.1532 7.83766 35.2922 8.36994C35.4362 8.90221 35.5083 9.49246 35.5083 10.1407ZM33.2782 10.3067V10.1407C33.2782 9.77704 33.2473 9.4424 33.1856 9.13673C33.1289 8.82579 33.0364 8.55439 32.9078 8.3225C32.7843 8.09062 32.6197 7.91144 32.4139 7.78496C32.2132 7.6532 31.9689 7.58733 31.6809 7.58733C31.3773 7.58733 31.1175 7.63739 30.9014 7.73753C30.6906 7.83766 30.5182 7.98259 30.3844 8.17231C30.2507 8.36203 30.1504 8.58864 30.0835 8.85215C30.0166 9.11565 29.9754 9.41341 29.96 9.74542V10.8442C29.9857 11.2343 30.0577 11.5846 30.1761 11.8956C30.2944 12.2012 30.4771 12.4437 30.724 12.6229C30.971 12.8021 31.295 12.8916 31.6962 12.8916C31.9895 12.8916 32.2364 12.8258 32.4371 12.694C32.6377 12.557 32.7998 12.37 32.9231 12.1328C33.0518 11.8956 33.1418 11.6215 33.1933 11.3106C33.2498 10.9997 33.2782 10.6651 33.2782 10.3067ZM39.1119 7.82449V14.5122H36.8895V5.95888H38.9808L39.1119 7.82449ZM41.6275 5.90354L41.5889 8.01421C41.4809 7.9984 41.3497 7.98522 41.1954 7.97468C41.0462 7.95887 40.9098 7.95096 40.7864 7.95096C40.4726 7.95096 40.1999 7.99313 39.9685 8.07745C39.742 8.1565 39.5517 8.27508 39.3974 8.43317C39.2482 8.59128 39.1351 8.78363 39.0579 9.01025C38.9858 9.23686 38.9447 9.4951 38.9344 9.78495L38.4869 9.64265C38.4869 9.0893 38.5409 8.58074 38.6489 8.11698C38.7569 7.64794 38.9138 7.23951 39.1196 6.89169C39.3306 6.54386 39.5877 6.27508 39.8913 6.08536C40.1948 5.89564 40.542 5.80078 40.9329 5.80078C41.0564 5.80078 41.1825 5.81132 41.3111 5.8324C41.4397 5.84821 41.5452 5.87192 41.6275 5.90354ZM42.0904 10.3225V10.1565C42.0904 9.52935 42.1779 8.95228 42.3529 8.42527C42.5277 7.89299 42.7824 7.43187 43.1168 7.04188C43.4511 6.65189 43.8627 6.34887 44.3515 6.1328C44.8401 5.91145 45.4009 5.80078 46.0336 5.80078C46.6664 5.80078 47.2298 5.91145 47.7236 6.1328C48.2175 6.34887 48.6315 6.65189 48.966 7.04188C49.3054 7.43187 49.5627 7.89299 49.7377 8.42527C49.9125 8.95228 50 9.52935 50 10.1565V10.3225C50 10.9444 49.9125 11.5214 49.7377 12.0537C49.5627 12.5808 49.3054 13.0418 48.966 13.4371C48.6315 13.8271 48.2201 14.1301 47.7313 14.3461C47.2426 14.5623 46.6818 14.6703 46.0491 14.6703C45.4163 14.6703 44.853 14.5623 44.3592 14.3461C43.8705 14.1301 43.4563 13.8271 43.1168 13.4371C42.7824 13.0418 42.5277 12.5808 42.3529 12.0537C42.1779 11.5214 42.0904 10.9444 42.0904 10.3225ZM44.3129 10.1565V10.3225C44.3129 10.6809 44.3437 11.0155 44.4054 11.3264C44.4672 11.6374 44.5649 11.9114 44.6987 12.1486C44.8375 12.3805 45.0176 12.5623 45.2388 12.694C45.4601 12.8258 45.7301 12.8916 46.0491 12.8916C46.3577 12.8916 46.6227 12.8258 46.8439 12.694C47.0651 12.5623 47.2426 12.3805 47.3764 12.1486C47.51 11.9114 47.6078 11.6374 47.6695 11.3264C47.7365 11.0155 47.7699 10.6809 47.7699 10.3225V10.1565C47.7699 9.80867 47.7365 9.48193 47.6695 9.17625C47.6078 8.86532 47.5076 8.59128 47.3686 8.35412C47.2348 8.1117 47.0574 7.92198 46.8361 7.78496C46.615 7.64794 46.3475 7.57942 46.0336 7.57942C45.7198 7.57942 45.4523 7.64794 45.2312 7.78496C45.0151 7.92198 44.8375 8.1117 44.6987 8.35412C44.5649 8.59128 44.4672 8.86532 44.4054 9.17625C44.3437 9.48193 44.3129 9.80867 44.3129 10.1565Z" fill="url(#paint0_linear_6072_81)"/>
<path d="M46.8662 17.8008H32.461H27L46.8662 16.2888C48.0228 16.2888 49.0951 16.0552 50.0533 15.594C51.071 15.1091 51.9081 14.3663 52.4771 13.4441L52.4799 13.4397C53.0445 12.5392 53.3308 11.4831 53.3308 10.3006C53.3308 9.11817 53.0449 8.06302 52.4806 7.16278L52.4779 7.1587C51.9081 6.23588 51.071 5.49274 50.0571 5.00953C49.0951 4.54671 48.0224 4.31278 46.8658 4.31278L27 6.01507L34.4667 4.94364L46.8658 2.80078C48.1556 2.80077 49.6348 3.09428 50.8373 3.6728C52.1338 4.29053 53.2055 5.24031 53.9331 6.41807C54.641 7.54847 55 8.85446 55 10.3006C55 11.7468 54.6407 13.054 53.9324 14.1845C53.2055 15.3612 52.1338 16.3107 50.8332 16.9304C49.6345 17.5073 48.2989 17.8008 46.8662 17.8008Z" fill="url(#paint1_linear_6072_81)"/>
<defs>
<linearGradient id="paint0_linear_6072_81" x1="39" y1="5.80078" x2="39" y2="17.8008" gradientUnits="userSpaceOnUse">
<stop stop-color="#22D3EE"/>
<stop offset="1" stop-color="#60A5FA"/>
</linearGradient>
<linearGradient id="paint1_linear_6072_81" x1="31.9778" y1="2.80077" x2="31.9778" y2="17.8008" gradientUnits="userSpaceOnUse">
<stop stop-color="#22D3EE"/>
<stop offset="1" stop-color="white"/>
</linearGradient>
</defs>
</svg>
