<svg width="16" height="15" viewBox="0 0 16 15" fill="none" xmlns="http://www.w3.org/2000/svg">
<path d="M13.2812 0.216017L15.7812 2.71602C16.075 3.00977 16.075 3.48477 15.7812 3.77539L13.2812 6.27539C12.9875 6.56914 12.5125 6.56914 12.2219 6.27539C11.9313 5.98164 11.9281 5.50664 12.2219 5.21602L13.4406 3.99727H11C10.6062 3.99727 10.2375 4.18164 10 4.49727L8.5625 6.41289L7.625 5.16289L8.8 3.59727C9.31875 2.90352 10.1344 2.49727 11 2.49727H13.4406L12.2188 1.27852C11.925 0.984767 11.925 0.509767 12.2188 0.219142C12.5125 -0.0714828 12.9875 -0.0746078 13.2781 0.219142L13.2812 0.216017ZM6.375 9.33164L5.2 10.8973C4.68125 11.591 3.86562 11.9973 3 11.9973H0.75C0.334375 11.9973 0 11.6629 0 11.2473C0 10.8316 0.334375 10.4973 0.75 10.4973H3C3.39375 10.4973 3.7625 10.3129 4 9.99727L5.4375 8.08164L6.375 9.33164ZM12.2188 8.21602C12.5125 7.92227 12.9875 7.92227 13.2781 8.21602L15.7781 10.716C16.0719 11.0098 16.0719 11.4848 15.7781 11.7754L13.2781 14.2754C12.9844 14.5691 12.5094 14.5691 12.2188 14.2754C11.9281 13.9816 11.925 13.5066 12.2188 13.216L13.4375 11.9973H11C10.1344 11.9973 9.31875 11.591 8.8 10.8973L4 4.49727C3.7625 4.18164 3.39375 3.99727 3 3.99727H0.75C0.334375 3.99727 0 3.66289 0 3.24727C0 2.83164 0.334375 2.49727 0.75 2.49727H3C3.86562 2.49727 4.68125 2.90352 5.2 3.59727L10 9.99727C10.2375 10.3129 10.6062 10.4973 11 10.4973H13.4406L12.2219 9.27852C11.9281 8.98477 11.9281 8.50977 12.2219 8.21914L12.2188 8.21602Z" fill="white"/>
</svg>
