<svg width="14" height="14" viewBox="0 0 14 14" fill="none" xmlns="http://www.w3.org/2000/svg">
<g clip-path="url(#clip0_5758_53936)">
<path d="M9.9927 8.30464C9.82645 8.22589 9.0302 7.83214 8.88145 7.77089C8.7327 7.70964 8.6277 7.69214 8.51395 7.85839C8.4002 8.02464 8.09395 8.38339 7.9977 8.49714C7.90145 8.61089 7.81395 8.61964 7.6477 8.49714C7.17019 8.30551 6.72918 8.03321 6.34395 7.69214C5.99522 7.3638 5.69998 6.98295 5.46895 6.56339C5.3727 6.40589 5.46895 6.31839 5.53895 6.23089C5.60895 6.14339 5.69645 6.04714 5.78395 5.95089C5.84793 5.86765 5.90087 5.77647 5.94145 5.67964C5.96315 5.6346 5.97443 5.58525 5.97443 5.53526C5.97443 5.48527 5.96315 5.43592 5.94145 5.39089C5.94145 5.31214 5.57395 4.51589 5.43395 4.19214C5.29395 3.86839 5.17145 3.91214 5.0752 3.91214H4.7252C4.55847 3.91864 4.40113 3.99101 4.2877 4.11339C4.10461 4.2881 3.95959 4.49875 3.86172 4.73213C3.76385 4.96551 3.71524 5.21659 3.71895 5.46964C3.7637 6.09087 3.99213 6.68477 4.3752 7.17589C5.07815 8.22014 6.03986 9.06428 7.16645 9.62589C7.55145 9.79214 7.84895 9.88839 8.0852 9.96714C8.41695 10.0674 8.76761 10.0884 9.10895 10.0284C9.33565 9.98239 9.5505 9.89032 9.74015 9.75786C9.9298 9.62541 10.0902 9.4554 10.2114 9.25839C10.3123 9.01509 10.3456 8.74904 10.3077 8.48839C10.2639 8.42714 10.1589 8.38339 9.9927 8.30464Z" fill="white"/>
<path d="M11.6286 2.34522C11.0235 1.73437 10.3022 1.25088 9.50718 0.923273C8.7122 0.595663 7.85967 0.430568 6.99986 0.437723C5.86087 0.443683 4.74338 0.748376 3.75899 1.32137C2.7746 1.89436 1.95778 2.7156 1.3901 3.70306C0.822417 4.69052 0.523752 5.80965 0.52393 6.94865C0.524109 8.08766 0.823124 9.20669 1.39111 10.194L0.516113 13.5627L3.96361 12.6877C4.91669 13.2063 5.98482 13.4771 7.06986 13.4752H6.99986C8.29304 13.4836 9.55943 13.1067 10.6375 12.3925C11.7156 11.6783 12.5566 10.6592 13.0532 9.46518C13.5498 8.27112 13.6795 6.95621 13.4258 5.68814C13.172 4.42007 12.5464 3.25629 11.6286 2.34522ZM6.99986 12.3552C6.0291 12.356 5.07638 12.0929 4.24361 11.594L4.05111 11.4802L2.00361 12.014L2.54611 10.019L2.42361 9.81772C1.7248 8.69233 1.4634 7.34957 1.68901 6.04421C1.91461 4.73885 2.61153 3.56172 3.64753 2.73616C4.68354 1.9106 5.98654 1.49404 7.30932 1.56553C8.6321 1.63701 9.88262 2.19157 10.8236 3.12397C11.3281 3.62438 11.7279 4.22018 11.9998 4.87666C12.2717 5.53314 12.4103 6.23717 12.4074 6.94772C12.405 8.38117 11.8346 9.75524 10.821 10.7688C9.80739 11.7824 8.43331 12.3529 6.99986 12.3552Z" fill="white"/>
</g>
<defs>
<clipPath id="clip0_5758_53936">
<rect width="14" height="14" fill="white"/>
</clipPath>
</defs>
</svg>
