<svg width="17" height="17" viewBox="0 0 17 17" fill="none" xmlns="http://www.w3.org/2000/svg">
<path d="M16.8335 8.55117C16.814 6.96315 16.3411 5.41376 15.4705 4.08549C14.5999 2.75722 13.3679 1.70538 11.9196 1.05385C10.4711 0.402315 8.86674 0.178232 7.29528 0.407971C5.72386 0.637721 4.25077 1.31172 3.04955 2.35063C1.84833 3.38952 0.968982 4.75004 0.515076 6.27195C0.0611803 7.79388 0.0516176 9.41377 0.487534 10.941C0.923451 12.4681 1.78668 13.8389 2.97557 14.8919C4.16444 15.9449 5.62947 16.6363 7.1981 16.8845V10.9783H5.11477V8.55117H7.1981V6.70742C7.14987 6.27873 7.19633 5.84466 7.33424 5.43587C7.47216 5.02708 7.6981 4.65353 7.99612 4.34161C8.29414 4.02967 8.65695 3.78695 9.05903 3.63059C9.46112 3.47421 9.89268 3.40799 10.3231 3.43662C10.9479 3.44517 11.5712 3.50089 12.1877 3.60328V5.68662H11.146C10.9664 5.66396 10.7839 5.68196 10.6123 5.73928C10.4405 5.79661 10.2838 5.89178 10.1538 6.01778C10.0238 6.14378 9.92383 6.29739 9.86122 6.46721C9.79851 6.63711 9.77487 6.81888 9.79185 6.99909V8.572H12.1043L11.7293 10.9991H9.80226V16.8324C11.7709 16.5211 13.5628 15.5144 14.8528 13.995C16.1428 12.4756 16.8455 10.5443 16.8335 8.55117Z" fill="white"/>
</svg>
