<svg width="29" height="26" viewBox="0 0 29 26" fill="none" xmlns="http://www.w3.org/2000/svg">
<g clip-path="url(#clip0_6913_6279)">
<g clip-path="url(#clip1_6913_6279)">
<g clip-path="url(#clip2_6913_6279)">
<path d="M14.1105 1.02344C17.2775 1.02344 17.6748 1.03733 18.9185 1.09408C20.1597 1.15073 21.0079 1.34701 21.7496 1.63526C22.5165 1.93326 23.167 2.3326 23.8152 2.9808C24.4635 3.62908 24.8628 4.27959 25.1609 5.0464C25.4491 5.78824 25.6464 6.63629 25.7031 7.8776C25.7599 9.12154 25.7737 9.51919 25.7737 12.6866C25.7737 15.8536 25.7598 16.251 25.7031 17.4946C25.6464 18.7359 25.4491 19.584 25.1609 20.3259C24.8628 21.0928 24.4637 21.7431 23.8152 22.3914C23.1669 23.0399 22.5166 23.4389 21.7496 23.737C21.0079 24.0252 20.1598 24.2226 18.9185 24.2793C17.6748 24.336 17.2775 24.3499 14.1105 24.3499C10.943 24.3499 10.5454 24.336 9.30143 24.2793C8.06009 24.2226 7.21207 24.0254 6.47021 23.737C5.7034 23.439 5.05291 23.0398 4.40462 22.3914C3.75642 21.7431 3.35709 21.0926 3.05908 20.3259C2.77084 19.5841 2.57456 18.7358 2.5179 17.4946C2.46116 16.251 2.44727 15.8537 2.44727 12.6866C2.44727 9.51919 2.46114 9.12154 2.5179 7.8776C2.57458 6.63632 2.77076 5.78824 3.05908 5.0464C3.35713 4.27951 3.75628 3.62914 4.40462 2.9808C5.05297 2.33246 5.70332 1.93331 6.47021 1.63526C7.21207 1.34694 8.0601 1.15076 9.30143 1.09408C10.5454 1.03732 10.943 1.02344 14.1105 1.02344ZM14.1105 3.12549C10.9963 3.12549 10.627 3.1366 9.39713 3.19271C8.26018 3.24463 7.64222 3.43523 7.23128 3.5949C6.68718 3.80642 6.29825 4.05853 5.8903 4.46648C5.48234 4.87444 5.2302 5.2634 5.01872 5.80746C4.85901 6.21844 4.66845 6.83638 4.61653 7.97332C4.56043 9.20312 4.54818 9.57253 4.54818 12.6866C4.54818 15.8004 4.56044 16.1694 4.61653 17.3989C4.66842 18.536 4.85899 19.1538 5.01872 19.5648C5.23019 20.109 5.48237 20.4978 5.8903 20.9058C6.2983 21.3138 6.68708 21.567 7.23128 21.7785C7.64221 21.9382 8.26018 22.1277 9.39713 22.1796C10.6268 22.2357 10.9962 22.2479 14.1105 22.2479C17.2244 22.2479 17.5934 22.2356 18.8227 22.1796C19.9597 22.1277 20.5776 21.9382 20.9886 21.7785C21.533 21.567 21.9215 21.3139 22.3296 20.9058C22.7377 20.4977 22.9907 20.1091 23.2023 19.5648C23.362 19.1538 23.5514 18.5358 23.6034 17.3989C23.6595 16.1694 23.6717 15.8004 23.6717 12.6866C23.6717 9.57253 23.6595 9.20317 23.6034 7.97332C23.5514 6.83641 23.362 6.21844 23.2023 5.80746C22.9909 5.2633 22.7376 4.87449 22.3296 4.46648C21.9216 4.05856 21.5328 3.80642 20.9886 3.5949C20.5776 3.43522 19.9599 3.24461 18.8227 3.19271C17.5933 3.13662 17.2241 3.12549 14.1105 3.12549ZM14.1105 6.69728C17.418 6.69743 20.0988 9.3791 20.0988 12.6866C20.0986 15.9941 17.4179 18.6748 14.1105 18.675C10.8029 18.675 8.12126 15.9943 8.12109 12.6866C8.12109 9.37901 10.8028 6.69728 14.1105 6.69728ZM14.1105 8.79819C11.9634 8.79819 10.222 10.5396 10.222 12.6866C10.2222 14.8337 11.9635 16.5741 14.1105 16.5741C16.2573 16.5739 17.9978 14.8335 17.9979 12.6866C17.9979 10.5397 16.2574 8.79835 14.1105 8.79819ZM20.3358 5.0612C21.1086 5.0612 21.7358 5.68754 21.736 6.46029C21.736 7.23325 21.1088 7.86052 20.3358 7.86052C19.563 7.86041 18.9367 7.23318 18.9367 6.46029C18.9369 5.68761 19.5631 5.06132 20.3358 5.0612Z" fill="white"/>
</g>
</g>
</g>
<defs>
<clipPath id="clip0_6913_6279">
<rect x="0.109375" y="0.765625" width="28" height="25" rx="4" fill="white"/>
</clipPath>
<clipPath id="clip1_6913_6279">
<rect width="28" height="33" fill="white" transform="translate(0.109375 -1.3125)"/>
</clipPath>
<clipPath id="clip2_6913_6279">
<rect width="28" height="28" fill="white" transform="translate(0.109375 -1.3125)"/>
</clipPath>
</defs>
</svg>
