<svg width="12" height="10" viewBox="0 0 12 10" fill="none" xmlns="http://www.w3.org/2000/svg">
<path fill-rule="evenodd" clip-rule="evenodd" d="M11.5573 2.03045C11.5573 1.34485 10.9061 0.789062 10.1027 0.789062H2.34517C1.54185 0.789062 0.890625 1.34485 0.890625 2.03045V8.6512C0.890625 9.33682 1.54185 9.89259 2.34517 9.89259H10.1027C10.9061 9.89259 11.5573 9.33682 11.5573 8.6512V2.03045ZM10.5876 2.03045C10.5876 1.80192 10.3705 1.61666 10.1027 1.61666H2.34517C2.0774 1.61666 1.86032 1.80192 1.86032 2.03045V8.6512C1.86032 8.87974 2.0774 9.065 2.34517 9.065H10.1027C10.3705 9.065 10.5876 8.87974 10.5876 8.6512V2.03045Z" fill="url(#paint0_linear_5389_6606)"/>
<path d="M2.72424 7.69292L4.82683 4.05964C5.0115 3.74054 5.49764 3.74054 5.6823 4.05964L7.22612 6.72738L7.7549 5.85521C7.94194 5.54669 8.41387 5.54669 8.60091 5.85521L9.71027 7.68502C9.89586 7.99114 9.66131 8.37208 9.28722 8.37208H3.15197C2.78214 8.37208 2.54715 7.99895 2.72424 7.69292Z" fill="url(#paint1_linear_5389_6606)"/>
<path d="M8.88715 3.81332C8.88715 4.23229 8.4892 4.57194 7.99826 4.57194C7.50733 4.57194 7.10938 4.23229 7.10938 3.81332C7.10938 3.39434 7.50733 3.05469 7.99826 3.05469C8.4892 3.05469 8.88715 3.39434 8.88715 3.81332Z" fill="url(#paint2_linear_5389_6606)"/>
<defs>
<linearGradient id="paint0_linear_5389_6606" x1="6.22396" y1="0.789062" x2="6.22396" y2="9.89259" gradientUnits="userSpaceOnUse">
<stop offset="0.15" stop-color="#BA87FC"/>
<stop offset="0.9" stop-color="#6BA2FB"/>
</linearGradient>
<linearGradient id="paint1_linear_5389_6606" x1="6.21962" y1="3.82031" x2="6.21962" y2="8.37208" gradientUnits="userSpaceOnUse">
<stop offset="0.15" stop-color="#BA87FC"/>
<stop offset="0.9" stop-color="#6BA2FB"/>
</linearGradient>
<linearGradient id="paint2_linear_5389_6606" x1="7.99826" y1="3.05469" x2="7.99826" y2="4.57194" gradientUnits="userSpaceOnUse">
<stop offset="0.15" stop-color="#BA87FC"/>
<stop offset="0.9" stop-color="#6BA2FB"/>
</linearGradient>
</defs>
</svg>
