<svg width="22" height="18" viewBox="0 0 22 18" fill="none" xmlns="http://www.w3.org/2000/svg">
<path d="M17.2907 12.2911C16.9686 12.6807 16.9674 13.3138 17.2878 13.7053C17.6082 14.0968 18.129 14.0984 18.4511 13.7089L17.2907 12.2911ZM21.7579 9.70893C22.0799 9.31933 22.0812 8.68613 21.7608 8.29466C21.4403 7.90319 20.9195 7.90159 20.5975 8.29106L21.7579 9.70893ZM20.5975 9.70893C20.9195 10.0984 21.4403 10.0968 21.7608 9.70533C22.0812 9.31386 22.0799 8.68066 21.7579 8.29106L20.5975 9.70893ZM18.4511 4.29105C18.129 3.90159 17.6082 3.90319 17.2878 4.29465C16.9674 4.68612 16.9686 5.31932 17.2907 5.70892L18.4511 4.29105ZM21.1777 10C21.632 10 22.0002 9.55226 22.0002 8.99999C22.0002 8.44773 21.632 7.99999 21.1777 7.99999V10ZM5.82282 7.99999C5.36854 7.99999 5.00024 8.44773 5.00024 8.99999C5.00024 9.55226 5.36854 10 5.82282 10V7.99999ZM18.4511 13.7089L21.7579 9.70893L20.5975 8.29106L17.2907 12.2911L18.4511 13.7089ZM21.7579 8.29106L18.4511 4.29105L17.2907 5.70892L20.5975 9.70893L21.7579 8.29106ZM21.1777 7.99999H5.82282V10H21.1777V7.99999Z" fill="white"/>
<path d="M14.3604 5.63984C14.3604 3.16565 12.3545 1.15984 9.88035 1.15984H5.40035C2.92616 1.15984 0.920351 3.16565 0.920351 5.63984V12.3598C0.920351 14.8341 2.92616 16.8398 5.40035 16.8398H9.88035C12.3545 16.8398 14.3604 14.8341 14.3604 12.3598" stroke="white" stroke-width="1.8" stroke-linecap="round" stroke-linejoin="round"/>
</svg>
