<svg width="19045" height="2837" viewBox="0 0 19045 2837" fill="none" xmlns="http://www.w3.org/2000/svg">
<g filter="url(#filter0_ddd_5327_66632)">
<path d="M3438.26 1404.79C3438.26 1012.19 3569.27 679.899 3831.31 407.984C4093.33 136.013 4409.07 0 4778.53 0C5150.12 0 5465.86 135.462 5725.75 406.33C5985.69 677.225 6115.67 1010.04 6115.67 1404.79C6115.67 1801.83 5987.84 2135.79 5732.22 2406.66C5476.66 2677.56 5158.76 2812.99 4778.53 2812.99C4389.79 2812.99 4069.22 2678.66 3816.84 2409.97C3564.43 2141.23 3438.26 1806.16 3438.26 1404.79ZM4092.3 1404.79C4092.3 1547.42 4113.79 1677.36 4156.77 1794.69C4199.75 1912.01 4274.9 2011.25 4382.24 2092.41C4489.62 2173.56 4621.74 2214.14 4778.53 2214.14C5004.05 2214.14 5174.28 2135.19 5289.18 1977.29C5404.12 1819.39 5461.62 1628.57 5461.62 1404.79C5461.62 1183.32 5403.1 993.054 5286.04 834.051C5168.99 674.993 4999.81 595.436 4778.53 595.436C4559.46 595.436 4390.33 674.993 4271.12 834.051C4151.91 993.054 4092.3 1183.32 4092.3 1404.79Z" fill="white"/>
</g>
<g filter="url(#filter1_ddd_5327_66632)">
<path d="M6366.8 2824.62V1136.89H6937.06V1314.53H6943.53C7091.74 1163.19 7249.61 1087.49 7417.14 1087.49C7498.78 1087.49 7579.87 1098.49 7660.43 1120.46C7740.98 1142.37 7818.3 1176.36 7892.37 1222.45C7966.45 1268.49 8026.54 1333.71 8072.7 1418.18C8118.92 1502.58 8142.03 1600.72 8142.03 1712.59V2824.62H7571.77V1870.49C7571.77 1782.8 7544.37 1706.05 7489.6 1640.25C7434.88 1574.48 7363.48 1541.56 7275.36 1541.56C7189.46 1541.56 7111.61 1575.58 7041.8 1643.56C6971.96 1711.48 6937.06 1787.13 6937.06 1870.49V2824.62H6366.8Z" fill="white"/>
</g>
<g filter="url(#filter2_ddd_5327_66632)">
<path d="M10152.5 2000.41H8953.87C8953.87 2118.84 8991.45 2206.58 9066.6 2263.62C9141.81 2320.68 9223.45 2349.18 9311.51 2349.18C9403.86 2349.18 9476.88 2336.59 9530.6 2311.36C9584.3 2286.08 9645.52 2236.16 9714.28 2161.62L10126.7 2372.12C9954.81 2666.09 9669.14 2813.07 9269.61 2813.07C9020.44 2813.07 8806.72 2725.91 8628.41 2551.52C8450.16 2377.08 8361.05 2167.08 8361.05 1921.46C8361.05 1675.79 8450.16 1465.24 8628.41 1289.75C8806.72 1114.29 9020.44 1026.55 9269.61 1026.55C9531.63 1026.55 9744.78 1103.9 9909.08 1258.54C10073.4 1413.14 10155.6 1634.11 10155.6 1921.46C10155.6 1960.94 10154.5 1987.26 10152.5 2000.41ZM8969.96 1678H9598.31C9585.4 1590.22 9551.58 1522.8 9496.8 1475.66C9442 1428.46 9371.65 1404.87 9285.7 1404.87C9191.24 1404.87 9116.09 1430.12 9060.23 1480.62C9004.35 1531.07 8974.28 1596.84 8969.96 1678Z" fill="white"/>
</g>
<g filter="url(#filter3_ddd_5327_66632)">
<path d="M10406.8 110.423H11231.5C11480.8 110.423 11679.5 164.729 11827.6 273.286C11975.8 381.87 12049.9 557.882 12049.9 801.349C12049.9 1073.35 11939.3 1267.44 11718.1 1383.66C12096.1 1451.67 12285.1 1679.78 12285.1 2067.97C12285.1 2296.17 12207.8 2479.35 12053.2 2617.54C11898.5 2755.67 11685.9 2824.73 11415.2 2824.73H10406.8V110.423ZM11012.6 1173.17H11060.8C11196.2 1173.17 11297.1 1149.07 11363.7 1100.83C11430.3 1052.53 11463.6 973.557 11463.6 863.87C11463.6 679.671 11329.3 587.544 11060.8 587.544H11012.6V1173.17ZM11012.6 2347.72H11202.6C11499 2347.72 11647.2 2246.82 11647.2 2045.04C11647.2 1924.41 11610.1 1837.79 11536.1 1785.14C11462 1732.43 11350.8 1706.08 11202.6 1706.08H11012.6V2347.72Z" fill="white"/>
</g>
<g filter="url(#filter4_ddd_5327_66632)">
<path d="M12536.4 2824.62V1136.89H13106.6V1380.36H13113.1C13117.4 1371.53 13124.4 1360.56 13134.1 1347.39C13143.7 1334.24 13164.6 1311.22 13196.8 1278.36C13229 1245.44 13263.4 1215.81 13299.9 1189.48C13336.5 1163.19 13383.7 1139.62 13441.7 1118.8C13499.7 1097.94 13558.8 1087.49 13618.9 1087.49C13681.2 1087.49 13742.5 1096.28 13802.6 1113.84C13862.8 1131.35 13906.8 1148.88 13934.6 1166.44L13979.8 1192.79L13741.4 1686.23C13670.5 1624.87 13571.7 1594.16 13444.9 1594.16C13376.2 1594.16 13317.1 1609.54 13267.7 1640.25C13218.3 1670.91 13183.4 1708.18 13163 1752.06C13142.6 1795.95 13128.1 1833.27 13119.5 1863.98C13110.9 1894.64 13106.6 1918.76 13106.6 1936.32V2824.62H12536.4Z" fill="white"/>
</g>
<g filter="url(#filter5_ddd_5327_66632)">
<path d="M14237.3 2554.83C14082.7 2382.6 14005.4 2171.49 14005.4 1921.46C14005.4 1671.38 14082.7 1459.72 14237.3 1286.44C14392 1113.19 14588.6 1026.55 14827 1026.55C15046.1 1026.55 15226.5 1096.76 15368.2 1237.15V1075.94H15938.5V2763.67H15374.7V2572.8H15368.2C15226.5 2732.99 15046.1 2813.07 14827 2813.07C14588.6 2813.07 14392 2727.01 14237.3 2554.83ZM14722.3 1635.21C14648.2 1709.75 14611.2 1805.19 14611.2 1921.46C14611.2 2037.68 14646.6 2132.57 14717.4 2206.06C14788.3 2279.5 14881.8 2316.22 14997.7 2316.22C15109.4 2316.22 15201.3 2278.95 15273.2 2204.41C15345.2 2129.81 15381.2 2035.48 15381.2 1921.46C15381.2 1805.19 15344.1 1709.75 15270 1635.21C15195.9 1560.62 15105.1 1523.29 14997.7 1523.29C14888.2 1523.29 14796.4 1560.62 14722.3 1635.21Z" fill="url(#paint0_linear_5327_66632)"/>
</g>
<g filter="url(#filter6_ddd_5327_66632)">
<path d="M16363.6 195.893C16430.2 127.914 16509.6 93.8975 16602 93.8975C16694.4 93.8975 16773.8 127.914 16840.4 195.893C16907 263.9 16940.3 345.056 16940.3 439.36C16940.3 533.693 16907 614.849 16840.4 682.827C16773.8 750.834 16694.4 784.823 16602 784.823C16509.6 784.823 16430.2 750.834 16363.6 682.827C16297.1 614.849 16263.8 533.693 16263.8 439.36C16263.8 345.056 16297.1 263.9 16363.6 195.893ZM16308.9 1136.9V2824.63H16879.1V1136.9H16308.9Z" fill="url(#paint1_linear_5327_66632)"/>
</g>
<g filter="url(#filter7_ddd_5327_66632)">
<path d="M17265.7 2824.69V1136.96H17835.9V1314.6H17842.4C17990.6 1163.26 18148.5 1087.56 18316 1087.56C18397.7 1087.56 18478.8 1098.56 18559.3 1120.53C18639.9 1142.45 18717.2 1176.44 18791.3 1222.53C18865.3 1268.56 18925.4 1333.79 18971.6 1418.25C19017.8 1502.66 19040.9 1600.8 19040.9 1712.66V2824.69H18470.7V1870.56C18470.7 1782.87 18443.3 1706.13 18388.5 1640.33C18333.8 1574.55 18262.4 1541.64 18174.3 1541.64C18088.4 1541.64 18010.5 1575.66 17940.7 1643.63C17870.9 1711.56 17835.9 1787.2 17835.9 1870.56V2824.69H17265.7Z" fill="white"/>
</g>
<path d="M1156.89 176.157H501.686H393.035L1420.28 1418.6L393.035 2693.87H1156.89L2189.07 1418.6L1156.89 176.157Z" fill="#D6CE2B"/>
<g filter="url(#filter8_ddd_5327_66632)">
<path d="M1202.9 0H4.07031L1179.32 1414.24L4.07031 2829H1199.23L2376.32 1412.67L1202.9 0ZM568.242 264.924H1078.7L2033.83 1414.5L1078.7 2564.08H568.504L1523.64 1414.5L568.504 264.924H568.242Z" fill="white"/>
</g>
<path d="M2447.59 2592.51L1942.95 2336.74L2542 1609.66C2755.54 1865.15 3039.02 2570.77 3048.18 2575.35C3057.33 2579.92 2651.6 2588.69 2447.59 2592.51Z" fill="#153347"/>
<g filter="url(#filter9_ddd_5327_66632)">
<path d="M2349.94 2825.99L1942.95 2336.7L2116.72 2126.35L2464.26 2547.05L2962.7 2533.33L2368.23 1819.96L2542 1609.61L3548.03 2825.99H2349.94Z" fill="white"/>
</g>
<path d="M2452.16 238.115L1947.53 493.878L2546.57 1220.96C2760.11 965.475 3043.6 259.85 3052.75 255.274C3061.9 250.698 2656.17 241.928 2452.16 238.115Z" fill="#AD1D34"/>
<g filter="url(#filter10_ddd_5327_66632)">
<path d="M2354.51 4.55029L1947.53 493.846L2121.29 704.198L2468.83 283.495L2967.27 297.213L2372.8 1010.58L2546.57 1220.93L3552.6 4.55029H2354.51Z" fill="white"/>
</g>
<defs>
<filter id="filter0_ddd_5327_66632" x="3434.26" y="0" width="2685.41" height="2820.99" filterUnits="userSpaceOnUse" color-interpolation-filters="sRGB">
<feFlood flood-opacity="0" result="BackgroundImageFix"/>
<feColorMatrix in="SourceAlpha" type="matrix" values="0 0 0 0 0 0 0 0 0 0 0 0 0 0 0 0 0 0 127 0" result="hardAlpha"/>
<feOffset dy="4"/>
<feGaussianBlur stdDeviation="2"/>
<feComposite in2="hardAlpha" operator="out"/>
<feColorMatrix type="matrix" values="0 0 0 0 0 0 0 0 0 0 0 0 0 0 0 0 0 0 0.25 0"/>
<feBlend mode="normal" in2="BackgroundImageFix" result="effect1_dropShadow_5327_66632"/>
<feColorMatrix in="SourceAlpha" type="matrix" values="0 0 0 0 0 0 0 0 0 0 0 0 0 0 0 0 0 0 127 0" result="hardAlpha"/>
<feOffset dy="4"/>
<feGaussianBlur stdDeviation="2"/>
<feComposite in2="hardAlpha" operator="out"/>
<feColorMatrix type="matrix" values="0 0 0 0 0 0 0 0 0 0 0 0 0 0 0 0 0 0 0.25 0"/>
<feBlend mode="normal" in2="effect1_dropShadow_5327_66632" result="effect2_dropShadow_5327_66632"/>
<feColorMatrix in="SourceAlpha" type="matrix" values="0 0 0 0 0 0 0 0 0 0 0 0 0 0 0 0 0 0 127 0" result="hardAlpha"/>
<feOffset dy="4"/>
<feGaussianBlur stdDeviation="2"/>
<feComposite in2="hardAlpha" operator="out"/>
<feColorMatrix type="matrix" values="0 0 0 0 0 0 0 0 0 0 0 0 0 0 0 0 0 0 0.25 0"/>
<feBlend mode="normal" in2="effect2_dropShadow_5327_66632" result="effect3_dropShadow_5327_66632"/>
<feBlend mode="normal" in="SourceGraphic" in2="effect3_dropShadow_5327_66632" result="shape"/>
</filter>
<filter id="filter1_ddd_5327_66632" x="6362.8" y="1087.49" width="1783.22" height="1745.13" filterUnits="userSpaceOnUse" color-interpolation-filters="sRGB">
<feFlood flood-opacity="0" result="BackgroundImageFix"/>
<feColorMatrix in="SourceAlpha" type="matrix" values="0 0 0 0 0 0 0 0 0 0 0 0 0 0 0 0 0 0 127 0" result="hardAlpha"/>
<feOffset dy="4"/>
<feGaussianBlur stdDeviation="2"/>
<feComposite in2="hardAlpha" operator="out"/>
<feColorMatrix type="matrix" values="0 0 0 0 0 0 0 0 0 0 0 0 0 0 0 0 0 0 0.25 0"/>
<feBlend mode="normal" in2="BackgroundImageFix" result="effect1_dropShadow_5327_66632"/>
<feColorMatrix in="SourceAlpha" type="matrix" values="0 0 0 0 0 0 0 0 0 0 0 0 0 0 0 0 0 0 127 0" result="hardAlpha"/>
<feOffset dy="4"/>
<feGaussianBlur stdDeviation="2"/>
<feComposite in2="hardAlpha" operator="out"/>
<feColorMatrix type="matrix" values="0 0 0 0 0 0 0 0 0 0 0 0 0 0 0 0 0 0 0.25 0"/>
<feBlend mode="normal" in2="effect1_dropShadow_5327_66632" result="effect2_dropShadow_5327_66632"/>
<feColorMatrix in="SourceAlpha" type="matrix" values="0 0 0 0 0 0 0 0 0 0 0 0 0 0 0 0 0 0 127 0" result="hardAlpha"/>
<feOffset dy="4"/>
<feGaussianBlur stdDeviation="2"/>
<feComposite in2="hardAlpha" operator="out"/>
<feColorMatrix type="matrix" values="0 0 0 0 0 0 0 0 0 0 0 0 0 0 0 0 0 0 0.25 0"/>
<feBlend mode="normal" in2="effect2_dropShadow_5327_66632" result="effect3_dropShadow_5327_66632"/>
<feBlend mode="normal" in="SourceGraphic" in2="effect3_dropShadow_5327_66632" result="shape"/>
</filter>
<filter id="filter2_ddd_5327_66632" x="8357.05" y="1026.55" width="1802.55" height="1794.53" filterUnits="userSpaceOnUse" color-interpolation-filters="sRGB">
<feFlood flood-opacity="0" result="BackgroundImageFix"/>
<feColorMatrix in="SourceAlpha" type="matrix" values="0 0 0 0 0 0 0 0 0 0 0 0 0 0 0 0 0 0 127 0" result="hardAlpha"/>
<feOffset dy="4"/>
<feGaussianBlur stdDeviation="2"/>
<feComposite in2="hardAlpha" operator="out"/>
<feColorMatrix type="matrix" values="0 0 0 0 0 0 0 0 0 0 0 0 0 0 0 0 0 0 0.25 0"/>
<feBlend mode="normal" in2="BackgroundImageFix" result="effect1_dropShadow_5327_66632"/>
<feColorMatrix in="SourceAlpha" type="matrix" values="0 0 0 0 0 0 0 0 0 0 0 0 0 0 0 0 0 0 127 0" result="hardAlpha"/>
<feOffset dy="4"/>
<feGaussianBlur stdDeviation="2"/>
<feComposite in2="hardAlpha" operator="out"/>
<feColorMatrix type="matrix" values="0 0 0 0 0 0 0 0 0 0 0 0 0 0 0 0 0 0 0.25 0"/>
<feBlend mode="normal" in2="effect1_dropShadow_5327_66632" result="effect2_dropShadow_5327_66632"/>
<feColorMatrix in="SourceAlpha" type="matrix" values="0 0 0 0 0 0 0 0 0 0 0 0 0 0 0 0 0 0 127 0" result="hardAlpha"/>
<feOffset dy="4"/>
<feGaussianBlur stdDeviation="2"/>
<feComposite in2="hardAlpha" operator="out"/>
<feColorMatrix type="matrix" values="0 0 0 0 0 0 0 0 0 0 0 0 0 0 0 0 0 0 0.25 0"/>
<feBlend mode="normal" in2="effect2_dropShadow_5327_66632" result="effect3_dropShadow_5327_66632"/>
<feBlend mode="normal" in="SourceGraphic" in2="effect3_dropShadow_5327_66632" result="shape"/>
</filter>
<filter id="filter3_ddd_5327_66632" x="10402.8" y="110.423" width="1886.34" height="2722.3" filterUnits="userSpaceOnUse" color-interpolation-filters="sRGB">
<feFlood flood-opacity="0" result="BackgroundImageFix"/>
<feColorMatrix in="SourceAlpha" type="matrix" values="0 0 0 0 0 0 0 0 0 0 0 0 0 0 0 0 0 0 127 0" result="hardAlpha"/>
<feOffset dy="4"/>
<feGaussianBlur stdDeviation="2"/>
<feComposite in2="hardAlpha" operator="out"/>
<feColorMatrix type="matrix" values="0 0 0 0 0 0 0 0 0 0 0 0 0 0 0 0 0 0 0.25 0"/>
<feBlend mode="normal" in2="BackgroundImageFix" result="effect1_dropShadow_5327_66632"/>
<feColorMatrix in="SourceAlpha" type="matrix" values="0 0 0 0 0 0 0 0 0 0 0 0 0 0 0 0 0 0 127 0" result="hardAlpha"/>
<feOffset dy="4"/>
<feGaussianBlur stdDeviation="2"/>
<feComposite in2="hardAlpha" operator="out"/>
<feColorMatrix type="matrix" values="0 0 0 0 0 0 0 0 0 0 0 0 0 0 0 0 0 0 0.25 0"/>
<feBlend mode="normal" in2="effect1_dropShadow_5327_66632" result="effect2_dropShadow_5327_66632"/>
<feColorMatrix in="SourceAlpha" type="matrix" values="0 0 0 0 0 0 0 0 0 0 0 0 0 0 0 0 0 0 127 0" result="hardAlpha"/>
<feOffset dy="4"/>
<feGaussianBlur stdDeviation="2"/>
<feComposite in2="hardAlpha" operator="out"/>
<feColorMatrix type="matrix" values="0 0 0 0 0 0 0 0 0 0 0 0 0 0 0 0 0 0 0.25 0"/>
<feBlend mode="normal" in2="effect2_dropShadow_5327_66632" result="effect3_dropShadow_5327_66632"/>
<feBlend mode="normal" in="SourceGraphic" in2="effect3_dropShadow_5327_66632" result="shape"/>
</filter>
<filter id="filter4_ddd_5327_66632" x="12532.4" y="1087.49" width="1451.39" height="1745.13" filterUnits="userSpaceOnUse" color-interpolation-filters="sRGB">
<feFlood flood-opacity="0" result="BackgroundImageFix"/>
<feColorMatrix in="SourceAlpha" type="matrix" values="0 0 0 0 0 0 0 0 0 0 0 0 0 0 0 0 0 0 127 0" result="hardAlpha"/>
<feOffset dy="4"/>
<feGaussianBlur stdDeviation="2"/>
<feComposite in2="hardAlpha" operator="out"/>
<feColorMatrix type="matrix" values="0 0 0 0 0 0 0 0 0 0 0 0 0 0 0 0 0 0 0.25 0"/>
<feBlend mode="normal" in2="BackgroundImageFix" result="effect1_dropShadow_5327_66632"/>
<feColorMatrix in="SourceAlpha" type="matrix" values="0 0 0 0 0 0 0 0 0 0 0 0 0 0 0 0 0 0 127 0" result="hardAlpha"/>
<feOffset dy="4"/>
<feGaussianBlur stdDeviation="2"/>
<feComposite in2="hardAlpha" operator="out"/>
<feColorMatrix type="matrix" values="0 0 0 0 0 0 0 0 0 0 0 0 0 0 0 0 0 0 0.25 0"/>
<feBlend mode="normal" in2="effect1_dropShadow_5327_66632" result="effect2_dropShadow_5327_66632"/>
<feColorMatrix in="SourceAlpha" type="matrix" values="0 0 0 0 0 0 0 0 0 0 0 0 0 0 0 0 0 0 127 0" result="hardAlpha"/>
<feOffset dy="4"/>
<feGaussianBlur stdDeviation="2"/>
<feComposite in2="hardAlpha" operator="out"/>
<feColorMatrix type="matrix" values="0 0 0 0 0 0 0 0 0 0 0 0 0 0 0 0 0 0 0.25 0"/>
<feBlend mode="normal" in2="effect2_dropShadow_5327_66632" result="effect3_dropShadow_5327_66632"/>
<feBlend mode="normal" in="SourceGraphic" in2="effect3_dropShadow_5327_66632" result="shape"/>
</filter>
<filter id="filter5_ddd_5327_66632" x="14001.4" y="1026.55" width="1941.09" height="1794.53" filterUnits="userSpaceOnUse" color-interpolation-filters="sRGB">
<feFlood flood-opacity="0" result="BackgroundImageFix"/>
<feColorMatrix in="SourceAlpha" type="matrix" values="0 0 0 0 0 0 0 0 0 0 0 0 0 0 0 0 0 0 127 0" result="hardAlpha"/>
<feOffset dy="4"/>
<feGaussianBlur stdDeviation="2"/>
<feComposite in2="hardAlpha" operator="out"/>
<feColorMatrix type="matrix" values="0 0 0 0 0 0 0 0 0 0 0 0 0 0 0 0 0 0 0.25 0"/>
<feBlend mode="normal" in2="BackgroundImageFix" result="effect1_dropShadow_5327_66632"/>
<feColorMatrix in="SourceAlpha" type="matrix" values="0 0 0 0 0 0 0 0 0 0 0 0 0 0 0 0 0 0 127 0" result="hardAlpha"/>
<feOffset dy="4"/>
<feGaussianBlur stdDeviation="2"/>
<feComposite in2="hardAlpha" operator="out"/>
<feColorMatrix type="matrix" values="0 0 0 0 0 0 0 0 0 0 0 0 0 0 0 0 0 0 0.25 0"/>
<feBlend mode="normal" in2="effect1_dropShadow_5327_66632" result="effect2_dropShadow_5327_66632"/>
<feColorMatrix in="SourceAlpha" type="matrix" values="0 0 0 0 0 0 0 0 0 0 0 0 0 0 0 0 0 0 127 0" result="hardAlpha"/>
<feOffset dy="4"/>
<feGaussianBlur stdDeviation="2"/>
<feComposite in2="hardAlpha" operator="out"/>
<feColorMatrix type="matrix" values="0 0 0 0 0 0 0 0 0 0 0 0 0 0 0 0 0 0 0.25 0"/>
<feBlend mode="normal" in2="effect2_dropShadow_5327_66632" result="effect3_dropShadow_5327_66632"/>
<feBlend mode="normal" in="SourceGraphic" in2="effect3_dropShadow_5327_66632" result="shape"/>
</filter>
<filter id="filter6_ddd_5327_66632" x="16259.8" y="93.8975" width="684.508" height="2738.73" filterUnits="userSpaceOnUse" color-interpolation-filters="sRGB">
<feFlood flood-opacity="0" result="BackgroundImageFix"/>
<feColorMatrix in="SourceAlpha" type="matrix" values="0 0 0 0 0 0 0 0 0 0 0 0 0 0 0 0 0 0 127 0" result="hardAlpha"/>
<feOffset dy="4"/>
<feGaussianBlur stdDeviation="2"/>
<feComposite in2="hardAlpha" operator="out"/>
<feColorMatrix type="matrix" values="0 0 0 0 0 0 0 0 0 0 0 0 0 0 0 0 0 0 0.25 0"/>
<feBlend mode="normal" in2="BackgroundImageFix" result="effect1_dropShadow_5327_66632"/>
<feColorMatrix in="SourceAlpha" type="matrix" values="0 0 0 0 0 0 0 0 0 0 0 0 0 0 0 0 0 0 127 0" result="hardAlpha"/>
<feOffset dy="4"/>
<feGaussianBlur stdDeviation="2"/>
<feComposite in2="hardAlpha" operator="out"/>
<feColorMatrix type="matrix" values="0 0 0 0 0 0 0 0 0 0 0 0 0 0 0 0 0 0 0.25 0"/>
<feBlend mode="normal" in2="effect1_dropShadow_5327_66632" result="effect2_dropShadow_5327_66632"/>
<feColorMatrix in="SourceAlpha" type="matrix" values="0 0 0 0 0 0 0 0 0 0 0 0 0 0 0 0 0 0 127 0" result="hardAlpha"/>
<feOffset dy="4"/>
<feGaussianBlur stdDeviation="2"/>
<feComposite in2="hardAlpha" operator="out"/>
<feColorMatrix type="matrix" values="0 0 0 0 0 0 0 0 0 0 0 0 0 0 0 0 0 0 0.25 0"/>
<feBlend mode="normal" in2="effect2_dropShadow_5327_66632" result="effect3_dropShadow_5327_66632"/>
<feBlend mode="normal" in="SourceGraphic" in2="effect3_dropShadow_5327_66632" result="shape"/>
</filter>
<filter id="filter7_ddd_5327_66632" x="17261.7" y="1087.56" width="1783.22" height="1745.13" filterUnits="userSpaceOnUse" color-interpolation-filters="sRGB">
<feFlood flood-opacity="0" result="BackgroundImageFix"/>
<feColorMatrix in="SourceAlpha" type="matrix" values="0 0 0 0 0 0 0 0 0 0 0 0 0 0 0 0 0 0 127 0" result="hardAlpha"/>
<feOffset dy="4"/>
<feGaussianBlur stdDeviation="2"/>
<feComposite in2="hardAlpha" operator="out"/>
<feColorMatrix type="matrix" values="0 0 0 0 0 0 0 0 0 0 0 0 0 0 0 0 0 0 0.25 0"/>
<feBlend mode="normal" in2="BackgroundImageFix" result="effect1_dropShadow_5327_66632"/>
<feColorMatrix in="SourceAlpha" type="matrix" values="0 0 0 0 0 0 0 0 0 0 0 0 0 0 0 0 0 0 127 0" result="hardAlpha"/>
<feOffset dy="4"/>
<feGaussianBlur stdDeviation="2"/>
<feComposite in2="hardAlpha" operator="out"/>
<feColorMatrix type="matrix" values="0 0 0 0 0 0 0 0 0 0 0 0 0 0 0 0 0 0 0.25 0"/>
<feBlend mode="normal" in2="effect1_dropShadow_5327_66632" result="effect2_dropShadow_5327_66632"/>
<feColorMatrix in="SourceAlpha" type="matrix" values="0 0 0 0 0 0 0 0 0 0 0 0 0 0 0 0 0 0 127 0" result="hardAlpha"/>
<feOffset dy="4"/>
<feGaussianBlur stdDeviation="2"/>
<feComposite in2="hardAlpha" operator="out"/>
<feColorMatrix type="matrix" values="0 0 0 0 0 0 0 0 0 0 0 0 0 0 0 0 0 0 0.25 0"/>
<feBlend mode="normal" in2="effect2_dropShadow_5327_66632" result="effect3_dropShadow_5327_66632"/>
<feBlend mode="normal" in="SourceGraphic" in2="effect3_dropShadow_5327_66632" result="shape"/>
</filter>
<filter id="filter8_ddd_5327_66632" x="0.0703125" y="0" width="2380.25" height="2837" filterUnits="userSpaceOnUse" color-interpolation-filters="sRGB">
<feFlood flood-opacity="0" result="BackgroundImageFix"/>
<feColorMatrix in="SourceAlpha" type="matrix" values="0 0 0 0 0 0 0 0 0 0 0 0 0 0 0 0 0 0 127 0" result="hardAlpha"/>
<feOffset dy="4"/>
<feGaussianBlur stdDeviation="2"/>
<feComposite in2="hardAlpha" operator="out"/>
<feColorMatrix type="matrix" values="0 0 0 0 0 0 0 0 0 0 0 0 0 0 0 0 0 0 0.25 0"/>
<feBlend mode="normal" in2="BackgroundImageFix" result="effect1_dropShadow_5327_66632"/>
<feColorMatrix in="SourceAlpha" type="matrix" values="0 0 0 0 0 0 0 0 0 0 0 0 0 0 0 0 0 0 127 0" result="hardAlpha"/>
<feOffset dy="4"/>
<feGaussianBlur stdDeviation="2"/>
<feComposite in2="hardAlpha" operator="out"/>
<feColorMatrix type="matrix" values="0 0 0 0 0 0 0 0 0 0 0 0 0 0 0 0 0 0 0.25 0"/>
<feBlend mode="normal" in2="effect1_dropShadow_5327_66632" result="effect2_dropShadow_5327_66632"/>
<feColorMatrix in="SourceAlpha" type="matrix" values="0 0 0 0 0 0 0 0 0 0 0 0 0 0 0 0 0 0 127 0" result="hardAlpha"/>
<feOffset dy="4"/>
<feGaussianBlur stdDeviation="2"/>
<feComposite in2="hardAlpha" operator="out"/>
<feColorMatrix type="matrix" values="0 0 0 0 0 0 0 0 0 0 0 0 0 0 0 0 0 0 0.25 0"/>
<feBlend mode="normal" in2="effect2_dropShadow_5327_66632" result="effect3_dropShadow_5327_66632"/>
<feBlend mode="normal" in="SourceGraphic" in2="effect3_dropShadow_5327_66632" result="shape"/>
</filter>
<filter id="filter9_ddd_5327_66632" x="1938.95" y="1609.61" width="1613.07" height="1224.38" filterUnits="userSpaceOnUse" color-interpolation-filters="sRGB">
<feFlood flood-opacity="0" result="BackgroundImageFix"/>
<feColorMatrix in="SourceAlpha" type="matrix" values="0 0 0 0 0 0 0 0 0 0 0 0 0 0 0 0 0 0 127 0" result="hardAlpha"/>
<feOffset dy="4"/>
<feGaussianBlur stdDeviation="2"/>
<feComposite in2="hardAlpha" operator="out"/>
<feColorMatrix type="matrix" values="0 0 0 0 0 0 0 0 0 0 0 0 0 0 0 0 0 0 0.25 0"/>
<feBlend mode="normal" in2="BackgroundImageFix" result="effect1_dropShadow_5327_66632"/>
<feColorMatrix in="SourceAlpha" type="matrix" values="0 0 0 0 0 0 0 0 0 0 0 0 0 0 0 0 0 0 127 0" result="hardAlpha"/>
<feOffset dy="4"/>
<feGaussianBlur stdDeviation="2"/>
<feComposite in2="hardAlpha" operator="out"/>
<feColorMatrix type="matrix" values="0 0 0 0 0 0 0 0 0 0 0 0 0 0 0 0 0 0 0.25 0"/>
<feBlend mode="normal" in2="effect1_dropShadow_5327_66632" result="effect2_dropShadow_5327_66632"/>
<feColorMatrix in="SourceAlpha" type="matrix" values="0 0 0 0 0 0 0 0 0 0 0 0 0 0 0 0 0 0 127 0" result="hardAlpha"/>
<feOffset dy="4"/>
<feGaussianBlur stdDeviation="2"/>
<feComposite in2="hardAlpha" operator="out"/>
<feColorMatrix type="matrix" values="0 0 0 0 0 0 0 0 0 0 0 0 0 0 0 0 0 0 0.25 0"/>
<feBlend mode="normal" in2="effect2_dropShadow_5327_66632" result="effect3_dropShadow_5327_66632"/>
<feBlend mode="normal" in="SourceGraphic" in2="effect3_dropShadow_5327_66632" result="shape"/>
</filter>
<filter id="filter10_ddd_5327_66632" x="1943.53" y="4.55029" width="1613.07" height="1224.38" filterUnits="userSpaceOnUse" color-interpolation-filters="sRGB">
<feFlood flood-opacity="0" result="BackgroundImageFix"/>
<feColorMatrix in="SourceAlpha" type="matrix" values="0 0 0 0 0 0 0 0 0 0 0 0 0 0 0 0 0 0 127 0" result="hardAlpha"/>
<feOffset dy="4"/>
<feGaussianBlur stdDeviation="2"/>
<feComposite in2="hardAlpha" operator="out"/>
<feColorMatrix type="matrix" values="0 0 0 0 0 0 0 0 0 0 0 0 0 0 0 0 0 0 0.25 0"/>
<feBlend mode="normal" in2="BackgroundImageFix" result="effect1_dropShadow_5327_66632"/>
<feColorMatrix in="SourceAlpha" type="matrix" values="0 0 0 0 0 0 0 0 0 0 0 0 0 0 0 0 0 0 127 0" result="hardAlpha"/>
<feOffset dy="4"/>
<feGaussianBlur stdDeviation="2"/>
<feComposite in2="hardAlpha" operator="out"/>
<feColorMatrix type="matrix" values="0 0 0 0 0 0 0 0 0 0 0 0 0 0 0 0 0 0 0.25 0"/>
<feBlend mode="normal" in2="effect1_dropShadow_5327_66632" result="effect2_dropShadow_5327_66632"/>
<feColorMatrix in="SourceAlpha" type="matrix" values="0 0 0 0 0 0 0 0 0 0 0 0 0 0 0 0 0 0 127 0" result="hardAlpha"/>
<feOffset dy="4"/>
<feGaussianBlur stdDeviation="2"/>
<feComposite in2="hardAlpha" operator="out"/>
<feColorMatrix type="matrix" values="0 0 0 0 0 0 0 0 0 0 0 0 0 0 0 0 0 0 0.25 0"/>
<feBlend mode="normal" in2="effect2_dropShadow_5327_66632" result="effect3_dropShadow_5327_66632"/>
<feBlend mode="normal" in="SourceGraphic" in2="effect3_dropShadow_5327_66632" result="shape"/>
</filter>
<linearGradient id="paint0_linear_5327_66632" x1="14971.9" y1="1026.55" x2="14971.9" y2="2813.07" gradientUnits="userSpaceOnUse">
<stop stop-color="#22D3EE"/>
<stop offset="1" stop-color="#60A5FA"/>
</linearGradient>
<linearGradient id="paint1_linear_5327_66632" x1="16602.1" y1="93.8975" x2="16602.1" y2="2824.63" gradientUnits="userSpaceOnUse">
<stop stop-color="#22D3EE"/>
<stop offset="1" stop-color="#60A5FA"/>
</linearGradient>
</defs>
</svg>
