<svg width="8" height="8" viewBox="0 0 8 8" fill="none" xmlns="http://www.w3.org/2000/svg">
<path d="M2.35949 3.76619C2.25009 3.65679 2.07231 3.65679 1.96291 3.76619C1.85351 3.87559 1.85351 4.05337 1.96291 4.16277L3.25522 5.45508C3.30992 5.50978 3.3783 5.53713 3.45351 5.53713C3.46035 5.53713 3.46035 5.53713 3.46718 5.53713C3.5424 5.53029 3.61761 5.4961 3.67231 5.43457L6.9065 1.55764C7.00223 1.4414 6.98855 1.26363 6.87231 1.16106C6.75607 1.06533 6.57829 1.07901 6.47573 1.19525L3.433 4.83969L2.35949 3.76619Z" fill="#656FE2"/>
<path d="M6.09279 0.634125C4.52014 -0.350491 2.50305 -0.118012 1.19022 1.19481C-0.355075 2.74011 -0.355075 5.26318 1.19022 6.80848C1.96287 7.58113 2.98168 7.97088 3.99364 7.97088C5.00561 7.97088 6.02441 7.58113 6.79706 6.80848C8.11672 5.48883 8.34236 3.46489 7.35091 1.89224C7.26886 1.76233 7.09792 1.7213 6.968 1.80336C6.83809 1.88541 6.79706 2.05635 6.87911 2.18626C7.73381 3.54011 7.53552 5.27686 6.40048 6.4119C5.07399 7.7384 2.90646 7.7384 1.57997 6.4119C0.253472 5.08541 0.253472 2.91789 1.57997 1.59139C2.71501 0.463184 4.44493 0.264894 5.79877 1.10592C5.92869 1.18797 6.09963 1.14695 6.18168 1.01703C6.26373 0.887116 6.2227 0.716176 6.09279 0.634125Z" fill="#BA87FC"/>
</svg>
