<svg width="28" height="16" viewBox="0 0 28 16" fill="none" xmlns="http://www.w3.org/2000/svg">
<path d="M3.22243 5.59923V15.7969H1V3.95498H3.06033L3.22243 5.59923ZM8.50826 8.13678V8.30278C8.50826 8.92465 8.43624 9.50176 8.29221 10.0341C8.15325 10.5662 7.94746 11.0301 7.67485 11.4253C7.40224 11.8153 7.06269 12.1209 6.65631 12.3422C6.25502 12.5584 5.79197 12.6664 5.2673 12.6664C4.75797 12.6664 4.31558 12.561 3.94002 12.3502C3.56446 12.1394 3.24817 11.8443 2.99091 11.4649C2.73884 11.0801 2.53565 10.6348 2.38123 10.1289C2.22692 9.62295 2.10862 9.08014 2.02633 8.50041V8.06562C2.10862 7.44376 2.22692 6.8746 2.38123 6.35812C2.53565 5.83639 2.73884 5.3858 2.99091 5.00636C3.24817 4.62163 3.56187 4.32388 3.93235 4.11307C4.30791 3.90227 4.7477 3.79688 5.25183 3.79688C5.7817 3.79688 6.24734 3.89963 6.64853 4.10517C7.0549 4.3107 7.39445 4.60583 7.66718 4.99054C7.94498 5.37526 8.15325 5.83375 8.29221 6.36603C8.43624 6.8983 8.50826 7.48856 8.50826 8.13678ZM6.27816 8.30278V8.13678C6.27816 7.77313 6.24734 7.43849 6.18559 7.13282C6.12893 6.82189 6.03636 6.55048 5.90779 6.3186C5.7843 6.08672 5.61971 5.90753 5.41393 5.78106C5.21323 5.64929 4.96895 5.58343 4.68087 5.58343C4.37733 5.58343 4.11747 5.63349 3.90142 5.73362C3.69055 5.83375 3.51818 5.97868 3.38442 6.1684C3.25065 6.35812 3.15041 6.58473 3.08347 6.84824C3.01664 7.11174 2.97544 7.4095 2.95998 7.74152V8.84032C2.98571 9.23035 3.05773 9.58074 3.17615 9.8917C3.29445 10.1973 3.47709 10.4398 3.72397 10.619C3.97095 10.7982 4.29504 10.8877 4.69622 10.8877C4.98949 10.8877 5.23637 10.8219 5.43707 10.6901C5.63766 10.553 5.79976 10.3661 5.92314 10.1289C6.05183 9.8917 6.1418 9.61763 6.19327 9.30668C6.24982 8.9958 6.27816 8.66115 6.27816 8.30278ZM12.1119 5.82058V12.5083H9.88949V3.95498H11.9808L12.1119 5.82058ZM14.6275 3.89963L14.5889 6.0103C14.4809 5.99449 14.3497 5.98131 14.1954 5.97078C14.0462 5.95497 13.9098 5.94706 13.7864 5.94706C13.4726 5.94706 13.1999 5.98922 12.9685 6.07354C12.742 6.1526 12.5517 6.27117 12.3974 6.42927C12.2482 6.58737 12.1351 6.77973 12.0579 7.00635C11.9858 7.23296 11.9447 7.49119 11.9344 7.78104L11.4869 7.63875C11.4869 7.0854 11.5409 6.57683 11.6489 6.11307C11.7569 5.64403 11.9138 5.2356 12.1196 4.88778C12.3306 4.53996 12.5877 4.27117 12.8913 4.08145C13.1948 3.89173 13.542 3.79688 13.9329 3.79688C14.0564 3.79688 14.1825 3.80741 14.3111 3.82849C14.4397 3.8443 14.5452 3.86802 14.6275 3.89963ZM15.0904 8.31859V8.15259C15.0904 7.52544 15.1779 6.94838 15.3529 6.42137C15.5277 5.88909 15.7824 5.42796 16.1168 5.03797C16.4511 4.64799 16.8627 4.34496 17.3515 4.12889C17.8401 3.90754 18.4009 3.79688 19.0336 3.79688C19.6664 3.79688 20.2298 3.90754 20.7236 4.12889C21.2175 4.34496 21.6315 4.64799 21.966 5.03797C22.3054 5.42796 22.5627 5.88909 22.7377 6.42137C22.9125 6.94838 23 7.52544 23 8.15259V8.31859C23 8.94045 22.9125 9.51749 22.7377 10.0498C22.5627 10.5769 22.3054 11.0379 21.966 11.4332C21.6315 11.8232 21.2201 12.1262 20.7313 12.3422C20.2426 12.5584 19.6818 12.6664 19.0491 12.6664C18.4163 12.6664 17.853 12.5584 17.3592 12.3422C16.8705 12.1262 16.4563 11.8232 16.1168 11.4332C15.7824 11.0379 15.5277 10.5769 15.3529 10.0498C15.1779 9.51749 15.0904 8.94045 15.0904 8.31859ZM17.3129 8.15259V8.31859C17.3129 8.67696 17.3437 9.01161 17.4054 9.32252C17.4672 9.63348 17.5649 9.90754 17.6987 10.1447C17.8375 10.3766 18.0176 10.5584 18.2388 10.6901C18.4601 10.8219 18.7301 10.8877 19.0491 10.8877C19.3577 10.8877 19.6227 10.8219 19.8439 10.6901C20.0651 10.5584 20.2426 10.3766 20.3764 10.1447C20.51 9.90754 20.6078 9.63348 20.6695 9.32252C20.7365 9.01161 20.7699 8.67696 20.7699 8.31859V8.15259C20.7699 7.80476 20.7365 7.47802 20.6695 7.17235C20.6078 6.86141 20.5076 6.58737 20.3686 6.35021C20.2348 6.1078 20.0574 5.91808 19.8361 5.78106C19.615 5.64403 19.3475 5.57552 19.0336 5.57552C18.7198 5.57552 18.4523 5.64403 18.2312 5.78106C18.0151 5.91808 17.8375 6.1078 17.6987 6.35021C17.5649 6.58737 17.4672 6.86141 17.4054 7.17235C17.3437 7.47802 17.3129 7.80476 17.3129 8.15259Z" fill="url(#paint0_linear_5251_6)"/>
<path d="M19.8662 15.7969H5.461H0L19.8662 14.2849C21.0228 14.2849 22.0951 14.0513 23.0533 13.5901C24.071 13.1052 24.9081 12.3624 25.4771 11.4402L25.4799 11.4358C26.0445 10.5353 26.3308 9.47919 26.3308 8.29672C26.3308 7.11427 26.0449 6.05911 25.4806 5.15888L25.4779 5.1548C24.9081 4.23197 24.071 3.48883 23.0571 3.00563C22.0951 2.5428 21.0224 2.30888 19.8658 2.30888L0 4.01116L7.46667 2.93973L19.8658 0.796875C21.1556 0.796864 22.6348 1.09037 23.8373 1.66889C25.1338 2.28662 26.2055 3.2364 26.9331 4.41416C27.641 5.54456 28 6.85056 28 8.29672C28 9.74287 27.6407 11.0501 26.9324 12.1806C26.2055 13.3573 25.1338 14.3068 23.8332 14.9264C22.6345 15.5034 21.2989 15.7969 19.8662 15.7969Z" fill="url(#paint1_linear_5251_6)"/>
<defs>
<linearGradient id="paint0_linear_5251_6" x1="12" y1="3.79687" x2="12" y2="15.7969" gradientUnits="userSpaceOnUse">
<stop stop-color="#22D3EE"/>
<stop offset="1" stop-color="#60A5FA"/>
</linearGradient>
<linearGradient id="paint1_linear_5251_6" x1="4.97778" y1="0.796864" x2="4.97778" y2="15.7969" gradientUnits="userSpaceOnUse">
<stop stop-color="#22D3EE"/>
<stop offset="1" stop-color="white"/>
</linearGradient>
</defs>
</svg>
