<svg width="14" height="14" viewBox="0 0 14 14" fill="none" xmlns="http://www.w3.org/2000/svg">
<path d="M7 8.75C7.9665 8.75 8.75 7.9665 8.75 7C8.75 6.0335 7.9665 5.25 7 5.25C6.0335 5.25 5.25 6.0335 5.25 7C5.25 7.9665 6.0335 8.75 7 8.75Z" stroke="white"/>
<path d="M2.13551 6.2075C2.41116 6.38069 2.58852 6.67574 2.58852 7.00124C2.58852 7.3268 2.41116 7.62185 2.13551 7.79504C1.94793 7.91288 1.82708 8.00709 1.74109 8.11914C1.55273 8.36467 1.4696 8.67489 1.50999 8.98166C1.54027 9.21173 1.67617 9.4471 1.94797 9.91791C2.21978 10.3887 2.35567 10.624 2.53978 10.7653C2.78526 10.9537 3.09551 11.0368 3.40229 10.9964C3.5423 10.978 3.68429 10.9204 3.8801 10.8169C4.16797 10.6648 4.51222 10.6587 4.79418 10.8216C5.07612 10.9844 5.24295 11.2855 5.25512 11.6108C5.2634 11.8322 5.28455 11.984 5.3386 12.1145C5.45701 12.4003 5.68413 12.6274 5.96998 12.7459C6.18441 12.8346 6.45619 12.8346 6.9998 12.8346C7.5434 12.8346 7.81518 12.8346 8.02961 12.7459C8.31545 12.6274 8.5426 12.4003 8.66101 12.1145C8.71503 11.984 8.7362 11.8322 8.74449 11.6109C8.75662 11.2855 8.92345 10.9844 9.20544 10.8216C9.48736 10.6588 9.83159 10.6649 10.1194 10.817C10.3153 10.9205 10.4573 10.9781 10.5973 10.9965C10.904 11.0369 11.2143 10.9537 11.4598 10.7654C11.6439 10.6242 11.7798 10.3887 12.0516 9.91797C12.1726 9.70838 12.2667 9.54545 12.3365 9.40884M11.864 7.7951C11.5884 7.62191 11.4111 7.32686 11.411 7.00136C11.411 6.6758 11.5884 6.38069 11.864 6.2075C12.0516 6.08967 12.1724 5.99546 12.2584 5.8834C12.4468 5.63792 12.5299 5.32767 12.4895 5.0209C12.4593 4.79082 12.3234 4.55543 12.0515 4.08466C11.7797 3.61389 11.6438 3.37851 11.4597 3.23724C11.2143 3.04887 10.904 2.96574 10.5972 3.00613C10.4572 3.02457 10.3152 3.08212 10.1194 3.18562C9.83153 3.33776 9.4873 3.34383 9.20538 3.18103C8.92345 3.01824 8.75662 2.71713 8.74449 2.39182C8.7362 2.17044 8.71503 2.01867 8.66101 1.88817C8.5426 1.60231 8.31545 1.37519 8.02961 1.25678C7.81518 1.16797 7.5434 1.16797 6.9998 1.16797C6.45619 1.16797 6.18441 1.16797 5.96998 1.25678C5.68413 1.37519 5.45701 1.60231 5.3386 1.88817C5.28455 2.01866 5.2634 2.17042 5.25512 2.39177C5.24295 2.7171 5.07611 3.01825 4.79416 3.18103C4.51221 3.34381 4.16799 3.33773 3.88016 3.1856C3.68432 3.0821 3.54232 3.02454 3.40229 3.0061C3.09552 2.96571 2.78526 3.04885 2.53979 3.23721C2.35568 3.37848 2.21978 3.61387 1.94798 4.08464C1.82698 4.29422 1.73291 4.45715 1.6631 4.59373" stroke="white" stroke-linecap="round"/>
</svg>
