<svg width="28" height="28" viewBox="0 0 28 28" fill="none" xmlns="http://www.w3.org/2000/svg">
<path d="M20.1106 16.7638C19.7818 17.091 19.7805 17.6228 20.1077 17.9517C20.4349 18.2806 20.9667 18.2819 21.2956 17.9547L20.1106 16.7638ZM24.6724 14.5947C25.0013 14.2675 25.0026 13.7356 24.6754 13.4067C24.3482 13.0779 23.8163 13.0766 23.4874 13.4037L24.6724 14.5947ZM23.4874 14.5947C23.8163 14.9219 24.3482 14.9205 24.6754 14.5917C25.0026 14.2629 25.0013 13.731 24.6724 13.4037L23.4874 14.5947ZM21.2956 10.0437C20.9667 9.71656 20.4349 9.71791 20.1077 10.0467C19.7805 10.3756 19.7818 10.9075 20.1106 11.2347L21.2956 10.0437ZM24.0799 14.8392C24.5438 14.8392 24.9199 14.4631 24.9199 13.9992C24.9199 13.5353 24.5438 13.1592 24.0799 13.1592V14.8392ZM8.39992 13.1592C7.93602 13.1592 7.55992 13.5353 7.55992 13.9992C7.55992 14.4631 7.93602 14.8392 8.39992 14.8392V13.1592ZM21.2956 17.9547L24.6724 14.5947L23.4874 13.4037L20.1106 16.7638L21.2956 17.9547ZM24.6724 13.4037L21.2956 10.0437L20.1106 11.2347L23.4874 14.5947L24.6724 13.4037ZM24.0799 13.1592H8.39992V14.8392H24.0799V13.1592Z" fill="white"/>
<path d="M17.3601 10.6398C17.3601 8.16565 15.3543 6.15984 12.8801 6.15984H8.40011C5.92591 6.15984 3.92011 8.16565 3.92011 10.6398V17.3598C3.92011 19.8341 5.92591 21.8398 8.40011 21.8398H12.8801C15.3543 21.8398 17.3601 19.8341 17.3601 17.3598" stroke="white" stroke-linecap="round" stroke-linejoin="round"/>
</svg>
