<svg width="2120" height="1535" viewBox="0 0 2120 1535" fill="none" xmlns="http://www.w3.org/2000/svg">
<mask id="mask0_5036_2386" style="mask-type:luminance" maskUnits="userSpaceOnUse" x="230" y="0" width="1347" height="1133">
<path d="M230.332 0H1576.46V1132.54H230.332V0Z" fill="white"/>
</mask>
<g mask="url(#mask0_5036_2386)">
<path d="M379.571 1132.54C379.571 1132.54 45.2425 821.675 379.571 534.482C379.571 534.482 1010.85 63.5182 1053.84 0.804688C1053.84 0.804688 1367.61 343.852 1575.68 411.341C1575.68 411.341 1303.02 338.039 1053.84 97.5703C1053.84 97.5703 602.388 481.737 420.482 593.044C420.691 593.044 150.941 777.648 379.571 1132.54Z" fill="black"/>
</g>
<path d="M622.41 1006.88H534.535L668.431 619H774.118L907.827 1006.88H819.952L791.16 918.438H651.202L622.41 1006.88ZM672.035 854.417H770.514L722.785 707.625H719.764L672.035 854.417Z" fill="url(#paint0_linear_5036_2386)"/>
<path d="M1033.58 619V1006.88H952.895V619H1033.58Z" fill="url(#paint1_linear_5036_2386)"/>
<path d="M1097.97 1006.87V715.953H1178.66V1006.87H1097.97ZM1138.51 678.453C1126.65 678.453 1116.42 674.448 1107.82 666.432C1099.24 658.422 1094.95 648.797 1094.95 637.557C1094.95 626.323 1099.24 616.724 1107.82 608.766C1116.42 600.807 1126.65 596.828 1138.51 596.828C1150.51 596.828 1160.8 600.807 1169.39 608.766C1177.97 616.724 1182.26 626.323 1182.26 637.557C1182.26 648.797 1177.97 658.422 1169.39 666.432C1160.8 674.448 1150.51 678.453 1138.51 678.453Z" fill="url(#paint2_linear_5036_2386)"/>
<path d="M1243.05 1006.88V715.958H1319.94V767.292H1323.36C1329.41 750.125 1339.55 736.656 1353.76 726.875C1367.96 717.083 1384.85 712.188 1404.42 712.188C1424.36 712.188 1441.34 717.146 1455.36 727.062C1469.37 736.969 1478.72 750.375 1483.4 767.292H1486.42C1492.36 750.625 1503.13 737.281 1518.71 727.25C1534.31 717.208 1552.78 712.188 1574.11 712.188C1601.26 712.188 1623.32 720.807 1640.3 738.042C1657.28 755.266 1665.78 779.661 1665.78 811.229V1006.88H1585.3V827.146C1585.3 810.979 1580.99 798.854 1572.4 790.771C1563.82 782.688 1553.09 778.646 1540.21 778.646C1525.57 778.646 1514.15 783.323 1505.94 792.667C1497.73 802.016 1493.63 814.203 1493.63 829.229V1006.88H1415.4V825.438C1415.4 811.177 1411.32 799.813 1403.17 791.354C1395.03 782.885 1384.34 778.646 1371.09 778.646C1357.7 778.646 1346.45 783.542 1337.36 793.333C1328.28 803.125 1323.73 816.099 1323.73 832.25V1006.88H1243.05Z" fill="url(#paint3_linear_5036_2386)"/>
<mask id="mask1_5036_2386" style="mask-type:luminance" maskUnits="userSpaceOnUse" x="1240" y="509" width="416" height="178">
<path d="M1240.47 509.523H1655.47V686.669H1240.47V509.523Z" fill="white"/>
</mask>
<g mask="url(#mask1_5036_2386)">
<path d="M1241.9 681.458C1241.46 642.62 1248.1 592.953 1261.83 532.463C1304.89 519.401 1361.54 512.094 1431.77 510.536C1454.91 509.896 1480.18 510.792 1507.6 513.208C1577.26 520.984 1614.58 524.818 1619.57 524.713C1623.21 525.182 1625.91 526.036 1627.67 527.271C1639.46 544.453 1648.68 593.495 1655.35 674.38C1654.57 680.786 1624.18 684.458 1564.2 685.396C1548.03 686.63 1483.53 685.823 1370.72 682.969L1240.46 684.911L1241.9 681.458Z" fill="black"/>
</g>
<path d="M1274.27 609.569C1275.89 605.418 1280.76 594.314 1288.86 576.256C1290.08 573.704 1291.2 572.376 1292.23 572.272C1294.19 572.137 1297.15 574.183 1301.11 578.413C1301.9 579.032 1306.38 584.449 1314.55 594.663C1315.73 596.027 1317.72 598.064 1320.52 600.782C1321.01 601.329 1321.17 601.97 1321.02 602.704C1316.95 608.584 1311.01 618.397 1303.19 632.137C1302.12 633.892 1301.32 634.798 1300.79 634.85C1292.34 630.324 1283.2 623.032 1273.36 612.965L1274.27 609.569Z" fill="#D6CE2B"/>
<path d="M1337.54 603.144C1339.16 598.993 1344.02 587.889 1352.13 569.826C1353.34 567.279 1354.47 565.951 1355.5 565.842C1357.45 565.712 1360.41 567.758 1364.38 571.982C1365.16 572.602 1369.64 578.019 1377.81 588.238C1378.99 589.597 1380.98 591.639 1383.78 594.357C1384.27 594.899 1384.44 595.54 1384.29 596.274C1380.21 602.159 1374.27 611.967 1366.45 625.706C1365.39 627.467 1364.59 628.368 1364.05 628.425C1355.61 623.899 1346.46 616.602 1336.62 606.54L1337.54 603.144Z" fill="#D6CE2B"/>
<path d="M1400.52 599.191C1402.14 595.034 1407 583.93 1415.11 565.873C1416.32 563.321 1417.45 561.993 1418.48 561.889C1420.43 561.758 1423.39 563.805 1427.36 568.029C1428.14 568.649 1432.62 574.066 1440.79 584.279C1441.98 585.644 1443.96 587.68 1446.76 590.399C1447.25 590.946 1447.42 591.587 1447.27 592.321C1443.19 598.201 1437.25 608.014 1429.43 621.753C1428.37 623.508 1427.57 624.415 1427.04 624.472C1418.59 619.941 1409.44 612.649 1399.61 602.587L1400.52 599.191Z" fill="#D6CE2B"/>
<path d="M1466.7 602.553C1468.32 598.402 1473.18 587.298 1481.29 569.235C1482.51 566.689 1483.63 565.36 1484.66 565.256C1486.61 565.121 1489.57 567.168 1493.54 571.392C1494.32 572.012 1498.8 577.428 1506.97 587.647C1508.16 589.006 1510.15 591.048 1512.94 593.767C1513.43 594.308 1513.6 594.949 1513.45 595.683C1509.38 601.569 1503.43 611.376 1495.61 625.116C1494.55 626.876 1493.74 627.777 1493.21 627.834C1484.77 623.308 1475.62 616.012 1465.78 605.949L1466.7 602.553Z" fill="#D6CE2B"/>
<path d="M1528.58 604.784C1530.2 600.628 1535.06 589.524 1543.17 571.467C1544.39 568.915 1545.51 567.587 1546.54 567.482C1548.5 567.352 1551.45 569.399 1555.42 573.623C1556.2 574.243 1560.68 579.659 1568.86 589.873C1570.04 591.238 1572.03 593.274 1574.82 595.993C1575.31 596.54 1575.48 597.18 1575.33 597.915C1571.26 603.795 1565.31 613.607 1557.5 627.347C1556.43 629.102 1555.63 630.008 1555.1 630.061C1546.65 625.534 1537.51 618.243 1527.67 608.18L1528.58 604.784Z" fill="#D6CE2B"/>
<path d="M1593.64 606.144C1595.26 601.993 1600.12 590.883 1608.22 572.826C1609.45 570.274 1610.57 568.946 1611.6 568.842C1613.56 568.712 1616.51 570.758 1620.48 574.982C1621.26 575.602 1625.74 581.019 1633.91 591.232C1635.1 592.597 1637.09 594.633 1639.88 597.352C1640.37 597.899 1640.54 598.54 1640.39 599.274C1636.32 605.154 1630.37 614.967 1622.56 628.706C1621.49 630.462 1620.69 631.368 1620.15 631.425C1611.71 626.894 1602.57 619.602 1592.72 609.54L1593.64 606.144Z" fill="#D6CE2B"/>
<path d="M1469 531.574C1465.39 531.543 1462.2 531.528 1459.39 531.528H1459.38C1448.47 531.455 1436.61 531.715 1423.81 532.304C1399.64 533.418 1380.93 534.647 1367.67 535.991L1367.66 535.996C1355.59 536.955 1332.11 540.074 1297.22 545.351H1297.21C1279.21 547.002 1266.67 548.356 1259.59 549.408L1259.58 549.413C1259.06 549.47 1258.55 549.533 1258.06 549.595L1258.07 549.601C1257.42 552.668 1256.79 555.71 1256.18 558.72C1257.44 558.528 1258.95 558.33 1260.73 558.116C1260.77 558.111 1260.82 558.106 1260.86 558.101C1267.79 557.069 1280.22 555.731 1298.17 554.085C1298.25 554.074 1298.34 554.064 1298.42 554.054C1333.27 548.783 1356.61 545.679 1368.46 544.741L1368.55 544.731C1381.64 543.403 1400.2 542.184 1424.22 541.08C1436.87 540.496 1448.59 540.241 1459.36 540.309H1459.39C1462.17 540.309 1465.35 540.324 1468.94 540.356C1486.23 540.517 1512.88 541.101 1548.89 542.101C1561.97 542.574 1573.57 543.298 1583.68 544.278C1583.81 544.288 1583.93 544.298 1584.06 544.298C1584.07 544.298 1584.07 544.298 1584.08 544.298C1584.11 544.298 1584.13 544.298 1584.17 544.298C1590.99 544.361 1609.06 547.668 1638.38 554.21C1637.45 550.741 1636.5 547.538 1635.54 544.601H1635.55C1608.47 538.642 1591.4 535.616 1584.35 535.517H1584.33C1574.08 534.533 1562.36 533.798 1549.18 533.319H1549.13C1513.08 532.319 1486.36 531.736 1469 531.574Z" fill="#AD1D34"/>
<path d="M1543.18 631.288C1540.23 631.262 1537.28 631.251 1534.32 631.262C1528.81 631.272 1522.78 631.34 1516.23 631.47H1516.22L1437.67 633.095H1437.66C1428.26 633.314 1419.44 633.658 1411.18 634.132H1411.14L1411.1 634.137C1376.15 636.736 1349.96 638.481 1332.52 639.382H1332.51C1298.78 640.512 1280.71 641.246 1278.31 641.58C1278.15 641.606 1277.98 641.632 1277.83 641.668H1277.82C1268.63 642.449 1257.09 643.887 1243.21 645.97H1243.22C1242.98 649.012 1242.77 652.001 1242.59 654.944C1257.4 652.694 1269.55 651.168 1279.05 650.376C1279.31 650.356 1279.56 650.314 1279.8 650.251C1282.86 649.939 1300.55 649.241 1332.87 648.158L1332.95 648.152C1350.45 647.251 1376.71 645.501 1411.72 642.897C1419.87 642.434 1428.58 642.09 1437.85 641.876L1516.4 640.251H1516.42C1522.91 640.121 1528.89 640.053 1534.34 640.048H1534.35C1537.27 640.038 1540.19 640.043 1543.1 640.074C1563.77 640.267 1584.11 641.418 1604.11 643.522C1604.16 643.527 1604.21 643.533 1604.27 643.538C1611.96 644.064 1628.35 647.1 1653.43 652.632C1653.13 649.517 1652.83 646.455 1652.52 643.449H1652.54C1628.67 638.231 1612.82 635.34 1604.99 634.783H1604.97C1584.71 632.652 1564.11 631.486 1543.18 631.288ZM1281.13 642.35C1283.29 643.689 1283.83 645.465 1282.75 647.678C1282.84 647.449 1282.92 647.205 1282.97 646.949C1283.36 645.173 1282.62 643.345 1281.12 642.35H1281.13ZM1281.87 649.038C1281.38 649.58 1280.8 649.949 1280.13 650.152C1280.79 649.918 1281.38 649.538 1281.86 649.038H1281.87Z" fill="#AD1D34"/>
<path d="M0 1109.34C241.328 1059.98 495.161 1073.12 730.094 1147.13C965.036 1221.15 1180.57 1355.88 1350.03 1534.65C987.495 1293.15 526.292 1202.42 94.8542 1262.55L0 1109.34Z" fill="black"/>
<path d="M1026.29 1320.02C932.874 1381.46 846.426 1453.49 769.504 1534.65C878.801 1461.84 997.082 1402.76 1120.8 1357.36C1089.69 1344 1058.18 1331.56 1026.29 1320.02Z" fill="black"/>
<path d="M1389.43 1147.14C1290.89 1178.18 1195.78 1219.95 1106.04 1271.12C1136.39 1290.33 1166.07 1310.61 1194.94 1331.98C1461.35 1247.3 1749.09 1224.14 2024.69 1262.55L2119.53 1109.34C1878.21 1059.98 1624.37 1073.12 1389.43 1147.14Z" fill="black"/>
<defs>
<linearGradient id="paint0_linear_5036_2386" x1="721.181" y1="619" x2="721.181" y2="1006.88" gradientUnits="userSpaceOnUse">
<stop offset="0.572115" stop-color="#22D3EE"/>
<stop offset="1" stop-color="#153347"/>
</linearGradient>
<linearGradient id="paint1_linear_5036_2386" x1="993.237" y1="619" x2="993.237" y2="1006.88" gradientUnits="userSpaceOnUse">
<stop offset="0.572115" stop-color="#22D3EE"/>
<stop offset="1" stop-color="#153347"/>
</linearGradient>
<linearGradient id="paint2_linear_5036_2386" x1="1138.6" y1="596.828" x2="1138.6" y2="1006.87" gradientUnits="userSpaceOnUse">
<stop offset="0.572115" stop-color="#22D3EE"/>
<stop offset="1" stop-color="#153347"/>
</linearGradient>
<linearGradient id="paint3_linear_5036_2386" x1="1454.42" y1="712.188" x2="1454.42" y2="1006.88" gradientUnits="userSpaceOnUse">
<stop offset="0.572115" stop-color="#22D3EE"/>
<stop offset="1" stop-color="#153347"/>
</linearGradient>
</defs>
</svg>
