<svg width="80" height="80" viewBox="0 0 80 80" fill="none" xmlns="http://www.w3.org/2000/svg">
<path d="M26.7092 38.4513C27.629 44.6273 32.3049 49.4353 38.2061 50.2727L38.5774 50.3253C39.5311 50.4607 40.4974 50.4607 41.4511 50.3253L41.7727 50.2797C47.7014 49.4383 52.3967 44.6033 53.3114 38.397C54.1097 32.9808 54.1094 27.4637 53.3107 22.0476C52.3964 15.8444 47.7087 11.0027 41.7844 10.1495L41.4724 10.1045C40.5047 9.96516 39.5237 9.96516 38.5561 10.1045L38.1944 10.1566C32.2977 11.0059 27.6291 15.8202 26.7098 21.993C25.8979 27.4447 25.8973 32.9998 26.7092 38.4513Z" fill="black"/>
<path d="M19.8387 36.985C19.8387 35.5823 18.7555 34.4453 17.4194 34.4453C16.0832 34.4453 15 35.5823 15 36.985C15 50.622 24.9087 61.8296 37.5807 63.107V67.461C37.5807 68.8636 38.6637 70.0006 40 70.0006C41.3363 70.0006 42.4193 68.8636 42.4193 67.461V63.107C55.0913 61.8296 65 50.622 65 36.985C65 35.5823 63.9167 34.4453 62.5807 34.4453C61.2443 34.4453 60.1613 35.5823 60.1613 36.985C60.1613 48.6733 51.1347 58.149 40 58.149C28.8652 58.149 19.8387 48.6733 19.8387 36.985Z" fill="black"/>
</svg>
